{"glyphs":{"0":{"ha":833,"x_min":47,"x_max":828,"o":"m 300 -61 q 120 3 186 -61 q 54 181 54 67 q 71 299 54 240 q 47 417 47 353 q 128 603 47 518 q 535 764 281 764 q 722 704 642 764 q 824 539 808 642 q 828 472 828 510 q 725 167 828 307 q 467 -28 626 32 q 300 -61 382 -61 m 272 -3 q 472 47 367 -3 q 704 224 614 115 q 811 489 811 351 q 810 513 811 501 q 808 536 810 525 q 710 682 796 625 q 535 735 629 735 q 292 676 403 735 q 117 500 172 614 q 90 383 90 447 q 93 361 90 369 q 143 438 113 397 q 217 521 174 478 q 372 640 303 607 q 501 672 442 672 q 529 664 529 672 q 500 656 529 656 q 274 517 404 656 q 110 286 158 394 q 164 232 133 249 q 179 221 179 225 q 171 217 179 217 q 97 256 135 217 q 76 178 76 196 q 129 43 76 89 q 272 -3 182 -3 m 418 292 q 381 390 381 338 q 408 443 381 443 q 446 396 432 443 q 500 426 478 426 q 514 411 514 426 q 479 342 514 382 q 418 292 446 300 z "},"1":{"ha":575,"x_min":-61,"x_max":579,"o":"m -32 -86 q -51 -70 -42 -86 q -61 -44 -61 -54 q -58 -36 -61 -39 q 146 57 -7 29 q 229 258 160 131 q 213 325 213 292 q 240 379 213 379 q 276 338 263 379 l 357 467 l 433 589 q 442 604 440 601 q 338 533 399 586 q 232 453 244 453 q 222 456 222 453 q 233 468 222 457 l 353 571 q 416 629 388 601 q 467 681 444 657 q 499 715 482 697 q 533 742 515 733 q 551 746 544 746 q 579 714 579 746 q 567 681 579 693 q 321 360 408 514 q 332 361 325 361 q 346 346 346 361 q 314 281 346 319 q 258 231 286 244 q 210 65 222 140 q 238 67 224 67 q 267 67 253 67 q 357 58 301 67 q 431 33 431 47 q 417 24 431 24 q 404 26 415 24 q 374 31 393 28 q 343 35 358 33 q 314 36 328 36 q 206 28 258 36 l 206 24 q 228 -17 206 -17 q 253 -10 236 -17 q 278 -3 271 -3 q 279 -4 279 -3 q 240 -28 279 -10 q 193 -49 203 -49 q 143 13 147 -49 q -24 -83 42 -14 q -32 -86 -29 -86 z "},"2":{"ha":926,"x_min":22,"x_max":897,"o":"m 733 -79 q 481 -29 613 -79 l 243 65 q 85 22 143 22 q 22 71 22 22 q 107 131 22 131 q 239 104 160 131 q 352 167 292 131 q 482 249 413 203 q 528 280 501 261 q 589 324 554 299 q 776 600 776 476 q 740 668 776 643 q 664 689 710 689 q 468 635 564 689 q 356 478 356 571 q 358 458 356 471 q 361 438 361 444 q 358 431 361 431 q 339 460 347 431 q 332 499 332 485 q 458 656 332 592 q 668 710 567 710 q 790 679 742 710 q 847 575 847 643 q 631 282 847 443 q 292 86 482 172 q 433 40 374 58 q 529 13 492 22 q 778 -17 653 -17 q 867 21 867 -17 q 803 113 867 74 q 689 147 747 144 l 682 147 q 676 146 681 146 l 669 146 q 653 154 653 146 q 665 164 653 164 q 810 126 735 164 q 897 21 897 83 q 836 -56 897 -24 q 733 -79 782 -79 m 556 414 q 518 513 518 460 q 546 565 518 565 q 583 519 567 565 q 636 549 617 549 q 650 533 650 549 q 617 464 650 506 q 556 414 583 422 m 85 39 q 138 54 107 39 q 163 67 150 61 q 188 81 175 74 q 107 94 126 94 q 50 63 50 94 q 85 39 50 39 z "},"3":{"ha":892,"x_min":-39,"x_max":853,"o":"m 293 -65 q 86 -32 174 -65 q -39 111 -39 14 q 32 208 -39 175 q 160 233 86 233 q 258 225 207 233 q 286 282 256 282 q 324 235 310 282 q 378 264 357 264 q 392 249 392 264 q 369 196 392 226 q 539 118 539 139 q 533 114 539 114 q 522 117 531 114 q 357 179 429 160 q 296 129 324 140 q 273 164 282 146 q 261 201 264 182 q 167 210 211 210 q 69 192 110 210 q 14 119 14 169 q 99 -11 14 32 q 260 -47 168 -47 q 568 18 414 -47 q 757 238 757 101 q 632 367 757 328 q 433 394 546 394 q 414 414 414 394 q 440 443 414 438 q 480 449 456 446 q 536 457 504 451 q 701 511 619 474 q 815 622 815 563 q 738 683 815 664 q 626 696 688 696 q 493 679 558 696 q 401 611 401 657 q 396 601 401 601 q 386 618 386 601 q 488 700 386 669 q 633 722 560 722 q 771 700 714 722 q 853 603 853 668 q 599 425 853 474 q 833 239 833 382 q 629 1 833 88 q 293 -65 471 -65 z "},"4":{"ha":899,"x_min":-3,"x_max":968,"o":"m 481 -132 q 426 -81 444 -132 q 411 3 411 -39 q 457 211 411 93 q 310 241 381 225 q 171 276 239 257 q 54 254 92 254 q -3 293 -3 254 q 75 328 -3 328 q 194 311 122 328 q 274 346 231 325 q 365 397 317 367 q 357 443 357 421 q 385 497 357 497 q 422 450 408 497 q 476 479 456 479 q 489 472 485 479 q 717 626 621 553 q 874 767 814 699 q 899 782 889 782 q 924 754 924 782 q 901 726 924 740 l 868 706 q 674 496 779 638 q 590 372 628 433 q 522 251 553 311 q 725 239 638 239 q 847 256 788 239 q 932 324 932 278 q 861 383 932 361 q 792 411 792 407 q 800 415 792 418 l 804 415 q 911 388 865 411 q 968 301 968 356 q 885 201 968 233 q 744 179 828 179 q 500 204 653 179 q 449 6 449 88 q 475 -81 449 -44 q 501 -117 501 -119 q 481 -132 501 -132 m 475 257 q 626 515 536 394 q 475 421 571 474 q 394 344 439 360 l 378 369 q 229 301 293 326 q 350 276 289 288 q 475 257 411 265 m 74 279 q 140 292 97 279 q 61 311 94 311 q 17 292 17 311 q 74 279 17 279 z "},"5":{"ha":903,"x_min":-118,"x_max":1000,"o":"m 847 582 q 588 644 757 582 q 329 707 419 707 q 267 689 267 707 q 282 668 267 679 q 297 653 297 657 q 289 643 297 643 q 257 660 274 643 q 240 693 240 676 q 335 739 240 739 q 585 689 421 739 q 838 640 751 640 q 974 701 974 640 q 907 783 974 761 q 904 785 904 783 q 922 793 904 793 q 939 788 926 793 q 1000 701 1000 760 q 966 622 1000 654 q 885 583 932 589 q 867 582 876 582 q 847 582 858 582 m 82 -106 q -42 -86 14 -106 q -118 -3 -118 -60 q 79 135 -118 81 q 349 175 229 175 q 376 165 376 175 q 349 158 376 158 q 113 104 274 158 q -69 -11 -69 43 q -67 -22 -69 -17 q 82 -75 -35 -75 q 424 -12 260 -75 q 713 179 603 57 q 785 328 785 260 q 642 421 785 421 q 339 358 522 421 q 297 347 301 347 q 279 361 279 347 q 306 407 279 372 q 358 485 336 447 q 396 558 381 524 l 411 593 q 456 617 424 617 q 485 599 485 617 q 361 383 485 586 q 431 406 396 394 q 500 426 465 417 q 642 453 581 453 q 785 425 726 453 q 858 311 858 388 q 799 168 858 240 q 472 -44 686 28 q 82 -106 289 -106 m 482 153 q 444 251 444 199 q 472 306 444 306 q 510 258 493 306 q 564 288 543 288 q 578 272 578 288 q 543 203 578 243 q 482 153 510 161 z "},"6":{"ha":754,"x_min":14,"x_max":750,"o":"m 175 -231 q 153 -222 169 -231 q 91 -167 117 -203 q 65 -92 65 -131 q 74 -39 65 -65 q 14 69 14 -4 q 281 461 14 247 q 724 725 501 640 q 744 729 736 729 q 750 726 750 729 q 725 708 750 721 q 624 656 678 686 q 511 588 571 625 q 240 367 357 490 q 86 69 86 203 q 96 17 86 38 q 360 265 164 146 q 567 332 467 332 q 699 224 699 332 q 582 47 699 129 q 379 -47 493 -17 q 213 -72 290 -72 q 107 -56 151 -72 q 103 -97 103 -76 q 122 -167 103 -136 q 158 -206 132 -183 q 179 -228 179 -219 q 175 -231 179 -231 m 222 -47 q 360 -22 285 -47 q 531 69 454 10 q 631 224 631 147 q 538 293 631 293 q 290 194 418 293 q 121 -17 169 100 q 222 -47 156 -47 m 367 44 q 329 143 329 90 q 357 197 329 197 q 394 150 378 197 q 449 179 428 179 q 463 164 463 179 q 428 94 463 135 q 367 44 394 56 z "},"7":{"ha":535,"x_min":44,"x_max":772,"o":"m 126 -101 q 72 -32 72 -101 q 133 165 72 50 q 231 306 171 235 q 372 450 290 378 q 492 546 417 489 q 672 678 567 603 q 569 663 608 668 q 517 658 531 658 q 443 663 488 658 q 249 680 328 674 q 128 686 169 686 q 79 668 79 686 q 118 629 79 656 q 169 600 150 608 q 185 588 185 593 q 176 583 185 583 q 97 617 150 583 q 44 681 44 653 q 100 731 44 714 q 185 743 140 743 q 240 739 207 743 q 321 728 274 735 q 492 701 424 710 q 594 693 560 693 q 753 742 704 693 l 772 718 q 376 389 560 583 q 138 -43 138 138 q 144 -71 138 -71 q 151 -69 146 -71 q 158 -67 156 -67 q 178 -82 178 -67 q 157 -95 178 -89 q 126 -101 136 -101 m 258 424 q 221 522 221 469 q 249 576 221 576 q 286 529 272 576 q 340 558 319 558 q 354 543 354 558 q 319 474 354 514 q 258 424 286 435 z "},"8":{"ha":822,"x_min":8,"x_max":1339,"o":"m 175 -74 q 8 14 8 -74 q 118 181 8 79 q 256 301 183 242 q 244 357 244 331 q 272 410 244 410 q 310 363 296 410 q 367 393 349 397 q 407 425 386 408 q 450 457 428 442 q 360 576 360 531 q 507 714 360 663 q 725 753 618 753 q 861 735 807 753 q 1304 907 1111 875 q 1320 909 1314 908 q 1332 910 1326 910 q 1339 907 1339 910 q 1304 890 1339 900 q 906 714 1115 832 q 954 633 954 682 q 938 596 954 596 q 922 611 922 596 q 924 622 922 614 q 925 633 925 629 q 871 694 925 676 l 679 586 q 578 524 624 554 q 494 467 532 494 q 564 402 536 429 q 606 357 592 375 q 663 215 663 283 q 653 151 663 181 q 449 -18 617 49 q 175 -74 308 -74 m 482 482 q 653 603 569 547 q 814 707 736 660 q 794 708 804 708 q 772 708 783 708 q 574 674 682 708 q 431 564 431 631 q 482 482 431 532 m 178 -6 q 429 40 286 -6 q 626 169 601 94 q 635 224 635 197 q 574 349 635 283 q 533 386 561 363 q 463 444 506 410 q 421 413 442 429 q 378 378 400 396 q 343 308 375 347 q 282 258 310 269 l 267 279 l 153 174 q 64 46 64 90 q 178 -6 64 -6 z "},"9":{"ha":744,"x_min":49,"x_max":947,"o":"m 301 -190 q 251 -160 269 -190 q 236 -100 236 -132 q 496 400 236 49 q 203 231 310 231 q 94 270 140 231 q 49 372 49 310 q 58 425 49 401 q 342 697 119 596 q 738 786 532 786 q 863 772 808 786 q 947 710 947 754 q 924 663 947 697 q 886 631 900 631 q 883 633 883 631 q 901 660 883 640 q 921 699 921 683 q 726 757 921 757 q 372 676 538 757 q 124 424 181 582 q 113 357 113 388 q 135 281 113 313 q 201 249 158 249 q 574 519 331 249 q 601 553 585 533 q 639 600 617 574 q 678 621 660 621 q 703 600 703 621 q 590 433 703 586 q 467 263 518 336 q 383 139 415 190 q 271 -115 271 -37 q 288 -168 271 -153 q 303 -183 299 -178 q 308 -187 308 -187 q 301 -190 308 -190 m 338 414 q 300 513 300 460 q 328 567 300 567 q 365 519 349 567 q 418 549 399 549 q 432 533 432 549 q 399 464 432 506 q 338 414 365 425 z "},"\r":{"ha":0,"x_min":0,"x_max":0,"o":""}," ":{"ha":272,"x_min":0,"x_max":0,"o":""}," ":{"ha":272,"x_min":0,"x_max":0,"o":""},"A":{"ha":913,"x_min":-278,"x_max":1042,"o":"m -211 -254 q -278 -211 -278 -254 q -260 -167 -278 -181 q -264 -194 -264 -181 q -208 -235 -264 -235 q 13 -140 -114 -235 q -37 -107 -17 -125 q -208 -199 -154 -199 q -229 -186 -229 -199 q -218 -176 -229 -176 q -210 -178 -215 -176 q -203 -179 -206 -179 q -47 -99 -150 -179 q -93 -8 -93 -54 q 86 165 -93 89 q 166 192 122 181 q 261 214 210 204 q 294 259 279 238 q 321 300 310 281 q 317 360 317 336 q 349 447 317 447 q 379 403 368 447 q 413 458 393 422 q 456 544 432 493 q 524 699 492 619 q 583 861 556 778 q 596 883 589 876 q 597 878 597 882 q 404 413 597 772 q 435 422 424 422 q 443 413 443 422 q 332 290 443 376 q 309 255 322 274 q 281 217 296 236 q 350 225 311 222 q 457 386 406 303 q 556 558 508 469 q 678 900 678 786 q 618 976 678 967 q 606 985 606 979 q 621 993 606 993 q 704 959 675 993 q 733 871 733 925 q 618 539 733 750 q 524 383 575 460 q 415 231 472 306 q 482 235 439 233 q 585 240 525 238 q 643 242 625 242 q 660 243 661 243 q 668 239 668 243 q 641 223 668 225 q 561 217 614 221 q 467 210 510 214 q 393 203 425 207 q 53 -140 215 -19 q 183 -175 89 -158 q 196 -183 196 -176 q 182 -190 196 -190 q 38 -151 121 -190 q -211 -254 -107 -254 m 889 -164 q 782 -119 838 -164 q 704 -22 728 -75 q 674 169 674 44 q 685 305 674 207 q 710 560 696 403 l 722 700 q 732 726 724 726 q 747 696 747 726 l 747 463 q 810 -64 747 81 q 897 -150 847 -150 q 1042 -24 963 -150 q 1011 -89 1040 -50 q 957 -144 981 -131 q 889 -164 922 -164 m 29 -128 q 325 192 168 -17 q 284 183 304 188 q 244 172 264 178 q -14 -87 125 29 q 4 -108 -7 -99 q 29 -128 15 -118 m -21 -78 q 102 35 42 -26 q 222 165 163 96 q 65 90 132 136 q -29 -39 -29 28 q -21 -78 -29 -58 z "},"Æ":{"ha":1308,"x_min":-278,"x_max":1329,"o":"m -211 -254 q -278 -211 -278 -254 q -260 -167 -278 -181 q -264 -194 -264 -181 q -208 -235 -264 -235 q 13 -140 -114 -235 q -11 -126 0 -133 q -32 -111 -22 -118 q -190 -183 -133 -183 q -200 -178 -200 -183 q -186 -165 -200 -169 q -173 -161 -181 -164 q -156 -156 -165 -158 q -105 -131 -132 -146 q -50 -96 -78 -117 q -81 -18 -81 -65 q -8 133 -81 61 q 136 231 51 193 q 296 276 200 257 q 563 765 478 514 q 551 776 551 769 q 571 792 551 785 q 596 876 586 835 q 607 919 597 889 q 618 929 608 929 q 619 926 619 928 q 592 797 619 900 q 674 814 633 808 q 682 857 679 838 q 685 893 685 876 q 618 976 685 967 q 606 985 606 979 q 621 993 606 993 q 658 988 638 993 q 744 867 744 964 q 740 822 744 846 l 822 826 q 878 893 851 893 q 899 871 899 893 q 885 826 899 864 q 981 820 929 825 q 1090 808 1032 815 q 1209 788 1160 799 q 1289 765 1258 776 q 1310 835 1303 801 q 1313 857 1311 844 q 1325 869 1315 869 q 1329 850 1329 869 q 1317 742 1329 803 q 1318 739 1318 740 q 1314 731 1318 733 q 1289 644 1299 668 q 1225 594 1267 594 q 1191 606 1211 594 q 1171 628 1171 618 q 1196 635 1171 631 q 1269 718 1232 642 q 1217 728 1246 718 q 871 782 1078 772 q 829 554 850 701 q 809 414 818 471 q 793 326 800 357 q 976 360 833 331 q 1150 385 1101 385 q 1154 382 1154 385 q 1128 356 1154 368 q 785 289 1063 328 q 610 -18 728 53 q 722 -22 671 -21 q 813 -24 772 -24 q 1134 16 1033 -24 q 1235 118 1235 56 q 1211 182 1235 146 q 1188 225 1188 218 q 1197 235 1188 235 q 1243 186 1224 235 q 1260 114 1260 147 q 1129 -53 1260 -1 q 956 -78 1069 -78 q 816 -69 915 -78 q 558 -42 717 -60 q 475 -53 517 -53 q 422 -33 425 -53 l 424 -29 l 419 -29 q 407 -18 407 -29 q 426 -11 407 -11 q 473 -12 442 -11 q 521 -14 504 -14 q 561 4 531 -14 q 715 279 668 63 q 556 265 625 269 q 438 261 486 260 q 230 21 326 121 q 53 -140 133 -79 q 103 -158 71 -150 q 183 -175 136 -167 q 196 -183 196 -176 q 182 -190 196 -190 q 38 -151 121 -190 q -211 -254 -107 -254 m 464 297 q 724 318 608 307 l 757 553 q 780 683 768 625 q 806 783 792 740 l 803 783 q 767 783 785 783 q 732 781 749 782 q 619 529 706 678 q 464 297 547 404 m 328 282 q 399 290 364 289 q 661 774 585 547 q 582 761 586 761 q 328 282 507 526 m 29 -128 q 375 257 174 -12 q 335 248 354 253 q 296 238 315 243 q 128 36 204 119 q -10 -94 51 -47 q 29 -128 4 -111 m -22 -75 q 257 225 81 7 q 113 154 178 199 q 22 64 65 124 q -26 -53 -26 -6 q -22 -75 -26 -64 z "},"Ǽ":{"ha":1308,"x_min":-278,"x_max":1329,"o":"m -211 -254 q -278 -211 -278 -254 q -260 -167 -278 -181 q -264 -194 -264 -181 q -208 -235 -264 -235 q 13 -140 -114 -235 q -11 -126 0 -133 q -32 -111 -22 -118 q -190 -183 -133 -183 q -200 -178 -200 -183 q -186 -165 -200 -169 q -173 -161 -181 -164 q -156 -156 -165 -158 q -105 -131 -132 -146 q -50 -96 -78 -117 q -81 -18 -81 -65 q -8 133 -81 61 q 136 231 51 193 q 296 276 200 257 q 563 765 478 514 q 551 776 551 769 q 571 792 551 785 q 596 876 586 835 q 607 919 597 889 q 618 929 608 929 q 619 926 619 928 q 592 797 619 900 q 674 814 633 808 q 682 857 679 838 q 685 893 685 876 q 618 976 685 967 q 606 985 606 979 q 621 993 606 993 q 658 988 638 993 q 744 867 744 964 q 740 822 744 846 l 822 826 q 878 893 851 893 q 899 871 899 893 q 885 826 899 864 q 981 820 929 825 q 1090 808 1032 815 q 1209 788 1160 799 q 1289 765 1258 776 q 1310 835 1303 801 q 1313 857 1311 844 q 1325 869 1315 869 q 1329 850 1329 869 q 1317 742 1329 803 q 1318 739 1318 740 q 1314 731 1318 733 q 1289 644 1299 668 q 1225 594 1267 594 q 1191 606 1211 594 q 1171 628 1171 618 q 1196 635 1171 631 q 1269 718 1232 642 q 1217 728 1246 718 q 871 782 1078 772 q 829 554 850 701 q 809 414 818 471 q 793 326 800 357 q 976 360 833 331 q 1150 385 1101 385 q 1154 382 1154 385 q 1128 356 1154 368 q 785 289 1063 328 q 610 -18 728 53 q 722 -22 671 -21 q 813 -24 772 -24 q 1134 16 1033 -24 q 1235 118 1235 56 q 1211 182 1235 146 q 1188 225 1188 218 q 1197 235 1188 235 q 1243 186 1224 235 q 1260 114 1260 147 q 1129 -53 1260 -1 q 956 -78 1069 -78 q 816 -69 915 -78 q 558 -42 717 -60 q 475 -53 517 -53 q 422 -33 425 -53 l 424 -29 l 419 -29 q 407 -18 407 -29 q 426 -11 407 -11 q 473 -12 442 -11 q 521 -14 504 -14 q 561 4 531 -14 q 715 279 668 63 q 556 265 625 269 q 438 261 486 260 q 230 21 326 121 q 53 -140 133 -79 q 103 -158 71 -150 q 183 -175 136 -167 q 196 -183 196 -176 q 182 -190 196 -190 q 38 -151 121 -190 q -211 -254 -107 -254 m 464 297 q 724 318 608 307 l 757 553 q 780 683 768 625 q 806 783 792 740 l 803 783 q 767 783 785 783 q 732 781 749 782 q 619 529 706 678 q 464 297 547 404 m 328 282 q 399 290 364 289 q 661 774 585 547 q 582 761 586 761 q 328 282 507 526 m 29 -128 q 375 257 174 -12 q 335 248 354 253 q 296 238 315 243 q 128 36 204 119 q -10 -94 51 -47 q 29 -128 4 -111 m -22 -75 q 257 225 81 7 q 113 154 178 199 q 22 64 65 124 q -26 -53 -26 -6 q -22 -75 -26 -64 m 926 999 q 919 1003 919 999 q 942 1021 919 1006 q 982 1046 965 1036 q 1014 1065 993 1053 q 1058 1090 1035 1076 q 1099 1113 1081 1104 q 1122 1122 1117 1122 q 1135 1115 1131 1122 q 1139 1101 1139 1108 q 1134 1083 1139 1092 q 1118 1069 1129 1074 q 1096 1063 1108 1067 q 1074 1056 1083 1060 q 1035 1040 1053 1047 q 997 1025 1018 1033 q 953 1006 972 1014 q 926 999 935 999 z "},"Á":{"ha":913,"x_min":-278,"x_max":1042,"o":"m -211 -254 q -278 -211 -278 -254 q -260 -167 -278 -181 q -264 -194 -264 -181 q -208 -235 -264 -235 q 13 -140 -114 -235 q -37 -107 -17 -125 q -208 -199 -154 -199 q -229 -186 -229 -199 q -218 -176 -229 -176 q -210 -178 -215 -176 q -203 -179 -206 -179 q -47 -99 -150 -179 q -93 -8 -93 -54 q 86 165 -93 89 q 166 192 122 181 q 261 214 210 204 q 294 259 279 238 q 321 300 310 281 q 317 360 317 336 q 349 447 317 447 q 379 403 368 447 q 413 458 393 422 q 456 544 432 493 q 524 699 492 619 q 583 861 556 778 q 596 883 589 876 q 597 878 597 882 q 404 413 597 772 q 435 422 424 422 q 443 413 443 422 q 332 290 443 376 q 309 255 322 274 q 281 217 296 236 q 350 225 311 222 q 457 386 406 303 q 556 558 508 469 q 678 900 678 786 q 618 976 678 967 q 606 985 606 979 q 621 993 606 993 q 704 959 675 993 q 733 871 733 925 q 618 539 733 750 q 524 383 575 460 q 415 231 472 306 q 482 235 439 233 q 585 240 525 238 q 643 242 625 242 q 660 243 661 243 q 668 239 668 243 q 641 223 668 225 q 561 217 614 221 q 467 210 510 214 q 393 203 425 207 q 53 -140 215 -19 q 183 -175 89 -158 q 196 -183 196 -176 q 182 -190 196 -190 q 38 -151 121 -190 q -211 -254 -107 -254 m 889 -164 q 782 -119 838 -164 q 704 -22 728 -75 q 674 169 674 44 q 685 305 674 207 q 710 560 696 403 l 722 700 q 732 726 724 726 q 747 696 747 726 l 747 463 q 810 -64 747 81 q 897 -150 847 -150 q 1042 -24 963 -150 q 1011 -89 1040 -50 q 957 -144 981 -131 q 889 -164 922 -164 m 29 -128 q 325 192 168 -17 q 284 183 304 188 q 244 172 264 178 q -14 -87 125 29 q 4 -108 -7 -99 q 29 -128 15 -118 m -21 -78 q 102 35 42 -26 q 222 165 163 96 q 65 90 132 136 q -29 -39 -29 28 q -21 -78 -29 -58 m 665 1068 q 658 1072 658 1068 q 694 1099 658 1076 q 772 1143 729 1121 q 841 1183 808 1164 q 892 1201 874 1201 q 908 1182 908 1201 q 903 1163 908 1172 q 888 1150 897 1153 q 865 1144 878 1147 q 843 1136 853 1140 q 794 1117 822 1128 q 739 1094 765 1106 q 690 1076 711 1085 q 665 1068 668 1068 z "},"Ă":{"ha":913,"x_min":-278,"x_max":1042,"o":"m -211 -254 q -278 -211 -278 -254 q -260 -167 -278 -181 q -264 -194 -264 -181 q -208 -235 -264 -235 q 13 -140 -114 -235 q -37 -107 -17 -125 q -208 -199 -154 -199 q -229 -186 -229 -199 q -218 -176 -229 -176 q -210 -178 -215 -176 q -203 -179 -206 -179 q -47 -99 -150 -179 q -93 -8 -93 -54 q 86 165 -93 89 q 166 192 122 181 q 261 214 210 204 q 294 259 279 238 q 321 300 310 281 q 317 360 317 336 q 349 447 317 447 q 379 403 368 447 q 413 458 393 422 q 456 544 432 493 q 524 699 492 619 q 583 861 556 778 q 596 883 589 876 q 597 878 597 882 q 404 413 597 772 q 435 422 424 422 q 443 413 443 422 q 332 290 443 376 q 309 255 322 274 q 281 217 296 236 q 350 225 311 222 q 457 386 406 303 q 556 558 508 469 q 678 900 678 786 q 618 976 678 967 q 606 985 606 979 q 621 993 606 993 q 704 959 675 993 q 733 871 733 925 q 618 539 733 750 q 524 383 575 460 q 415 231 472 306 q 482 235 439 233 q 585 240 525 238 q 643 242 625 242 q 660 243 661 243 q 668 239 668 243 q 641 223 668 225 q 561 217 614 221 q 467 210 510 214 q 393 203 425 207 q 53 -140 215 -19 q 183 -175 89 -158 q 196 -183 196 -176 q 182 -190 196 -190 q 38 -151 121 -190 q -211 -254 -107 -254 m 889 -164 q 782 -119 838 -164 q 704 -22 728 -75 q 674 169 674 44 q 685 305 674 207 q 710 560 696 403 l 722 700 q 732 726 724 726 q 747 696 747 726 l 747 463 q 810 -64 747 81 q 897 -150 847 -150 q 1042 -24 963 -150 q 1011 -89 1040 -50 q 957 -144 981 -131 q 889 -164 922 -164 m 29 -128 q 325 192 168 -17 q 284 183 304 188 q 244 172 264 178 q -14 -87 125 29 q 4 -108 -7 -99 q 29 -128 15 -118 m -21 -78 q 102 35 42 -26 q 222 165 163 96 q 65 90 132 136 q -29 -39 -29 28 q -21 -78 -29 -58 m 738 1068 q 633 1150 633 1068 q 644 1182 633 1168 q 669 1196 656 1196 q 675 1188 675 1196 q 674 1176 675 1182 q 672 1164 672 1169 q 692 1123 672 1139 q 751 1107 713 1107 q 832 1119 793 1107 q 901 1165 871 1131 q 918 1189 914 1181 q 925 1197 922 1197 q 928 1186 932 1197 q 885 1119 917 1144 q 814 1081 853 1093 q 738 1068 775 1068 z "},"Ắ":{"ha":913,"x_min":-278,"x_max":1042,"o":"m -211 -254 q -278 -211 -278 -254 q -260 -167 -278 -181 q -264 -194 -264 -181 q -208 -235 -264 -235 q 13 -140 -114 -235 q -37 -107 -17 -125 q -208 -199 -154 -199 q -229 -186 -229 -199 q -218 -176 -229 -176 q -210 -178 -215 -176 q -203 -179 -206 -179 q -47 -99 -150 -179 q -93 -8 -93 -54 q 86 165 -93 89 q 166 192 122 181 q 261 214 210 204 q 294 259 279 238 q 321 300 310 281 q 317 360 317 336 q 349 447 317 447 q 379 403 368 447 q 413 458 393 422 q 456 544 432 493 q 524 699 492 619 q 583 861 556 778 q 596 883 589 876 q 597 878 597 882 q 404 413 597 772 q 435 422 424 422 q 443 413 443 422 q 332 290 443 376 q 309 255 322 274 q 281 217 296 236 q 350 225 311 222 q 457 386 406 303 q 556 558 508 469 q 678 900 678 786 q 618 976 678 967 q 606 985 606 979 q 621 993 606 993 q 704 959 675 993 q 733 871 733 925 q 618 539 733 750 q 524 383 575 460 q 415 231 472 306 q 482 235 439 233 q 585 240 525 238 q 643 242 625 242 q 660 243 661 243 q 668 239 668 243 q 641 223 668 225 q 561 217 614 221 q 467 210 510 214 q 393 203 425 207 q 53 -140 215 -19 q 183 -175 89 -158 q 196 -183 196 -176 q 182 -190 196 -190 q 38 -151 121 -190 q -211 -254 -107 -254 m 889 -164 q 782 -119 838 -164 q 704 -22 728 -75 q 674 169 674 44 q 685 305 674 207 q 710 560 696 403 l 722 700 q 732 726 724 726 q 747 696 747 726 l 747 463 q 810 -64 747 81 q 897 -150 847 -150 q 1042 -24 963 -150 q 1011 -89 1040 -50 q 957 -144 981 -131 q 889 -164 922 -164 m 29 -128 q 325 192 168 -17 q 284 183 304 188 q 244 172 264 178 q -14 -87 125 29 q 4 -108 -7 -99 q 29 -128 15 -118 m -21 -78 q 102 35 42 -26 q 222 165 163 96 q 65 90 132 136 q -29 -39 -29 28 q -21 -78 -29 -58 m 738 1068 q 633 1150 633 1068 q 644 1182 633 1168 q 669 1196 656 1196 q 675 1188 675 1196 q 674 1176 675 1182 q 672 1164 672 1169 q 692 1123 672 1139 q 751 1107 713 1107 q 832 1119 793 1107 q 901 1165 871 1131 q 918 1189 914 1181 q 925 1197 922 1197 q 928 1186 932 1197 q 885 1119 917 1144 q 814 1081 853 1093 q 738 1068 775 1068 m 718 1228 q 711 1232 711 1228 q 747 1258 711 1236 q 825 1303 782 1281 q 894 1342 861 1324 q 944 1361 926 1361 q 961 1342 961 1361 q 956 1322 961 1332 q 940 1310 950 1313 q 918 1303 931 1307 q 896 1296 906 1300 q 847 1276 875 1288 q 792 1254 818 1265 q 742 1236 764 1244 q 718 1228 721 1228 z "},"Ặ":{"ha":913,"x_min":-278,"x_max":1042,"o":"m -211 -254 q -278 -211 -278 -254 q -260 -167 -278 -181 q -264 -194 -264 -181 q -208 -235 -264 -235 q 13 -140 -114 -235 q -37 -107 -17 -125 q -208 -199 -154 -199 q -229 -186 -229 -199 q -218 -176 -229 -176 q -210 -178 -215 -176 q -203 -179 -206 -179 q -47 -99 -150 -179 q -93 -8 -93 -54 q 86 165 -93 89 q 166 192 122 181 q 261 214 210 204 q 294 259 279 238 q 321 300 310 281 q 317 360 317 336 q 349 447 317 447 q 379 403 368 447 q 413 458 393 422 q 456 544 432 493 q 524 699 492 619 q 583 861 556 778 q 596 883 589 876 q 597 878 597 882 q 404 413 597 772 q 435 422 424 422 q 443 413 443 422 q 332 290 443 376 q 309 255 322 274 q 281 217 296 236 q 350 225 311 222 q 457 386 406 303 q 556 558 508 469 q 678 900 678 786 q 618 976 678 967 q 606 985 606 979 q 621 993 606 993 q 704 959 675 993 q 733 871 733 925 q 618 539 733 750 q 524 383 575 460 q 415 231 472 306 q 482 235 439 233 q 585 240 525 238 q 643 242 625 242 q 660 243 661 243 q 668 239 668 243 q 641 223 668 225 q 561 217 614 221 q 467 210 510 214 q 393 203 425 207 q 53 -140 215 -19 q 183 -175 89 -158 q 196 -183 196 -176 q 182 -190 196 -190 q 38 -151 121 -190 q -211 -254 -107 -254 m 889 -164 q 782 -119 838 -164 q 704 -22 728 -75 q 674 169 674 44 q 685 305 674 207 q 710 560 696 403 l 722 700 q 732 726 724 726 q 747 696 747 726 l 747 463 q 810 -64 747 81 q 897 -150 847 -150 q 1042 -24 963 -150 q 1011 -89 1040 -50 q 957 -144 981 -131 q 889 -164 922 -164 m 29 -128 q 325 192 168 -17 q 284 183 304 188 q 244 172 264 178 q -14 -87 125 29 q 4 -108 -7 -99 q 29 -128 15 -118 m -21 -78 q 102 35 42 -26 q 222 165 163 96 q 65 90 132 136 q -29 -39 -29 28 q -21 -78 -29 -58 m 403 -283 q 383 -267 394 -283 q 376 -240 376 -254 q 400 -210 376 -215 q 451 -167 439 -167 q 457 -178 457 -167 q 443 -239 457 -192 q 403 -283 428 -283 m 738 1068 q 633 1150 633 1068 q 644 1182 633 1168 q 669 1196 656 1196 q 675 1188 675 1196 q 674 1176 675 1182 q 672 1164 672 1169 q 692 1123 672 1139 q 751 1107 713 1107 q 832 1119 793 1107 q 901 1165 871 1131 q 918 1189 914 1181 q 925 1197 922 1197 q 928 1186 932 1197 q 885 1119 917 1144 q 814 1081 853 1093 q 738 1068 775 1068 z "},"Ằ":{"ha":913,"x_min":-278,"x_max":1042,"o":"m -211 -254 q -278 -211 -278 -254 q -260 -167 -278 -181 q -264 -194 -264 -181 q -208 -235 -264 -235 q 13 -140 -114 -235 q -37 -107 -17 -125 q -208 -199 -154 -199 q -229 -186 -229 -199 q -218 -176 -229 -176 q -210 -178 -215 -176 q -203 -179 -206 -179 q -47 -99 -150 -179 q -93 -8 -93 -54 q 86 165 -93 89 q 166 192 122 181 q 261 214 210 204 q 294 259 279 238 q 321 300 310 281 q 317 360 317 336 q 349 447 317 447 q 379 403 368 447 q 413 458 393 422 q 456 544 432 493 q 524 699 492 619 q 583 861 556 778 q 596 883 589 876 q 597 878 597 882 q 404 413 597 772 q 435 422 424 422 q 443 413 443 422 q 332 290 443 376 q 309 255 322 274 q 281 217 296 236 q 350 225 311 222 q 457 386 406 303 q 556 558 508 469 q 678 900 678 786 q 618 976 678 967 q 606 985 606 979 q 621 993 606 993 q 704 959 675 993 q 733 871 733 925 q 618 539 733 750 q 524 383 575 460 q 415 231 472 306 q 482 235 439 233 q 585 240 525 238 q 643 242 625 242 q 660 243 661 243 q 668 239 668 243 q 641 223 668 225 q 561 217 614 221 q 467 210 510 214 q 393 203 425 207 q 53 -140 215 -19 q 183 -175 89 -158 q 196 -183 196 -176 q 182 -190 196 -190 q 38 -151 121 -190 q -211 -254 -107 -254 m 889 -164 q 782 -119 838 -164 q 704 -22 728 -75 q 674 169 674 44 q 685 305 674 207 q 710 560 696 403 l 722 700 q 732 726 724 726 q 747 696 747 726 l 747 463 q 810 -64 747 81 q 897 -150 847 -150 q 1042 -24 963 -150 q 1011 -89 1040 -50 q 957 -144 981 -131 q 889 -164 922 -164 m 29 -128 q 325 192 168 -17 q 284 183 304 188 q 244 172 264 178 q -14 -87 125 29 q 4 -108 -7 -99 q 29 -128 15 -118 m -21 -78 q 102 35 42 -26 q 222 165 163 96 q 65 90 132 136 q -29 -39 -29 28 q -21 -78 -29 -58 m 738 1068 q 633 1150 633 1068 q 644 1182 633 1168 q 669 1196 656 1196 q 675 1188 675 1196 q 674 1176 675 1182 q 672 1164 672 1169 q 692 1123 672 1139 q 751 1107 713 1107 q 832 1119 793 1107 q 901 1165 871 1131 q 918 1189 914 1181 q 925 1197 922 1197 q 928 1186 932 1197 q 885 1119 917 1144 q 814 1081 853 1093 q 738 1068 775 1068 m 824 1228 q 799 1236 821 1228 q 750 1254 778 1244 q 695 1276 724 1265 q 646 1296 667 1288 q 624 1303 636 1300 q 601 1310 611 1307 q 586 1322 592 1313 q 581 1342 581 1332 q 597 1361 581 1361 q 648 1342 615 1361 q 717 1303 681 1324 q 795 1258 760 1281 q 831 1232 831 1236 q 824 1228 831 1228 z "},"Ẳ":{"ha":913,"x_min":-278,"x_max":1042,"o":"m -211 -254 q -278 -211 -278 -254 q -260 -167 -278 -181 q -264 -194 -264 -181 q -208 -235 -264 -235 q 13 -140 -114 -235 q -37 -107 -17 -125 q -208 -199 -154 -199 q -229 -186 -229 -199 q -218 -176 -229 -176 q -210 -178 -215 -176 q -203 -179 -206 -179 q -47 -99 -150 -179 q -93 -8 -93 -54 q 86 165 -93 89 q 166 192 122 181 q 261 214 210 204 q 294 259 279 238 q 321 300 310 281 q 317 360 317 336 q 349 447 317 447 q 379 403 368 447 q 413 458 393 422 q 456 544 432 493 q 524 699 492 619 q 583 861 556 778 q 596 883 589 876 q 597 878 597 882 q 404 413 597 772 q 435 422 424 422 q 443 413 443 422 q 332 290 443 376 q 309 255 322 274 q 281 217 296 236 q 350 225 311 222 q 457 386 406 303 q 556 558 508 469 q 678 900 678 786 q 618 976 678 967 q 606 985 606 979 q 621 993 606 993 q 704 959 675 993 q 733 871 733 925 q 618 539 733 750 q 524 383 575 460 q 415 231 472 306 q 482 235 439 233 q 585 240 525 238 q 643 242 625 242 q 660 243 661 243 q 668 239 668 243 q 641 223 668 225 q 561 217 614 221 q 467 210 510 214 q 393 203 425 207 q 53 -140 215 -19 q 183 -175 89 -158 q 196 -183 196 -176 q 182 -190 196 -190 q 38 -151 121 -190 q -211 -254 -107 -254 m 889 -164 q 782 -119 838 -164 q 704 -22 728 -75 q 674 169 674 44 q 685 305 674 207 q 710 560 696 403 l 722 700 q 732 726 724 726 q 747 696 747 726 l 747 463 q 810 -64 747 81 q 897 -150 847 -150 q 1042 -24 963 -150 q 1011 -89 1040 -50 q 957 -144 981 -131 q 889 -164 922 -164 m 29 -128 q 325 192 168 -17 q 284 183 304 188 q 244 172 264 178 q -14 -87 125 29 q 4 -108 -7 -99 q 29 -128 15 -118 m -21 -78 q 102 35 42 -26 q 222 165 163 96 q 65 90 132 136 q -29 -39 -29 28 q -21 -78 -29 -58 m 738 1068 q 633 1150 633 1068 q 644 1182 633 1168 q 669 1196 656 1196 q 675 1188 675 1196 q 674 1176 675 1182 q 672 1164 672 1169 q 692 1123 672 1139 q 751 1107 713 1107 q 832 1119 793 1107 q 901 1165 871 1131 q 918 1189 914 1181 q 925 1197 922 1197 q 928 1186 932 1197 q 885 1119 917 1144 q 814 1081 853 1093 q 738 1068 775 1068 m 808 1222 q 803 1226 803 1222 q 808 1236 803 1228 q 860 1290 846 1268 q 875 1329 875 1311 q 844 1353 875 1353 q 815 1348 826 1353 q 792 1335 803 1343 q 782 1331 788 1331 q 775 1335 775 1331 q 802 1367 775 1349 q 864 1385 829 1385 q 915 1374 894 1385 q 932 1340 935 1363 q 898 1281 925 1307 q 826 1228 871 1256 q 808 1222 817 1222 z "},"Ẵ":{"ha":913,"x_min":-278,"x_max":1042,"o":"m -211 -254 q -278 -211 -278 -254 q -260 -167 -278 -181 q -264 -194 -264 -181 q -208 -235 -264 -235 q 13 -140 -114 -235 q -37 -107 -17 -125 q -208 -199 -154 -199 q -229 -186 -229 -199 q -218 -176 -229 -176 q -210 -178 -215 -176 q -203 -179 -206 -179 q -47 -99 -150 -179 q -93 -8 -93 -54 q 86 165 -93 89 q 166 192 122 181 q 261 214 210 204 q 294 259 279 238 q 321 300 310 281 q 317 360 317 336 q 349 447 317 447 q 379 403 368 447 q 413 458 393 422 q 456 544 432 493 q 524 699 492 619 q 583 861 556 778 q 596 883 589 876 q 597 878 597 882 q 404 413 597 772 q 435 422 424 422 q 443 413 443 422 q 332 290 443 376 q 309 255 322 274 q 281 217 296 236 q 350 225 311 222 q 457 386 406 303 q 556 558 508 469 q 678 900 678 786 q 618 976 678 967 q 606 985 606 979 q 621 993 606 993 q 704 959 675 993 q 733 871 733 925 q 618 539 733 750 q 524 383 575 460 q 415 231 472 306 q 482 235 439 233 q 585 240 525 238 q 643 242 625 242 q 660 243 661 243 q 668 239 668 243 q 641 223 668 225 q 561 217 614 221 q 467 210 510 214 q 393 203 425 207 q 53 -140 215 -19 q 183 -175 89 -158 q 196 -183 196 -176 q 182 -190 196 -190 q 38 -151 121 -190 q -211 -254 -107 -254 m 889 -164 q 782 -119 838 -164 q 704 -22 728 -75 q 674 169 674 44 q 685 305 674 207 q 710 560 696 403 l 722 700 q 732 726 724 726 q 747 696 747 726 l 747 463 q 810 -64 747 81 q 897 -150 847 -150 q 1042 -24 963 -150 q 1011 -89 1040 -50 q 957 -144 981 -131 q 889 -164 922 -164 m 29 -128 q 325 192 168 -17 q 284 183 304 188 q 244 172 264 178 q -14 -87 125 29 q 4 -108 -7 -99 q 29 -128 15 -118 m -21 -78 q 102 35 42 -26 q 222 165 163 96 q 65 90 132 136 q -29 -39 -29 28 q -21 -78 -29 -58 m 738 1068 q 633 1150 633 1068 q 644 1182 633 1168 q 669 1196 656 1196 q 675 1188 675 1196 q 674 1176 675 1182 q 672 1164 672 1169 q 692 1123 672 1139 q 751 1107 713 1107 q 832 1119 793 1107 q 901 1165 871 1131 q 918 1189 914 1181 q 925 1197 922 1197 q 928 1186 932 1197 q 885 1119 917 1144 q 814 1081 853 1093 q 738 1068 775 1068 m 646 1222 q 639 1233 636 1222 q 676 1291 646 1264 q 740 1318 707 1318 q 797 1308 772 1318 q 846 1286 822 1297 q 896 1275 869 1275 q 935 1288 919 1275 q 956 1321 951 1300 q 964 1329 958 1329 q 971 1317 974 1329 q 938 1256 964 1283 q 875 1229 911 1229 q 826 1240 853 1229 q 775 1263 800 1251 q 732 1274 750 1274 q 679 1258 696 1274 q 658 1236 663 1243 q 646 1222 650 1222 z "},"Ǎ":{"ha":913,"x_min":-278,"x_max":1042,"o":"m 942 1193 q 929 1182 942 1192 q 902 1162 917 1172 q 881 1146 888 1151 q 825 1111 856 1129 q 769 1081 794 1093 q 736 1069 744 1069 q 712 1082 729 1069 q 674 1113 694 1094 q 638 1147 654 1131 q 618 1169 626 1158 q 610 1186 610 1181 q 624 1188 610 1194 q 658 1169 639 1181 q 713 1138 688 1153 q 744 1118 739 1122 q 769 1128 756 1122 q 792 1138 783 1135 l 875 1169 q 924 1190 907 1182 q 942 1193 942 1197 m -211 -254 q -278 -211 -278 -254 q -260 -167 -278 -181 q -264 -194 -264 -181 q -208 -235 -264 -235 q 13 -140 -114 -235 q -37 -107 -17 -125 q -208 -199 -154 -199 q -229 -186 -229 -199 q -218 -176 -229 -176 q -210 -178 -215 -176 q -203 -179 -206 -179 q -47 -99 -150 -179 q -93 -8 -93 -54 q 86 165 -93 89 q 166 192 122 181 q 261 214 210 204 q 294 259 279 238 q 321 300 310 281 q 317 360 317 336 q 349 447 317 447 q 379 403 368 447 q 413 458 393 422 q 456 544 432 493 q 524 699 492 619 q 583 861 556 778 q 596 883 589 876 q 597 878 597 882 q 404 413 597 772 q 435 422 424 422 q 443 413 443 422 q 332 290 443 376 q 309 255 322 274 q 281 217 296 236 q 350 225 311 222 q 457 386 406 303 q 556 558 508 469 q 678 900 678 786 q 618 976 678 967 q 606 985 606 979 q 621 993 606 993 q 704 959 675 993 q 733 871 733 925 q 618 539 733 750 q 524 383 575 460 q 415 231 472 306 q 482 235 439 233 q 585 240 525 238 q 643 242 625 242 q 660 243 661 243 q 668 239 668 243 q 641 223 668 225 q 561 217 614 221 q 467 210 510 214 q 393 203 425 207 q 53 -140 215 -19 q 183 -175 89 -158 q 196 -183 196 -176 q 182 -190 196 -190 q 38 -151 121 -190 q -211 -254 -107 -254 m 889 -164 q 782 -119 838 -164 q 704 -22 728 -75 q 674 169 674 44 q 685 305 674 207 q 710 560 696 403 l 722 700 q 732 726 724 726 q 747 696 747 726 l 747 463 q 810 -64 747 81 q 897 -150 847 -150 q 1042 -24 963 -150 q 1011 -89 1040 -50 q 957 -144 981 -131 q 889 -164 922 -164 m 29 -128 q 325 192 168 -17 q 284 183 304 188 q 244 172 264 178 q -14 -87 125 29 q 4 -108 -7 -99 q 29 -128 15 -118 m -21 -78 q 102 35 42 -26 q 222 165 163 96 q 65 90 132 136 q -29 -39 -29 28 q -21 -78 -29 -58 z "},"Â":{"ha":913,"x_min":-278,"x_max":1042,"o":"m -211 -254 q -278 -211 -278 -254 q -260 -167 -278 -181 q -264 -194 -264 -181 q -208 -235 -264 -235 q 13 -140 -114 -235 q -37 -107 -17 -125 q -208 -199 -154 -199 q -229 -186 -229 -199 q -218 -176 -229 -176 q -210 -178 -215 -176 q -203 -179 -206 -179 q -47 -99 -150 -179 q -93 -8 -93 -54 q 86 165 -93 89 q 166 192 122 181 q 261 214 210 204 q 294 259 279 238 q 321 300 310 281 q 317 360 317 336 q 349 447 317 447 q 379 403 368 447 q 413 458 393 422 q 456 544 432 493 q 524 699 492 619 q 583 861 556 778 q 596 883 589 876 q 597 878 597 882 q 404 413 597 772 q 435 422 424 422 q 443 413 443 422 q 332 290 443 376 q 309 255 322 274 q 281 217 296 236 q 350 225 311 222 q 457 386 406 303 q 556 558 508 469 q 678 900 678 786 q 618 976 678 967 q 606 985 606 979 q 621 993 606 993 q 704 959 675 993 q 733 871 733 925 q 618 539 733 750 q 524 383 575 460 q 415 231 472 306 q 482 235 439 233 q 585 240 525 238 q 643 242 625 242 q 660 243 661 243 q 668 239 668 243 q 641 223 668 225 q 561 217 614 221 q 467 210 510 214 q 393 203 425 207 q 53 -140 215 -19 q 183 -175 89 -158 q 196 -183 196 -176 q 182 -190 196 -190 q 38 -151 121 -190 q -211 -254 -107 -254 m 889 -164 q 782 -119 838 -164 q 704 -22 728 -75 q 674 169 674 44 q 685 305 674 207 q 710 560 696 403 l 722 700 q 732 726 724 726 q 747 696 747 726 l 747 463 q 810 -64 747 81 q 897 -150 847 -150 q 1042 -24 963 -150 q 1011 -89 1040 -50 q 957 -144 981 -131 q 889 -164 922 -164 m 29 -128 q 325 192 168 -17 q 284 183 304 188 q 244 172 264 178 q -14 -87 125 29 q 4 -108 -7 -99 q 29 -128 15 -118 m -21 -78 q 102 35 42 -26 q 222 165 163 96 q 65 90 132 136 q -29 -39 -29 28 q -21 -78 -29 -58 m 581 1069 q 593 1081 581 1072 q 620 1101 606 1090 q 642 1117 635 1113 q 698 1152 668 1135 q 753 1181 728 1169 q 786 1193 778 1193 q 810 1181 793 1193 q 848 1150 828 1168 q 885 1115 868 1132 q 904 1094 896 1104 q 913 1076 913 1083 q 898 1075 913 1068 q 864 1093 883 1082 q 810 1125 835 1110 q 778 1144 785 1140 q 753 1134 768 1140 q 731 1125 739 1128 l 647 1093 q 598 1073 615 1081 q 581 1069 581 1065 z "},"Ấ":{"ha":913,"x_min":-278,"x_max":1042,"o":"m -211 -254 q -278 -211 -278 -254 q -260 -167 -278 -181 q -264 -194 -264 -181 q -208 -235 -264 -235 q 13 -140 -114 -235 q -37 -107 -17 -125 q -208 -199 -154 -199 q -229 -186 -229 -199 q -218 -176 -229 -176 q -210 -178 -215 -176 q -203 -179 -206 -179 q -47 -99 -150 -179 q -93 -8 -93 -54 q 86 165 -93 89 q 166 192 122 181 q 261 214 210 204 q 294 259 279 238 q 321 300 310 281 q 317 360 317 336 q 349 447 317 447 q 379 403 368 447 q 413 458 393 422 q 456 544 432 493 q 524 699 492 619 q 583 861 556 778 q 596 883 589 876 q 597 878 597 882 q 404 413 597 772 q 435 422 424 422 q 443 413 443 422 q 332 290 443 376 q 309 255 322 274 q 281 217 296 236 q 350 225 311 222 q 457 386 406 303 q 556 558 508 469 q 678 900 678 786 q 618 976 678 967 q 606 985 606 979 q 621 993 606 993 q 704 959 675 993 q 733 871 733 925 q 618 539 733 750 q 524 383 575 460 q 415 231 472 306 q 482 235 439 233 q 585 240 525 238 q 643 242 625 242 q 660 243 661 243 q 668 239 668 243 q 641 223 668 225 q 561 217 614 221 q 467 210 510 214 q 393 203 425 207 q 53 -140 215 -19 q 183 -175 89 -158 q 196 -183 196 -176 q 182 -190 196 -190 q 38 -151 121 -190 q -211 -254 -107 -254 m 889 -164 q 782 -119 838 -164 q 704 -22 728 -75 q 674 169 674 44 q 685 305 674 207 q 710 560 696 403 l 722 700 q 732 726 724 726 q 747 696 747 726 l 747 463 q 810 -64 747 81 q 897 -150 847 -150 q 1042 -24 963 -150 q 1011 -89 1040 -50 q 957 -144 981 -131 q 889 -164 922 -164 m 29 -128 q 325 192 168 -17 q 284 183 304 188 q 244 172 264 178 q -14 -87 125 29 q 4 -108 -7 -99 q 29 -128 15 -118 m -21 -78 q 102 35 42 -26 q 222 165 163 96 q 65 90 132 136 q -29 -39 -29 28 q -21 -78 -29 -58 m 581 1069 q 593 1081 581 1072 q 620 1101 606 1090 q 642 1117 635 1113 q 698 1152 668 1135 q 753 1181 728 1169 q 786 1193 778 1193 q 810 1181 793 1193 q 848 1150 828 1168 q 885 1115 868 1132 q 904 1094 896 1104 q 913 1076 913 1083 q 898 1075 913 1068 q 864 1093 883 1082 q 810 1125 835 1110 q 778 1144 785 1140 q 753 1134 768 1140 q 731 1125 739 1128 l 647 1093 q 598 1073 615 1081 q 581 1069 581 1065 m 667 1221 q 660 1225 660 1221 q 695 1251 660 1229 q 774 1296 731 1274 q 842 1335 810 1317 q 893 1354 875 1354 q 910 1335 910 1354 q 904 1315 910 1325 q 889 1303 899 1306 q 867 1297 879 1300 q 844 1289 854 1293 q 795 1269 824 1281 q 740 1247 767 1258 q 691 1229 713 1238 q 667 1221 669 1221 z "},"Ậ":{"ha":913,"x_min":-278,"x_max":1042,"o":"m -211 -254 q -278 -211 -278 -254 q -260 -167 -278 -181 q -264 -194 -264 -181 q -208 -235 -264 -235 q 13 -140 -114 -235 q -37 -107 -17 -125 q -208 -199 -154 -199 q -229 -186 -229 -199 q -218 -176 -229 -176 q -210 -178 -215 -176 q -203 -179 -206 -179 q -47 -99 -150 -179 q -93 -8 -93 -54 q 86 165 -93 89 q 166 192 122 181 q 261 214 210 204 q 294 259 279 238 q 321 300 310 281 q 317 360 317 336 q 349 447 317 447 q 379 403 368 447 q 413 458 393 422 q 456 544 432 493 q 524 699 492 619 q 583 861 556 778 q 596 883 589 876 q 597 878 597 882 q 404 413 597 772 q 435 422 424 422 q 443 413 443 422 q 332 290 443 376 q 309 255 322 274 q 281 217 296 236 q 350 225 311 222 q 457 386 406 303 q 556 558 508 469 q 678 900 678 786 q 618 976 678 967 q 606 985 606 979 q 621 993 606 993 q 704 959 675 993 q 733 871 733 925 q 618 539 733 750 q 524 383 575 460 q 415 231 472 306 q 482 235 439 233 q 585 240 525 238 q 643 242 625 242 q 660 243 661 243 q 668 239 668 243 q 641 223 668 225 q 561 217 614 221 q 467 210 510 214 q 393 203 425 207 q 53 -140 215 -19 q 183 -175 89 -158 q 196 -183 196 -176 q 182 -190 196 -190 q 38 -151 121 -190 q -211 -254 -107 -254 m 889 -164 q 782 -119 838 -164 q 704 -22 728 -75 q 674 169 674 44 q 685 305 674 207 q 710 560 696 403 l 722 700 q 732 726 724 726 q 747 696 747 726 l 747 463 q 810 -64 747 81 q 897 -150 847 -150 q 1042 -24 963 -150 q 1011 -89 1040 -50 q 957 -144 981 -131 q 889 -164 922 -164 m 29 -128 q 325 192 168 -17 q 284 183 304 188 q 244 172 264 178 q -14 -87 125 29 q 4 -108 -7 -99 q 29 -128 15 -118 m -21 -78 q 102 35 42 -26 q 222 165 163 96 q 65 90 132 136 q -29 -39 -29 28 q -21 -78 -29 -58 m 403 -283 q 383 -267 394 -283 q 376 -240 376 -254 q 400 -210 376 -215 q 451 -167 439 -167 q 457 -178 457 -167 q 443 -239 457 -192 q 403 -283 428 -283 m 581 1069 q 593 1081 581 1072 q 620 1101 606 1090 q 642 1117 635 1113 q 698 1152 668 1135 q 753 1181 728 1169 q 786 1193 778 1193 q 810 1181 793 1193 q 848 1150 828 1168 q 885 1115 868 1132 q 904 1094 896 1104 q 913 1076 913 1083 q 898 1075 913 1068 q 864 1093 883 1082 q 810 1125 835 1110 q 778 1144 785 1140 q 753 1134 768 1140 q 731 1125 739 1128 l 647 1093 q 598 1073 615 1081 q 581 1069 581 1065 z "},"Ầ":{"ha":913,"x_min":-278,"x_max":1042,"o":"m -211 -254 q -278 -211 -278 -254 q -260 -167 -278 -181 q -264 -194 -264 -181 q -208 -235 -264 -235 q 13 -140 -114 -235 q -37 -107 -17 -125 q -208 -199 -154 -199 q -229 -186 -229 -199 q -218 -176 -229 -176 q -210 -178 -215 -176 q -203 -179 -206 -179 q -47 -99 -150 -179 q -93 -8 -93 -54 q 86 165 -93 89 q 166 192 122 181 q 261 214 210 204 q 294 259 279 238 q 321 300 310 281 q 317 360 317 336 q 349 447 317 447 q 379 403 368 447 q 413 458 393 422 q 456 544 432 493 q 524 699 492 619 q 583 861 556 778 q 596 883 589 876 q 597 878 597 882 q 404 413 597 772 q 435 422 424 422 q 443 413 443 422 q 332 290 443 376 q 309 255 322 274 q 281 217 296 236 q 350 225 311 222 q 457 386 406 303 q 556 558 508 469 q 678 900 678 786 q 618 976 678 967 q 606 985 606 979 q 621 993 606 993 q 704 959 675 993 q 733 871 733 925 q 618 539 733 750 q 524 383 575 460 q 415 231 472 306 q 482 235 439 233 q 585 240 525 238 q 643 242 625 242 q 660 243 661 243 q 668 239 668 243 q 641 223 668 225 q 561 217 614 221 q 467 210 510 214 q 393 203 425 207 q 53 -140 215 -19 q 183 -175 89 -158 q 196 -183 196 -176 q 182 -190 196 -190 q 38 -151 121 -190 q -211 -254 -107 -254 m 889 -164 q 782 -119 838 -164 q 704 -22 728 -75 q 674 169 674 44 q 685 305 674 207 q 710 560 696 403 l 722 700 q 732 726 724 726 q 747 696 747 726 l 747 463 q 810 -64 747 81 q 897 -150 847 -150 q 1042 -24 963 -150 q 1011 -89 1040 -50 q 957 -144 981 -131 q 889 -164 922 -164 m 29 -128 q 325 192 168 -17 q 284 183 304 188 q 244 172 264 178 q -14 -87 125 29 q 4 -108 -7 -99 q 29 -128 15 -118 m -21 -78 q 102 35 42 -26 q 222 165 163 96 q 65 90 132 136 q -29 -39 -29 28 q -21 -78 -29 -58 m 581 1069 q 593 1081 581 1072 q 620 1101 606 1090 q 642 1117 635 1113 q 698 1152 668 1135 q 753 1181 728 1169 q 786 1193 778 1193 q 810 1181 793 1193 q 848 1150 828 1168 q 885 1115 868 1132 q 904 1094 896 1104 q 913 1076 913 1083 q 898 1075 913 1068 q 864 1093 883 1082 q 810 1125 835 1110 q 778 1144 785 1140 q 753 1134 768 1140 q 731 1125 739 1128 l 647 1093 q 598 1073 615 1081 q 581 1069 581 1065 m 911 1214 q 887 1222 908 1214 q 838 1240 865 1231 q 783 1263 811 1251 q 733 1282 754 1274 q 711 1290 724 1286 q 689 1296 699 1293 q 674 1308 679 1299 q 668 1328 668 1318 q 685 1347 668 1347 q 735 1328 703 1347 q 804 1289 768 1310 q 883 1244 847 1267 q 918 1218 918 1222 q 911 1214 918 1214 z "},"Ẩ":{"ha":913,"x_min":-278,"x_max":1042,"o":"m -211 -254 q -278 -211 -278 -254 q -260 -167 -278 -181 q -264 -194 -264 -181 q -208 -235 -264 -235 q 13 -140 -114 -235 q -37 -107 -17 -125 q -208 -199 -154 -199 q -229 -186 -229 -199 q -218 -176 -229 -176 q -210 -178 -215 -176 q -203 -179 -206 -179 q -47 -99 -150 -179 q -93 -8 -93 -54 q 86 165 -93 89 q 166 192 122 181 q 261 214 210 204 q 294 259 279 238 q 321 300 310 281 q 317 360 317 336 q 349 447 317 447 q 379 403 368 447 q 413 458 393 422 q 456 544 432 493 q 524 699 492 619 q 583 861 556 778 q 596 883 589 876 q 597 878 597 882 q 404 413 597 772 q 435 422 424 422 q 443 413 443 422 q 332 290 443 376 q 309 255 322 274 q 281 217 296 236 q 350 225 311 222 q 457 386 406 303 q 556 558 508 469 q 678 900 678 786 q 618 976 678 967 q 606 985 606 979 q 621 993 606 993 q 704 959 675 993 q 733 871 733 925 q 618 539 733 750 q 524 383 575 460 q 415 231 472 306 q 482 235 439 233 q 585 240 525 238 q 643 242 625 242 q 660 243 661 243 q 668 239 668 243 q 641 223 668 225 q 561 217 614 221 q 467 210 510 214 q 393 203 425 207 q 53 -140 215 -19 q 183 -175 89 -158 q 196 -183 196 -176 q 182 -190 196 -190 q 38 -151 121 -190 q -211 -254 -107 -254 m 889 -164 q 782 -119 838 -164 q 704 -22 728 -75 q 674 169 674 44 q 685 305 674 207 q 710 560 696 403 l 722 700 q 732 726 724 726 q 747 696 747 726 l 747 463 q 810 -64 747 81 q 897 -150 847 -150 q 1042 -24 963 -150 q 1011 -89 1040 -50 q 957 -144 981 -131 q 889 -164 922 -164 m 29 -128 q 325 192 168 -17 q 284 183 304 188 q 244 172 264 178 q -14 -87 125 29 q 4 -108 -7 -99 q 29 -128 15 -118 m -21 -78 q 102 35 42 -26 q 222 165 163 96 q 65 90 132 136 q -29 -39 -29 28 q -21 -78 -29 -58 m 581 1069 q 593 1081 581 1072 q 620 1101 606 1090 q 642 1117 635 1113 q 698 1152 668 1135 q 753 1181 728 1169 q 786 1193 778 1193 q 810 1181 793 1193 q 848 1150 828 1168 q 885 1115 868 1132 q 904 1094 896 1104 q 913 1076 913 1083 q 898 1075 913 1068 q 864 1093 883 1082 q 810 1125 835 1110 q 778 1144 785 1140 q 753 1134 768 1140 q 731 1125 739 1128 l 647 1093 q 598 1073 615 1081 q 581 1069 581 1065 m 903 1176 q 897 1181 897 1176 q 903 1190 897 1182 q 955 1244 940 1222 q 969 1283 969 1265 q 939 1307 969 1307 q 909 1302 921 1307 q 886 1289 897 1297 q 876 1285 882 1285 q 869 1289 869 1285 q 897 1321 869 1303 q 958 1339 924 1339 q 1009 1328 989 1339 q 1026 1294 1029 1317 q 992 1235 1019 1261 q 921 1182 965 1210 q 903 1176 911 1176 z "},"Ẫ":{"ha":913,"x_min":-278,"x_max":1042,"o":"m -211 -254 q -278 -211 -278 -254 q -260 -167 -278 -181 q -264 -194 -264 -181 q -208 -235 -264 -235 q 13 -140 -114 -235 q -37 -107 -17 -125 q -208 -199 -154 -199 q -229 -186 -229 -199 q -218 -176 -229 -176 q -210 -178 -215 -176 q -203 -179 -206 -179 q -47 -99 -150 -179 q -93 -8 -93 -54 q 86 165 -93 89 q 166 192 122 181 q 261 214 210 204 q 294 259 279 238 q 321 300 310 281 q 317 360 317 336 q 349 447 317 447 q 379 403 368 447 q 413 458 393 422 q 456 544 432 493 q 524 699 492 619 q 583 861 556 778 q 596 883 589 876 q 597 878 597 882 q 404 413 597 772 q 435 422 424 422 q 443 413 443 422 q 332 290 443 376 q 309 255 322 274 q 281 217 296 236 q 350 225 311 222 q 457 386 406 303 q 556 558 508 469 q 678 900 678 786 q 618 976 678 967 q 606 985 606 979 q 621 993 606 993 q 704 959 675 993 q 733 871 733 925 q 618 539 733 750 q 524 383 575 460 q 415 231 472 306 q 482 235 439 233 q 585 240 525 238 q 643 242 625 242 q 660 243 661 243 q 668 239 668 243 q 641 223 668 225 q 561 217 614 221 q 467 210 510 214 q 393 203 425 207 q 53 -140 215 -19 q 183 -175 89 -158 q 196 -183 196 -176 q 182 -190 196 -190 q 38 -151 121 -190 q -211 -254 -107 -254 m 889 -164 q 782 -119 838 -164 q 704 -22 728 -75 q 674 169 674 44 q 685 305 674 207 q 710 560 696 403 l 722 700 q 732 726 724 726 q 747 696 747 726 l 747 463 q 810 -64 747 81 q 897 -150 847 -150 q 1042 -24 963 -150 q 1011 -89 1040 -50 q 957 -144 981 -131 q 889 -164 922 -164 m 29 -128 q 325 192 168 -17 q 284 183 304 188 q 244 172 264 178 q -14 -87 125 29 q 4 -108 -7 -99 q 29 -128 15 -118 m -21 -78 q 102 35 42 -26 q 222 165 163 96 q 65 90 132 136 q -29 -39 -29 28 q -21 -78 -29 -58 m 581 1069 q 593 1081 581 1072 q 620 1101 606 1090 q 642 1117 635 1113 q 698 1152 668 1135 q 753 1181 728 1169 q 786 1193 778 1193 q 810 1181 793 1193 q 848 1150 828 1168 q 885 1115 868 1132 q 904 1094 896 1104 q 913 1076 913 1083 q 898 1075 913 1068 q 864 1093 883 1082 q 810 1125 835 1110 q 778 1144 785 1140 q 753 1134 768 1140 q 731 1125 739 1128 l 647 1093 q 598 1073 615 1081 q 581 1069 581 1065 m 675 1219 q 668 1231 665 1219 q 706 1288 675 1261 q 769 1315 736 1315 q 826 1305 801 1315 q 875 1283 851 1294 q 925 1272 899 1272 q 965 1285 949 1272 q 985 1318 981 1297 q 993 1326 988 1326 q 1000 1314 1003 1326 q 967 1253 993 1281 q 904 1226 940 1226 q 856 1238 882 1226 q 804 1260 829 1249 q 761 1271 779 1271 q 708 1256 725 1271 q 688 1233 692 1240 q 675 1219 679 1219 z "},"Ȁ":{"ha":913,"x_min":-278,"x_max":1042,"o":"m -211 -254 q -278 -211 -278 -254 q -260 -167 -278 -181 q -264 -194 -264 -181 q -208 -235 -264 -235 q 13 -140 -114 -235 q -37 -107 -17 -125 q -208 -199 -154 -199 q -229 -186 -229 -199 q -218 -176 -229 -176 q -210 -178 -215 -176 q -203 -179 -206 -179 q -47 -99 -150 -179 q -93 -8 -93 -54 q 86 165 -93 89 q 166 192 122 181 q 261 214 210 204 q 294 259 279 238 q 321 300 310 281 q 317 360 317 336 q 349 447 317 447 q 379 403 368 447 q 413 458 393 422 q 456 544 432 493 q 524 699 492 619 q 583 861 556 778 q 596 883 589 876 q 597 878 597 882 q 404 413 597 772 q 435 422 424 422 q 443 413 443 422 q 332 290 443 376 q 309 255 322 274 q 281 217 296 236 q 350 225 311 222 q 457 386 406 303 q 556 558 508 469 q 678 900 678 786 q 618 976 678 967 q 606 985 606 979 q 621 993 606 993 q 704 959 675 993 q 733 871 733 925 q 618 539 733 750 q 524 383 575 460 q 415 231 472 306 q 482 235 439 233 q 585 240 525 238 q 643 242 625 242 q 660 243 661 243 q 668 239 668 243 q 641 223 668 225 q 561 217 614 221 q 467 210 510 214 q 393 203 425 207 q 53 -140 215 -19 q 183 -175 89 -158 q 196 -183 196 -176 q 182 -190 196 -190 q 38 -151 121 -190 q -211 -254 -107 -254 m 889 -164 q 782 -119 838 -164 q 704 -22 728 -75 q 674 169 674 44 q 685 305 674 207 q 710 560 696 403 l 722 700 q 732 726 724 726 q 747 696 747 726 l 747 463 q 810 -64 747 81 q 897 -150 847 -150 q 1042 -24 963 -150 q 1011 -89 1040 -50 q 957 -144 981 -131 q 889 -164 922 -164 m 29 -128 q 325 192 168 -17 q 284 183 304 188 q 244 172 264 178 q -14 -87 125 29 q 4 -108 -7 -99 q 29 -128 15 -118 m -21 -78 q 102 35 42 -26 q 222 165 163 96 q 65 90 132 136 q -29 -39 -29 28 q -21 -78 -29 -58 m 771 1068 q 746 1081 763 1069 q 707 1108 729 1092 q 673 1131 689 1121 q 638 1154 657 1142 q 617 1166 629 1161 q 597 1176 606 1171 q 583 1213 578 1189 q 599 1231 589 1228 q 619 1219 603 1232 q 656 1187 635 1206 q 697 1151 678 1168 q 725 1125 715 1133 q 760 1093 740 1113 q 778 1071 779 1074 q 771 1068 778 1065 m 669 1068 q 642 1076 661 1068 q 599 1094 624 1083 q 560 1110 578 1103 q 522 1125 543 1117 q 500 1133 513 1129 q 478 1139 488 1136 q 463 1152 468 1143 q 457 1171 457 1161 q 468 1192 457 1186 q 490 1184 471 1193 q 533 1161 508 1175 q 581 1135 558 1147 q 614 1115 603 1122 q 653 1090 631 1106 q 676 1072 676 1075 q 669 1068 676 1068 z "},"Ä":{"ha":913,"x_min":-278,"x_max":1042,"o":"m -211 -254 q -278 -211 -278 -254 q -260 -167 -278 -181 q -264 -194 -264 -181 q -208 -235 -264 -235 q 13 -140 -114 -235 q -37 -107 -17 -125 q -208 -199 -154 -199 q -229 -186 -229 -199 q -218 -176 -229 -176 q -210 -178 -215 -176 q -203 -179 -206 -179 q -47 -99 -150 -179 q -93 -8 -93 -54 q 86 165 -93 89 q 166 192 122 181 q 261 214 210 204 q 294 259 279 238 q 321 300 310 281 q 317 360 317 336 q 349 447 317 447 q 379 403 368 447 q 413 458 393 422 q 456 544 432 493 q 524 699 492 619 q 583 861 556 778 q 596 883 589 876 q 597 878 597 882 q 404 413 597 772 q 435 422 424 422 q 443 413 443 422 q 332 290 443 376 q 309 255 322 274 q 281 217 296 236 q 350 225 311 222 q 457 386 406 303 q 556 558 508 469 q 678 900 678 786 q 618 976 678 967 q 606 985 606 979 q 621 993 606 993 q 704 959 675 993 q 733 871 733 925 q 618 539 733 750 q 524 383 575 460 q 415 231 472 306 q 482 235 439 233 q 585 240 525 238 q 643 242 625 242 q 660 243 661 243 q 668 239 668 243 q 641 223 668 225 q 561 217 614 221 q 467 210 510 214 q 393 203 425 207 q 53 -140 215 -19 q 183 -175 89 -158 q 196 -183 196 -176 q 182 -190 196 -190 q 38 -151 121 -190 q -211 -254 -107 -254 m 889 -164 q 782 -119 838 -164 q 704 -22 728 -75 q 674 169 674 44 q 685 305 674 207 q 710 560 696 403 l 722 700 q 732 726 724 726 q 747 696 747 726 l 747 463 q 810 -64 747 81 q 897 -150 847 -150 q 1042 -24 963 -150 q 1011 -89 1040 -50 q 957 -144 981 -131 q 889 -164 922 -164 m 29 -128 q 325 192 168 -17 q 284 183 304 188 q 244 172 264 178 q -14 -87 125 29 q 4 -108 -7 -99 q 29 -128 15 -118 m -21 -78 q 102 35 42 -26 q 222 165 163 96 q 65 90 132 136 q -29 -39 -29 28 q -21 -78 -29 -58 m 822 1068 q 807 1079 814 1068 q 799 1103 799 1094 q 819 1131 799 1121 q 851 1151 825 1139 q 888 1165 875 1165 q 890 1164 890 1165 l 890 1163 q 888 1160 890 1163 q 882 1153 886 1158 l 872 1143 q 864 1127 867 1138 q 857 1104 861 1117 q 822 1068 844 1068 m 683 1068 q 668 1079 676 1068 q 661 1092 663 1086 q 660 1103 660 1099 q 681 1131 660 1122 q 711 1151 688 1139 q 747 1165 738 1165 q 751 1164 750 1165 l 751 1163 q 749 1160 751 1163 q 743 1153 747 1157 q 736 1147 738 1149 q 733 1143 735 1144 q 725 1127 728 1138 q 718 1104 722 1117 q 683 1068 706 1068 z "},"Ạ":{"ha":913,"x_min":-278,"x_max":1042,"o":"m -211 -254 q -278 -211 -278 -254 q -260 -167 -278 -181 q -264 -194 -264 -181 q -208 -235 -264 -235 q 13 -140 -114 -235 q -37 -107 -17 -125 q -208 -199 -154 -199 q -229 -186 -229 -199 q -218 -176 -229 -176 q -210 -178 -215 -176 q -203 -179 -206 -179 q -47 -99 -150 -179 q -93 -8 -93 -54 q 86 165 -93 89 q 166 192 122 181 q 261 214 210 204 q 294 259 279 238 q 321 300 310 281 q 317 360 317 336 q 349 447 317 447 q 379 403 368 447 q 413 458 393 422 q 456 544 432 493 q 524 699 492 619 q 583 861 556 778 q 596 883 589 876 q 597 878 597 882 q 404 413 597 772 q 435 422 424 422 q 443 413 443 422 q 332 290 443 376 q 309 255 322 274 q 281 217 296 236 q 350 225 311 222 q 457 386 406 303 q 556 558 508 469 q 678 900 678 786 q 618 976 678 967 q 606 985 606 979 q 621 993 606 993 q 704 959 675 993 q 733 871 733 925 q 618 539 733 750 q 524 383 575 460 q 415 231 472 306 q 482 235 439 233 q 585 240 525 238 q 643 242 625 242 q 660 243 661 243 q 668 239 668 243 q 641 223 668 225 q 561 217 614 221 q 467 210 510 214 q 393 203 425 207 q 53 -140 215 -19 q 183 -175 89 -158 q 196 -183 196 -176 q 182 -190 196 -190 q 38 -151 121 -190 q -211 -254 -107 -254 m 889 -164 q 782 -119 838 -164 q 704 -22 728 -75 q 674 169 674 44 q 685 305 674 207 q 710 560 696 403 l 722 700 q 732 726 724 726 q 747 696 747 726 l 747 463 q 810 -64 747 81 q 897 -150 847 -150 q 1042 -24 963 -150 q 1011 -89 1040 -50 q 957 -144 981 -131 q 889 -164 922 -164 m 29 -128 q 325 192 168 -17 q 284 183 304 188 q 244 172 264 178 q -14 -87 125 29 q 4 -108 -7 -99 q 29 -128 15 -118 m -21 -78 q 102 35 42 -26 q 222 165 163 96 q 65 90 132 136 q -29 -39 -29 28 q -21 -78 -29 -58 m 403 -283 q 383 -267 394 -283 q 376 -240 376 -254 q 400 -210 376 -215 q 451 -167 439 -167 q 457 -178 457 -167 q 443 -239 457 -192 q 403 -283 428 -283 z "},"À":{"ha":913,"x_min":-278,"x_max":1042,"o":"m -211 -254 q -278 -211 -278 -254 q -260 -167 -278 -181 q -264 -194 -264 -181 q -208 -235 -264 -235 q 13 -140 -114 -235 q -37 -107 -17 -125 q -208 -199 -154 -199 q -229 -186 -229 -199 q -218 -176 -229 -176 q -210 -178 -215 -176 q -203 -179 -206 -179 q -47 -99 -150 -179 q -93 -8 -93 -54 q 86 165 -93 89 q 166 192 122 181 q 261 214 210 204 q 294 259 279 238 q 321 300 310 281 q 317 360 317 336 q 349 447 317 447 q 379 403 368 447 q 413 458 393 422 q 456 544 432 493 q 524 699 492 619 q 583 861 556 778 q 596 883 589 876 q 597 878 597 882 q 404 413 597 772 q 435 422 424 422 q 443 413 443 422 q 332 290 443 376 q 309 255 322 274 q 281 217 296 236 q 350 225 311 222 q 457 386 406 303 q 556 558 508 469 q 678 900 678 786 q 618 976 678 967 q 606 985 606 979 q 621 993 606 993 q 704 959 675 993 q 733 871 733 925 q 618 539 733 750 q 524 383 575 460 q 415 231 472 306 q 482 235 439 233 q 585 240 525 238 q 643 242 625 242 q 660 243 661 243 q 668 239 668 243 q 641 223 668 225 q 561 217 614 221 q 467 210 510 214 q 393 203 425 207 q 53 -140 215 -19 q 183 -175 89 -158 q 196 -183 196 -176 q 182 -190 196 -190 q 38 -151 121 -190 q -211 -254 -107 -254 m 889 -164 q 782 -119 838 -164 q 704 -22 728 -75 q 674 169 674 44 q 685 305 674 207 q 710 560 696 403 l 722 700 q 732 726 724 726 q 747 696 747 726 l 747 463 q 810 -64 747 81 q 897 -150 847 -150 q 1042 -24 963 -150 q 1011 -89 1040 -50 q 957 -144 981 -131 q 889 -164 922 -164 m 29 -128 q 325 192 168 -17 q 284 183 304 188 q 244 172 264 178 q -14 -87 125 29 q 4 -108 -7 -99 q 29 -128 15 -118 m -21 -78 q 102 35 42 -26 q 222 165 163 96 q 65 90 132 136 q -29 -39 -29 28 q -21 -78 -29 -58 m 771 1068 q 747 1076 768 1068 q 697 1094 725 1085 q 642 1117 671 1106 q 593 1136 614 1128 q 571 1144 583 1140 q 549 1150 558 1147 q 533 1163 539 1153 q 528 1182 528 1172 q 544 1201 528 1201 q 595 1183 563 1201 q 664 1143 628 1164 q 742 1099 707 1121 q 778 1072 778 1076 q 771 1068 778 1068 z "},"Ả":{"ha":913,"x_min":-278,"x_max":1042,"o":"m -211 -254 q -278 -211 -278 -254 q -260 -167 -278 -181 q -264 -194 -264 -181 q -208 -235 -264 -235 q 13 -140 -114 -235 q -37 -107 -17 -125 q -208 -199 -154 -199 q -229 -186 -229 -199 q -218 -176 -229 -176 q -210 -178 -215 -176 q -203 -179 -206 -179 q -47 -99 -150 -179 q -93 -8 -93 -54 q 86 165 -93 89 q 166 192 122 181 q 261 214 210 204 q 294 259 279 238 q 321 300 310 281 q 317 360 317 336 q 349 447 317 447 q 379 403 368 447 q 413 458 393 422 q 456 544 432 493 q 524 699 492 619 q 583 861 556 778 q 596 883 589 876 q 597 878 597 882 q 404 413 597 772 q 435 422 424 422 q 443 413 443 422 q 332 290 443 376 q 309 255 322 274 q 281 217 296 236 q 350 225 311 222 q 457 386 406 303 q 556 558 508 469 q 678 900 678 786 q 618 976 678 967 q 606 985 606 979 q 621 993 606 993 q 704 959 675 993 q 733 871 733 925 q 618 539 733 750 q 524 383 575 460 q 415 231 472 306 q 482 235 439 233 q 585 240 525 238 q 643 242 625 242 q 660 243 661 243 q 668 239 668 243 q 641 223 668 225 q 561 217 614 221 q 467 210 510 214 q 393 203 425 207 q 53 -140 215 -19 q 183 -175 89 -158 q 196 -183 196 -176 q 182 -190 196 -190 q 38 -151 121 -190 q -211 -254 -107 -254 m 889 -164 q 782 -119 838 -164 q 704 -22 728 -75 q 674 169 674 44 q 685 305 674 207 q 710 560 696 403 l 722 700 q 732 726 724 726 q 747 696 747 726 l 747 463 q 810 -64 747 81 q 897 -150 847 -150 q 1042 -24 963 -150 q 1011 -89 1040 -50 q 957 -144 981 -131 q 889 -164 922 -164 m 29 -128 q 325 192 168 -17 q 284 183 304 188 q 244 172 264 178 q -14 -87 125 29 q 4 -108 -7 -99 q 29 -128 15 -118 m -21 -78 q 102 35 42 -26 q 222 165 163 96 q 65 90 132 136 q -29 -39 -29 28 q -21 -78 -29 -58 m 756 1063 q 750 1067 750 1063 q 756 1076 750 1068 q 808 1130 793 1108 q 822 1169 822 1151 q 792 1193 822 1193 q 762 1188 774 1193 q 739 1175 750 1183 q 729 1171 735 1171 q 722 1175 722 1171 q 749 1207 722 1189 q 811 1225 776 1225 q 862 1214 842 1225 q 879 1181 882 1203 q 845 1122 872 1147 q 774 1068 818 1096 q 756 1063 764 1063 z "},"Ȃ":{"ha":913,"x_min":-278,"x_max":1042,"o":"m 832 1192 q 936 1110 936 1192 q 926 1078 936 1092 q 900 1064 915 1064 q 894 1072 894 1064 q 896 1084 894 1078 q 897 1096 897 1090 q 877 1137 897 1121 q 818 1153 857 1153 q 738 1141 776 1153 q 668 1094 700 1129 q 651 1072 656 1081 q 644 1063 647 1063 q 642 1074 638 1063 q 685 1142 654 1115 q 756 1180 717 1168 q 832 1192 796 1192 m -211 -254 q -278 -211 -278 -254 q -260 -167 -278 -181 q -264 -194 -264 -181 q -208 -235 -264 -235 q 13 -140 -114 -235 q -37 -107 -17 -125 q -208 -199 -154 -199 q -229 -186 -229 -199 q -218 -176 -229 -176 q -210 -178 -215 -176 q -203 -179 -206 -179 q -47 -99 -150 -179 q -93 -8 -93 -54 q 86 165 -93 89 q 166 192 122 181 q 261 214 210 204 q 294 259 279 238 q 321 300 310 281 q 317 360 317 336 q 349 447 317 447 q 379 403 368 447 q 413 458 393 422 q 456 544 432 493 q 524 699 492 619 q 583 861 556 778 q 596 883 589 876 q 597 878 597 882 q 404 413 597 772 q 435 422 424 422 q 443 413 443 422 q 332 290 443 376 q 309 255 322 274 q 281 217 296 236 q 350 225 311 222 q 457 386 406 303 q 556 558 508 469 q 678 900 678 786 q 618 976 678 967 q 606 985 606 979 q 621 993 606 993 q 704 959 675 993 q 733 871 733 925 q 618 539 733 750 q 524 383 575 460 q 415 231 472 306 q 482 235 439 233 q 585 240 525 238 q 643 242 625 242 q 660 243 661 243 q 668 239 668 243 q 641 223 668 225 q 561 217 614 221 q 467 210 510 214 q 393 203 425 207 q 53 -140 215 -19 q 183 -175 89 -158 q 196 -183 196 -176 q 182 -190 196 -190 q 38 -151 121 -190 q -211 -254 -107 -254 m 889 -164 q 782 -119 838 -164 q 704 -22 728 -75 q 674 169 674 44 q 685 305 674 207 q 710 560 696 403 l 722 700 q 732 726 724 726 q 747 696 747 726 l 747 463 q 810 -64 747 81 q 897 -150 847 -150 q 1042 -24 963 -150 q 1011 -89 1040 -50 q 957 -144 981 -131 q 889 -164 922 -164 m 29 -128 q 325 192 168 -17 q 284 183 304 188 q 244 172 264 178 q -14 -87 125 29 q 4 -108 -7 -99 q 29 -128 15 -118 m -21 -78 q 102 35 42 -26 q 222 165 163 96 q 65 90 132 136 q -29 -39 -29 28 q -21 -78 -29 -58 z "},"Ā":{"ha":913,"x_min":-278,"x_max":1042,"o":"m -211 -254 q -278 -211 -278 -254 q -260 -167 -278 -181 q -264 -194 -264 -181 q -208 -235 -264 -235 q 13 -140 -114 -235 q -37 -107 -17 -125 q -208 -199 -154 -199 q -229 -186 -229 -199 q -218 -176 -229 -176 q -210 -178 -215 -176 q -203 -179 -206 -179 q -47 -99 -150 -179 q -93 -8 -93 -54 q 86 165 -93 89 q 166 192 122 181 q 261 214 210 204 q 294 259 279 238 q 321 300 310 281 q 317 360 317 336 q 349 447 317 447 q 379 403 368 447 q 413 458 393 422 q 456 544 432 493 q 524 699 492 619 q 583 861 556 778 q 596 883 589 876 q 597 878 597 882 q 404 413 597 772 q 435 422 424 422 q 443 413 443 422 q 332 290 443 376 q 309 255 322 274 q 281 217 296 236 q 350 225 311 222 q 457 386 406 303 q 556 558 508 469 q 678 900 678 786 q 618 976 678 967 q 606 985 606 979 q 621 993 606 993 q 704 959 675 993 q 733 871 733 925 q 618 539 733 750 q 524 383 575 460 q 415 231 472 306 q 482 235 439 233 q 585 240 525 238 q 643 242 625 242 q 660 243 661 243 q 668 239 668 243 q 641 223 668 225 q 561 217 614 221 q 467 210 510 214 q 393 203 425 207 q 53 -140 215 -19 q 183 -175 89 -158 q 196 -183 196 -176 q 182 -190 196 -190 q 38 -151 121 -190 q -211 -254 -107 -254 m 889 -164 q 782 -119 838 -164 q 704 -22 728 -75 q 674 169 674 44 q 685 305 674 207 q 710 560 696 403 l 722 700 q 732 726 724 726 q 747 696 747 726 l 747 463 q 810 -64 747 81 q 897 -150 847 -150 q 1042 -24 963 -150 q 1011 -89 1040 -50 q 957 -144 981 -131 q 889 -164 922 -164 m 29 -128 q 325 192 168 -17 q 284 183 304 188 q 244 172 264 178 q -14 -87 125 29 q 4 -108 -7 -99 q 29 -128 15 -118 m -21 -78 q 102 35 42 -26 q 222 165 163 96 q 65 90 132 136 q -29 -39 -29 28 q -21 -78 -29 -58 m 594 1067 q 580 1078 586 1067 q 574 1101 574 1089 l 574 1103 q 636 1108 590 1108 q 668 1108 651 1108 q 704 1107 685 1108 q 774 1103 746 1106 q 828 1097 803 1100 q 883 1088 853 1093 q 889 1082 889 1088 q 879 1072 889 1072 q 844 1072 872 1072 q 778 1070 817 1071 q 700 1069 739 1069 q 632 1067 661 1068 q 594 1067 603 1067 z "},"Ą":{"ha":913,"x_min":-278,"x_max":1042,"o":"m -211 -254 q -278 -211 -278 -254 q -260 -167 -278 -181 q -264 -194 -264 -181 q -208 -235 -264 -235 q 13 -140 -114 -235 q -37 -107 -17 -125 q -208 -199 -154 -199 q -229 -186 -229 -199 q -218 -176 -229 -176 q -210 -178 -215 -176 q -203 -179 -206 -179 q -47 -99 -150 -179 q -93 -8 -93 -54 q 86 165 -93 89 q 166 192 122 181 q 261 214 210 204 q 294 259 279 238 q 321 300 310 281 q 317 360 317 336 q 349 447 317 447 q 379 403 368 447 q 413 458 393 422 q 456 544 432 493 q 524 699 492 619 q 583 861 556 778 q 596 883 589 876 q 597 878 597 882 q 404 413 597 772 q 435 422 424 422 q 443 413 443 422 q 332 290 443 376 q 309 255 322 274 q 281 217 296 236 q 350 225 311 222 q 457 386 406 303 q 556 558 508 469 q 678 900 678 786 q 618 976 678 967 q 606 985 606 979 q 621 993 606 993 q 704 959 675 993 q 733 871 733 925 q 618 539 733 750 q 524 383 575 460 q 415 231 472 306 q 482 235 439 233 q 585 240 525 238 q 643 242 625 242 q 660 243 661 243 q 668 239 668 243 q 641 223 668 225 q 561 217 614 221 q 467 210 510 214 q 393 203 425 207 q 53 -140 215 -19 q 183 -175 89 -158 q 196 -183 196 -176 q 182 -190 196 -190 q 38 -151 121 -190 q -211 -254 -107 -254 m 889 -164 q 782 -119 838 -164 q 704 -22 728 -75 q 674 169 674 44 q 685 305 674 207 q 710 560 696 403 l 722 700 q 732 726 724 726 q 747 696 747 726 l 747 463 q 810 -64 747 81 q 897 -150 847 -150 q 1042 -24 963 -150 q 1011 -89 1040 -50 q 957 -144 981 -131 q 889 -164 922 -164 m 29 -128 q 325 192 168 -17 q 284 183 304 188 q 244 172 264 178 q -14 -87 125 29 q 4 -108 -7 -99 q 29 -128 15 -118 m -21 -78 q 102 35 42 -26 q 222 165 163 96 q 65 90 132 136 q -29 -39 -29 28 q -21 -78 -29 -58 m 847 -378 q 784 -358 808 -378 q 760 -297 760 -339 q 774 -233 760 -271 q 812 -167 789 -196 q 857 -137 835 -139 l 863 -142 q 814 -275 814 -214 q 830 -325 814 -306 q 879 -344 846 -344 q 915 -339 894 -344 q 953 -319 936 -333 q 963 -314 958 -315 q 968 -319 968 -312 q 949 -345 968 -332 q 901 -368 929 -358 q 847 -378 874 -378 z "},"Å":{"ha":913,"x_min":-278,"x_max":1042,"o":"m -211 -254 q -278 -211 -278 -254 q -260 -167 -278 -181 q -264 -194 -264 -181 q -208 -235 -264 -235 q 13 -140 -114 -235 q -37 -107 -17 -125 q -208 -199 -154 -199 q -229 -186 -229 -199 q -218 -176 -229 -176 q -210 -178 -215 -176 q -203 -179 -206 -179 q -47 -99 -150 -179 q -93 -8 -93 -54 q 86 165 -93 89 q 166 192 122 181 q 261 214 210 204 q 294 259 279 238 q 321 300 310 281 q 317 360 317 336 q 349 447 317 447 q 379 403 368 447 q 413 458 393 422 q 456 544 432 493 q 524 699 492 619 q 583 861 556 778 q 596 883 589 876 q 597 878 597 882 q 404 413 597 772 q 435 422 424 422 q 443 413 443 422 q 332 290 443 376 q 309 255 322 274 q 281 217 296 236 q 350 225 311 222 q 457 386 406 303 q 556 558 508 469 q 678 900 678 786 q 618 976 678 967 q 606 985 606 979 q 621 993 606 993 q 704 959 675 993 q 733 871 733 925 q 618 539 733 750 q 524 383 575 460 q 415 231 472 306 q 482 235 439 233 q 585 240 525 238 q 643 242 625 242 q 660 243 661 243 q 668 239 668 243 q 641 223 668 225 q 561 217 614 221 q 467 210 510 214 q 393 203 425 207 q 53 -140 215 -19 q 183 -175 89 -158 q 196 -183 196 -176 q 182 -190 196 -190 q 38 -151 121 -190 q -211 -254 -107 -254 m 889 -164 q 782 -119 838 -164 q 704 -22 728 -75 q 674 169 674 44 q 685 305 674 207 q 710 560 696 403 l 722 700 q 732 726 724 726 q 747 696 747 726 l 747 463 q 810 -64 747 81 q 897 -150 847 -150 q 1042 -24 963 -150 q 1011 -89 1040 -50 q 957 -144 981 -131 q 889 -164 922 -164 m 29 -128 q 325 192 168 -17 q 284 183 304 188 q 244 172 264 178 q -14 -87 125 29 q 4 -108 -7 -99 q 29 -128 15 -118 m -21 -78 q 102 35 42 -26 q 222 165 163 96 q 65 90 132 136 q -29 -39 -29 28 q -21 -78 -29 -58 m 763 1060 q 710 1111 710 1060 q 725 1174 710 1143 q 761 1210 740 1204 q 828 1253 782 1253 q 871 1229 857 1253 q 885 1185 885 1206 q 868 1125 885 1154 q 824 1078 851 1096 q 763 1060 796 1060 m 778 1085 q 817 1101 800 1085 q 843 1140 833 1117 q 853 1182 853 1163 q 824 1228 853 1228 q 786 1211 810 1228 l 800 1204 q 774 1161 796 1193 q 758 1111 758 1139 q 778 1085 758 1085 z "},"Ǻ":{"ha":913,"x_min":-278,"x_max":1042,"o":"m -211 -254 q -278 -211 -278 -254 q -260 -167 -278 -181 q -264 -194 -264 -181 q -208 -235 -264 -235 q 13 -140 -114 -235 q -37 -107 -17 -125 q -208 -199 -154 -199 q -229 -186 -229 -199 q -218 -176 -229 -176 q -210 -178 -215 -176 q -203 -179 -206 -179 q -47 -99 -150 -179 q -93 -8 -93 -54 q 86 165 -93 89 q 166 192 122 181 q 261 214 210 204 q 294 259 279 238 q 321 300 310 281 q 317 360 317 336 q 349 447 317 447 q 379 403 368 447 q 413 458 393 422 q 456 544 432 493 q 524 699 492 619 q 583 861 556 778 q 596 883 589 876 q 597 878 597 882 q 404 413 597 772 q 435 422 424 422 q 443 413 443 422 q 332 290 443 376 q 309 255 322 274 q 281 217 296 236 q 350 225 311 222 q 457 386 406 303 q 556 558 508 469 q 678 900 678 786 q 618 976 678 967 q 606 985 606 979 q 621 993 606 993 q 704 959 675 993 q 733 871 733 925 q 618 539 733 750 q 524 383 575 460 q 415 231 472 306 q 482 235 439 233 q 585 240 525 238 q 643 242 625 242 q 660 243 661 243 q 668 239 668 243 q 641 223 668 225 q 561 217 614 221 q 467 210 510 214 q 393 203 425 207 q 53 -140 215 -19 q 183 -175 89 -158 q 196 -183 196 -176 q 182 -190 196 -190 q 38 -151 121 -190 q -211 -254 -107 -254 m 889 -164 q 782 -119 838 -164 q 704 -22 728 -75 q 674 169 674 44 q 685 305 674 207 q 710 560 696 403 l 722 700 q 732 726 724 726 q 747 696 747 726 l 747 463 q 810 -64 747 81 q 897 -150 847 -150 q 1042 -24 963 -150 q 1011 -89 1040 -50 q 957 -144 981 -131 q 889 -164 922 -164 m 29 -128 q 325 192 168 -17 q 284 183 304 188 q 244 172 264 178 q -14 -87 125 29 q 4 -108 -7 -99 q 29 -128 15 -118 m -21 -78 q 102 35 42 -26 q 222 165 163 96 q 65 90 132 136 q -29 -39 -29 28 q -21 -78 -29 -58 m 763 1060 q 710 1111 710 1060 q 725 1174 710 1143 q 761 1210 740 1204 q 828 1253 782 1253 q 871 1229 857 1253 q 885 1185 885 1206 q 868 1125 885 1154 q 824 1078 851 1096 q 763 1060 796 1060 m 778 1085 q 817 1101 800 1085 q 843 1140 833 1117 q 853 1182 853 1163 q 824 1228 853 1228 q 786 1211 810 1228 l 800 1204 q 774 1161 796 1193 q 758 1111 758 1139 q 778 1085 758 1085 m 753 1283 q 746 1288 746 1283 q 781 1314 746 1292 q 860 1358 817 1336 q 928 1398 896 1379 q 979 1417 961 1417 q 996 1397 996 1417 q 990 1378 996 1388 q 975 1365 985 1368 q 953 1359 965 1363 q 931 1351 940 1356 q 881 1332 910 1343 q 826 1310 853 1321 q 777 1292 799 1300 q 753 1283 756 1283 z "},"Ã":{"ha":913,"x_min":-278,"x_max":1042,"o":"m -211 -254 q -278 -211 -278 -254 q -260 -167 -278 -181 q -264 -194 -264 -181 q -208 -235 -264 -235 q 13 -140 -114 -235 q -37 -107 -17 -125 q -208 -199 -154 -199 q -229 -186 -229 -199 q -218 -176 -229 -176 q -210 -178 -215 -176 q -203 -179 -206 -179 q -47 -99 -150 -179 q -93 -8 -93 -54 q 86 165 -93 89 q 166 192 122 181 q 261 214 210 204 q 294 259 279 238 q 321 300 310 281 q 317 360 317 336 q 349 447 317 447 q 379 403 368 447 q 413 458 393 422 q 456 544 432 493 q 524 699 492 619 q 583 861 556 778 q 596 883 589 876 q 597 878 597 882 q 404 413 597 772 q 435 422 424 422 q 443 413 443 422 q 332 290 443 376 q 309 255 322 274 q 281 217 296 236 q 350 225 311 222 q 457 386 406 303 q 556 558 508 469 q 678 900 678 786 q 618 976 678 967 q 606 985 606 979 q 621 993 606 993 q 704 959 675 993 q 733 871 733 925 q 618 539 733 750 q 524 383 575 460 q 415 231 472 306 q 482 235 439 233 q 585 240 525 238 q 643 242 625 242 q 660 243 661 243 q 668 239 668 243 q 641 223 668 225 q 561 217 614 221 q 467 210 510 214 q 393 203 425 207 q 53 -140 215 -19 q 183 -175 89 -158 q 196 -183 196 -176 q 182 -190 196 -190 q 38 -151 121 -190 q -211 -254 -107 -254 m 889 -164 q 782 -119 838 -164 q 704 -22 728 -75 q 674 169 674 44 q 685 305 674 207 q 710 560 696 403 l 722 700 q 732 726 724 726 q 747 696 747 726 l 747 463 q 810 -64 747 81 q 897 -150 847 -150 q 1042 -24 963 -150 q 1011 -89 1040 -50 q 957 -144 981 -131 q 889 -164 922 -164 m 29 -128 q 325 192 168 -17 q 284 183 304 188 q 244 172 264 178 q -14 -87 125 29 q 4 -108 -7 -99 q 29 -128 15 -118 m -21 -78 q 102 35 42 -26 q 222 165 163 96 q 65 90 132 136 q -29 -39 -29 28 q -21 -78 -29 -58 m 593 1063 q 586 1074 583 1063 q 624 1131 593 1104 q 688 1158 654 1158 q 744 1148 719 1158 q 793 1126 769 1138 q 843 1115 817 1115 q 883 1128 867 1115 q 903 1161 899 1140 q 911 1169 906 1169 q 918 1157 921 1169 q 885 1097 911 1124 q 822 1069 858 1069 q 774 1081 800 1069 q 722 1103 747 1092 q 679 1114 697 1114 q 626 1099 643 1114 q 606 1076 610 1083 q 593 1063 597 1063 z "},"B":{"ha":1264,"x_min":1,"x_max":1203,"o":"m 161 -149 q 57 -112 108 -149 q 1 -21 1 -74 q 69 78 1 44 q 194 104 121 104 q 276 97 233 104 q 368 76 319 90 q 546 385 469 199 q 531 441 536 417 q 526 483 526 465 q 546 533 526 533 q 585 489 568 533 q 685 829 635 588 q 242 661 396 819 q 186 535 186 606 q 224 433 186 479 q 313 369 257 392 q 335 363 321 367 q 367 354 349 358 q 375 349 375 353 q 365 342 375 342 l 361 343 q 200 414 275 350 q 118 567 118 483 q 169 681 118 629 q 413 814 257 771 q 690 851 542 851 q 699 912 693 881 q 714 975 706 943 q 719 943 719 974 q 717 902 719 925 q 708 851 714 879 q 812 845 761 850 q 910 829 863 840 q 1082 907 994 907 q 1168 871 1133 907 q 1203 783 1203 835 q 1196 764 1203 764 q 1186 803 1190 764 q 1096 865 1178 865 q 975 813 1040 865 q 1122 738 1061 786 q 1199 600 1199 678 q 1090 451 1199 506 q 901 403 1007 408 q 1189 88 1189 269 q 1117 -57 1189 1 q 957 -115 1046 -115 q 721 -82 824 -115 l 501 8 q 426 -69 463 -37 q 353 -115 389 -100 q 161 -149 282 -149 m 460 46 q 589 263 517 108 q 656 406 622 335 q 724 550 689 478 q 810 704 768 639 q 893 813 853 769 q 715 829 804 829 l 704 829 q 608 500 675 694 q 638 511 628 511 q 649 497 649 511 q 558 375 649 458 q 476 210 519 286 q 381 72 432 135 q 420 60 400 67 q 460 46 440 53 m 947 -86 q 1135 42 1135 -86 q 903 325 1135 213 q 868 340 889 331 q 819 361 847 349 q 815 375 815 364 q 856 422 815 414 l 883 422 q 908 425 896 424 q 932 428 921 426 q 1065 483 1014 443 q 1129 606 1129 531 q 1075 728 1129 674 q 957 796 1028 772 q 797 564 874 719 l 668 281 q 518 28 592 115 l 728 -47 q 947 -86 846 -86 m 171 -117 q 325 -74 243 -117 q 447 26 410 -31 q 410 44 429 36 q 369 60 392 53 q 228 -39 288 -39 q 199 -22 199 -39 q 207 -15 199 -15 q 218 -17 210 -15 q 231 -19 226 -19 q 357 63 283 -19 q 188 92 268 92 q 85 72 131 92 q 26 -6 26 47 q 75 -87 26 -56 q 171 -117 119 -117 z "},"C":{"ha":996,"x_min":15,"x_max":1043,"o":"m 215 -290 q 201 -281 201 -290 q 212 -271 201 -272 q 243 -262 222 -269 q 376 -121 310 -235 q 140 -40 225 -117 q 50 190 50 42 q 179 550 50 367 q 468 808 303 724 q 406 813 429 813 q 348 809 378 813 q 288 799 318 806 q 149 744 210 781 q 64 633 64 694 q 65 622 64 626 l 65 611 q 53 592 65 592 q 25 618 35 592 q 15 658 15 638 q 169 792 15 744 q 396 825 282 825 q 438 823 414 825 q 489 818 461 821 q 558 846 524 833 q 628 867 593 858 q 629 912 629 890 q 629 953 629 933 q 628 995 629 967 q 626 1038 626 1024 q 633 1049 626 1049 q 639 1042 636 1049 q 650 929 650 1001 q 650 901 650 915 q 649 871 650 886 q 703 879 676 876 q 754 882 729 882 q 963 813 886 882 q 1040 617 1040 744 l 1040 610 q 1021 586 1040 586 q 994 594 1010 586 q 888 658 931 633 q 824 693 846 682 q 731 738 776 718 q 640 771 685 757 q 621 633 633 704 q 593 485 608 561 q 631 503 615 503 q 646 485 646 503 q 619 419 646 456 q 567 369 592 383 q 498 130 535 239 q 419 -65 461 21 q 438 -67 429 -67 q 457 -67 447 -67 q 778 14 621 -67 q 1028 229 942 94 q 1042 246 1039 246 q 1043 242 1043 244 q 1038 221 1043 231 q 757 -25 951 75 q 392 -121 569 -118 q 215 -290 297 -290 m 983 667 q 994 682 994 667 q 985 715 994 697 q 860 815 950 781 q 699 846 785 846 q 672 845 685 846 q 646 843 660 844 l 642 793 q 806 746 725 775 q 965 674 888 717 q 983 667 976 667 m 622 797 l 625 842 q 519 814 569 833 l 622 797 m 406 -64 q 485 133 449 22 q 553 376 522 243 q 515 474 515 425 q 539 518 515 518 q 575 481 558 518 q 621 776 607 638 q 559 792 590 786 q 496 804 528 799 q 235 569 338 731 q 131 233 131 407 q 203 26 131 103 q 406 -64 275 -51 z "},"Ć":{"ha":996,"x_min":15,"x_max":1043,"o":"m 215 -290 q 201 -281 201 -290 q 212 -271 201 -272 q 243 -262 222 -269 q 376 -121 310 -235 q 140 -40 225 -117 q 50 190 50 42 q 179 550 50 367 q 468 808 303 724 q 406 813 429 813 q 348 809 378 813 q 288 799 318 806 q 149 744 210 781 q 64 633 64 694 q 65 622 64 626 l 65 611 q 53 592 65 592 q 25 618 35 592 q 15 658 15 638 q 169 792 15 744 q 396 825 282 825 q 438 823 414 825 q 489 818 461 821 q 558 846 524 833 q 628 867 593 858 q 629 912 629 890 q 629 953 629 933 q 628 995 629 967 q 626 1038 626 1024 q 633 1049 626 1049 q 639 1042 636 1049 q 650 929 650 1001 q 650 901 650 915 q 649 871 650 886 q 703 879 676 876 q 754 882 729 882 q 963 813 886 882 q 1040 617 1040 744 l 1040 610 q 1021 586 1040 586 q 994 594 1010 586 q 888 658 931 633 q 824 693 846 682 q 731 738 776 718 q 640 771 685 757 q 621 633 633 704 q 593 485 608 561 q 631 503 615 503 q 646 485 646 503 q 619 419 646 456 q 567 369 592 383 q 498 130 535 239 q 419 -65 461 21 q 438 -67 429 -67 q 457 -67 447 -67 q 778 14 621 -67 q 1028 229 942 94 q 1042 246 1039 246 q 1043 242 1043 244 q 1038 221 1043 231 q 757 -25 951 75 q 392 -121 569 -118 q 215 -290 297 -290 m 983 667 q 994 682 994 667 q 985 715 994 697 q 860 815 950 781 q 699 846 785 846 q 672 845 685 846 q 646 843 660 844 l 642 793 q 806 746 725 775 q 965 674 888 717 q 983 667 976 667 m 622 797 l 625 842 q 519 814 569 833 l 622 797 m 406 -64 q 485 133 449 22 q 553 376 522 243 q 515 474 515 425 q 539 518 515 518 q 575 481 558 518 q 621 776 607 638 q 559 792 590 786 q 496 804 528 799 q 235 569 338 731 q 131 233 131 407 q 203 26 131 103 q 406 -64 275 -51 m 772 979 q 765 983 765 979 q 801 1010 765 988 q 879 1054 836 1032 q 948 1094 915 1075 q 999 1113 981 1113 q 1015 1093 1015 1113 q 1010 1074 1015 1083 q 994 1061 1004 1064 q 972 1055 985 1058 q 950 1047 960 1051 q 901 1028 929 1039 q 846 1006 872 1017 q 797 988 818 996 q 772 979 775 979 z "},"Č":{"ha":996,"x_min":15,"x_max":1049,"o":"m 1049 1104 q 1036 1093 1049 1103 q 1009 1073 1024 1083 q 988 1057 994 1063 q 932 1022 963 1040 q 876 992 901 1004 q 843 981 851 981 q 819 993 836 981 q 781 1024 801 1006 q 744 1058 761 1042 q 725 1081 733 1069 q 717 1097 717 1092 q 731 1099 717 1106 q 765 1081 746 1092 q 820 1049 794 1064 q 851 1029 846 1033 q 876 1040 863 1033 q 899 1049 890 1046 l 982 1081 q 1031 1101 1014 1093 q 1049 1104 1049 1108 m 215 -290 q 201 -281 201 -290 q 212 -271 201 -272 q 243 -262 222 -269 q 376 -121 310 -235 q 140 -40 225 -117 q 50 190 50 42 q 179 550 50 367 q 468 808 303 724 q 406 813 429 813 q 348 809 378 813 q 288 799 318 806 q 149 744 210 781 q 64 633 64 694 q 65 622 64 626 l 65 611 q 53 592 65 592 q 25 618 35 592 q 15 658 15 638 q 169 792 15 744 q 396 825 282 825 q 438 823 414 825 q 489 818 461 821 q 558 846 524 833 q 628 867 593 858 q 629 912 629 890 q 629 953 629 933 q 628 995 629 967 q 626 1038 626 1024 q 633 1049 626 1049 q 639 1042 636 1049 q 650 929 650 1001 q 650 901 650 915 q 649 871 650 886 q 703 879 676 876 q 754 882 729 882 q 963 813 886 882 q 1040 617 1040 744 l 1040 610 q 1021 586 1040 586 q 994 594 1010 586 q 888 658 931 633 q 824 693 846 682 q 731 738 776 718 q 640 771 685 757 q 621 633 633 704 q 593 485 608 561 q 631 503 615 503 q 646 485 646 503 q 619 419 646 456 q 567 369 592 383 q 498 130 535 239 q 419 -65 461 21 q 438 -67 429 -67 q 457 -67 447 -67 q 778 14 621 -67 q 1028 229 942 94 q 1042 246 1039 246 q 1043 242 1043 244 q 1038 221 1043 231 q 757 -25 951 75 q 392 -121 569 -118 q 215 -290 297 -290 m 983 667 q 994 682 994 667 q 985 715 994 697 q 860 815 950 781 q 699 846 785 846 q 672 845 685 846 q 646 843 660 844 l 642 793 q 806 746 725 775 q 965 674 888 717 q 983 667 976 667 m 622 797 l 625 842 q 519 814 569 833 l 622 797 m 406 -64 q 485 133 449 22 q 553 376 522 243 q 515 474 515 425 q 539 518 515 518 q 575 481 558 518 q 621 776 607 638 q 559 792 590 786 q 496 804 528 799 q 235 569 338 731 q 131 233 131 407 q 203 26 131 103 q 406 -64 275 -51 z "},"Ç":{"ha":996,"x_min":15,"x_max":1043,"o":"m 215 -290 q 201 -281 201 -290 q 212 -271 201 -272 q 243 -262 222 -269 q 376 -121 310 -235 q 140 -40 225 -117 q 50 190 50 42 q 179 550 50 367 q 468 808 303 724 q 406 813 429 813 q 348 809 378 813 q 288 799 318 806 q 149 744 210 781 q 64 633 64 694 q 65 622 64 626 l 65 611 q 53 592 65 592 q 25 618 35 592 q 15 658 15 638 q 169 792 15 744 q 396 825 282 825 q 438 823 414 825 q 489 818 461 821 q 558 846 524 833 q 628 867 593 858 q 629 912 629 890 q 629 953 629 933 q 628 995 629 967 q 626 1038 626 1024 q 633 1049 626 1049 q 639 1042 636 1049 q 650 929 650 1001 q 650 901 650 915 q 649 871 650 886 q 703 879 676 876 q 754 882 729 882 q 963 813 886 882 q 1040 617 1040 744 l 1040 610 q 1021 586 1040 586 q 994 594 1010 586 q 888 658 931 633 q 824 693 846 682 q 731 738 776 718 q 640 771 685 757 q 621 633 633 704 q 593 485 608 561 q 631 503 615 503 q 646 485 646 503 q 619 419 646 456 q 567 369 592 383 q 498 130 535 239 q 419 -65 461 21 q 438 -67 429 -67 q 457 -67 447 -67 q 778 14 621 -67 q 1028 229 942 94 q 1042 246 1039 246 q 1043 242 1043 244 q 1038 221 1043 231 q 757 -25 951 75 q 392 -121 569 -118 q 215 -290 297 -290 m 983 667 q 994 682 994 667 q 985 715 994 697 q 860 815 950 781 q 699 846 785 846 q 672 845 685 846 q 646 843 660 844 l 642 793 q 806 746 725 775 q 965 674 888 717 q 983 667 976 667 m 622 797 l 625 842 q 519 814 569 833 l 622 797 m 406 -64 q 485 133 449 22 q 553 376 522 243 q 515 474 515 425 q 539 518 515 518 q 575 481 558 518 q 621 776 607 638 q 559 792 590 786 q 496 804 528 799 q 235 569 338 731 q 131 233 131 407 q 203 26 131 103 q 406 -64 275 -51 m 419 -362 q 371 -354 392 -362 q 339 -336 350 -346 q 328 -318 328 -328 q 336 -310 328 -310 q 347 -314 342 -310 q 373 -326 358 -322 q 401 -329 388 -329 q 444 -317 426 -329 q 463 -281 463 -306 q 453 -245 463 -260 q 433 -215 443 -231 q 424 -178 424 -199 q 453 -119 424 -140 q 504 -97 482 -97 q 519 -107 518 -97 q 485 -130 501 -108 q 468 -175 468 -151 q 482 -208 468 -196 q 509 -234 496 -219 q 522 -279 522 -249 q 506 -328 522 -310 q 465 -355 489 -347 q 419 -362 442 -362 z "},"Ĉ":{"ha":996,"x_min":15,"x_max":1043,"o":"m 215 -290 q 201 -281 201 -290 q 212 -271 201 -272 q 243 -262 222 -269 q 376 -121 310 -235 q 140 -40 225 -117 q 50 190 50 42 q 179 550 50 367 q 468 808 303 724 q 406 813 429 813 q 348 809 378 813 q 288 799 318 806 q 149 744 210 781 q 64 633 64 694 q 65 622 64 626 l 65 611 q 53 592 65 592 q 25 618 35 592 q 15 658 15 638 q 169 792 15 744 q 396 825 282 825 q 438 823 414 825 q 489 818 461 821 q 558 846 524 833 q 628 867 593 858 q 629 912 629 890 q 629 953 629 933 q 628 995 629 967 q 626 1038 626 1024 q 633 1049 626 1049 q 639 1042 636 1049 q 650 929 650 1001 q 650 901 650 915 q 649 871 650 886 q 703 879 676 876 q 754 882 729 882 q 963 813 886 882 q 1040 617 1040 744 l 1040 610 q 1021 586 1040 586 q 994 594 1010 586 q 888 658 931 633 q 824 693 846 682 q 731 738 776 718 q 640 771 685 757 q 621 633 633 704 q 593 485 608 561 q 631 503 615 503 q 646 485 646 503 q 619 419 646 456 q 567 369 592 383 q 498 130 535 239 q 419 -65 461 21 q 438 -67 429 -67 q 457 -67 447 -67 q 778 14 621 -67 q 1028 229 942 94 q 1042 246 1039 246 q 1043 242 1043 244 q 1038 221 1043 231 q 757 -25 951 75 q 392 -121 569 -118 q 215 -290 297 -290 m 983 667 q 994 682 994 667 q 985 715 994 697 q 860 815 950 781 q 699 846 785 846 q 672 845 685 846 q 646 843 660 844 l 642 793 q 806 746 725 775 q 965 674 888 717 q 983 667 976 667 m 622 797 l 625 842 q 519 814 569 833 l 622 797 m 406 -64 q 485 133 449 22 q 553 376 522 243 q 515 474 515 425 q 539 518 515 518 q 575 481 558 518 q 621 776 607 638 q 559 792 590 786 q 496 804 528 799 q 235 569 338 731 q 131 233 131 407 q 203 26 131 103 q 406 -64 275 -51 m 688 981 q 700 992 688 983 q 727 1013 713 1001 q 749 1028 742 1024 q 805 1063 775 1046 q 860 1092 835 1081 q 893 1104 885 1104 q 917 1092 900 1104 q 955 1061 935 1079 q 992 1026 975 1043 q 1011 1005 1003 1015 q 1019 988 1019 994 q 1005 986 1019 979 q 971 1004 990 993 q 917 1036 942 1021 q 885 1056 892 1051 q 860 1045 875 1051 q 838 1036 846 1039 l 754 1004 q 705 984 722 992 q 688 981 688 976 z "},"Ċ":{"ha":996,"x_min":15,"x_max":1043,"o":"m 215 -290 q 201 -281 201 -290 q 212 -271 201 -272 q 243 -262 222 -269 q 376 -121 310 -235 q 140 -40 225 -117 q 50 190 50 42 q 179 550 50 367 q 468 808 303 724 q 406 813 429 813 q 348 809 378 813 q 288 799 318 806 q 149 744 210 781 q 64 633 64 694 q 65 622 64 626 l 65 611 q 53 592 65 592 q 25 618 35 592 q 15 658 15 638 q 169 792 15 744 q 396 825 282 825 q 438 823 414 825 q 489 818 461 821 q 558 846 524 833 q 628 867 593 858 q 629 912 629 890 q 629 953 629 933 q 628 995 629 967 q 626 1038 626 1024 q 633 1049 626 1049 q 639 1042 636 1049 q 650 929 650 1001 q 650 901 650 915 q 649 871 650 886 q 703 879 676 876 q 754 882 729 882 q 963 813 886 882 q 1040 617 1040 744 l 1040 610 q 1021 586 1040 586 q 994 594 1010 586 q 888 658 931 633 q 824 693 846 682 q 731 738 776 718 q 640 771 685 757 q 621 633 633 704 q 593 485 608 561 q 631 503 615 503 q 646 485 646 503 q 619 419 646 456 q 567 369 592 383 q 498 130 535 239 q 419 -65 461 21 q 438 -67 429 -67 q 457 -67 447 -67 q 778 14 621 -67 q 1028 229 942 94 q 1042 246 1039 246 q 1043 242 1043 244 q 1038 221 1043 231 q 757 -25 951 75 q 392 -121 569 -118 q 215 -290 297 -290 m 983 667 q 994 682 994 667 q 985 715 994 697 q 860 815 950 781 q 699 846 785 846 q 672 845 685 846 q 646 843 660 844 l 642 793 q 806 746 725 775 q 965 674 888 717 q 983 667 976 667 m 622 797 l 625 842 q 519 814 569 833 l 622 797 m 406 -64 q 485 133 449 22 q 553 376 522 243 q 515 474 515 425 q 539 518 515 518 q 575 481 558 518 q 621 776 607 638 q 559 792 590 786 q 496 804 528 799 q 235 569 338 731 q 131 233 131 407 q 203 26 131 103 q 406 -64 275 -51 m 854 969 q 835 986 846 969 q 828 1013 828 999 q 851 1043 828 1038 q 903 1086 890 1086 q 908 1075 908 1086 q 894 1014 908 1061 q 854 969 879 969 z "},"D":{"ha":1365,"x_min":3,"x_max":1347,"o":"m 222 -117 q 195 -116 208 -117 q 168 -114 182 -115 q 60 -65 110 -107 q 3 36 3 -19 q 56 118 3 90 q 157 142 99 142 q 375 85 236 142 q 546 385 471 206 q 526 483 526 451 q 546 533 526 533 q 585 489 568 533 q 685 828 635 588 q 222 661 379 826 q 169 540 169 604 q 293 374 169 426 q 319 364 304 368 q 357 354 335 360 q 364 349 364 351 q 354 342 364 342 l 351 343 q 196 410 267 349 q 119 560 119 476 q 171 676 119 624 q 689 850 340 854 q 714 975 697 911 q 719 943 719 974 q 717 901 719 925 q 708 850 714 878 q 882 829 801 847 q 1093 964 983 964 q 1179 940 1140 964 q 1233 871 1218 915 q 1238 853 1236 861 q 1239 840 1239 846 q 1235 835 1239 835 q 1224 853 1228 835 q 1175 906 1215 885 q 1104 925 1139 925 q 936 822 1014 925 q 1218 692 1101 796 q 1347 417 1347 578 q 1303 217 1347 314 q 1115 8 1239 81 q 836 -65 990 -65 q 501 8 681 -65 q 222 -117 404 -117 m 457 51 q 513 125 482 78 q 574 242 543 172 l 710 542 q 796 710 756 643 q 868 813 836 778 q 788 824 829 819 q 704 828 747 828 q 666 678 690 760 q 608 500 642 597 q 638 511 628 511 q 649 497 649 511 q 558 375 649 458 q 478 216 522 290 q 386 81 435 142 l 457 51 m 822 -42 q 1139 83 1014 -42 q 1264 401 1264 208 q 1165 661 1264 546 q 924 803 1068 778 q 874 715 901 769 q 810 582 846 660 q 656 249 763 469 q 517 26 581 100 q 822 -42 679 -42 m 196 -83 q 335 -53 265 -83 q 446 32 414 -19 q 375 65 411 51 q 228 -39 290 -39 q 199 -22 199 -39 q 207 -15 199 -15 q 218 -17 210 -15 q 231 -19 226 -19 q 364 71 286 -19 q 147 128 233 128 q 68 110 100 128 q 26 46 26 89 q 85 -49 26 -10 q 196 -83 136 -83 z "},"Ǆ":{"ha":2503,"x_min":3,"x_max":2788,"o":"m 2544 1124 q 2532 1113 2544 1122 q 2505 1092 2519 1103 q 2483 1076 2490 1082 q 2428 1042 2458 1060 q 2372 1012 2397 1024 q 2339 1000 2347 1000 q 2315 1013 2332 1000 q 2277 1043 2297 1025 q 2240 1078 2257 1061 q 2221 1100 2229 1089 q 2213 1117 2213 1111 q 2227 1118 2213 1125 q 2261 1100 2242 1111 q 2316 1068 2290 1083 q 2347 1049 2342 1053 q 2372 1059 2358 1053 q 2394 1068 2386 1065 l 2478 1100 q 2527 1120 2510 1113 q 2544 1124 2544 1128 m 222 -117 q 195 -116 208 -117 q 168 -114 182 -115 q 60 -65 110 -107 q 3 36 3 -19 q 56 118 3 90 q 157 142 99 142 q 375 85 236 142 q 546 385 471 206 q 526 483 526 451 q 546 533 526 533 q 585 489 568 533 q 685 828 635 588 q 222 661 379 826 q 169 540 169 604 q 293 374 169 426 q 319 364 304 368 q 357 354 335 360 q 364 349 364 351 q 354 342 364 342 l 351 343 q 196 410 267 349 q 119 560 119 476 q 171 676 119 624 q 689 850 340 854 q 714 975 697 911 q 719 943 719 974 q 717 901 719 925 q 708 850 714 878 q 882 829 801 847 q 1093 964 983 964 q 1179 940 1140 964 q 1233 871 1218 915 q 1238 853 1236 861 q 1239 840 1239 846 q 1235 835 1239 835 q 1224 853 1228 835 q 1175 906 1215 885 q 1104 925 1139 925 q 936 822 1014 925 q 1218 692 1101 796 q 1347 417 1347 578 q 1303 217 1347 314 q 1115 8 1239 81 q 836 -65 990 -65 q 501 8 681 -65 q 222 -117 404 -117 m 2347 -154 q 2068 -65 2244 -154 l 1797 74 q 1665 -43 1724 -7 q 1499 -90 1592 -90 q 1404 -58 1451 -90 q 1353 24 1353 -24 q 1419 121 1353 88 q 1542 147 1471 147 q 1612 142 1575 147 q 1689 128 1649 138 l 1925 381 q 1799 319 1799 358 q 1803 305 1799 313 q 1807 299 1807 297 q 1806 296 1807 297 q 1775 317 1792 296 q 1763 349 1763 332 q 1969 426 1763 418 q 2007 467 1989 447 q 2043 504 2025 486 q 2033 556 2033 528 q 2042 597 2033 576 q 2069 625 2053 625 q 2101 578 2092 625 q 2146 606 2128 600 q 2413 822 2286 738 q 2307 839 2360 831 q 2201 854 2254 847 q 2084 869 2138 864 q 1990 874 2031 874 q 1853 851 1915 874 q 1763 761 1763 819 q 1775 718 1763 742 q 1789 697 1789 696 q 1779 686 1789 688 l 1775 688 q 1743 771 1743 731 q 1800 874 1743 828 q 1913 925 1849 914 q 1954 930 1932 928 q 2000 932 1976 932 q 2106 925 2049 932 q 2232 904 2164 918 q 2346 879 2289 892 q 2460 853 2403 867 q 2511 883 2482 867 q 2578 918 2540 900 q 2697 967 2672 967 q 2700 964 2700 967 q 2686 947 2700 953 q 2659 938 2675 944 q 2621 924 2643 932 q 2550 890 2586 908 q 2478 850 2514 872 q 2542 838 2513 843 q 2596 831 2571 833 q 2736 868 2674 868 q 2788 847 2788 868 q 2588 808 2788 807 q 2143 426 2415 696 q 2365 406 2286 422 q 2375 400 2375 404 q 2367 397 2375 397 q 2341 398 2357 397 q 2304 400 2325 399 q 2268 402 2283 401 q 2242 403 2253 403 q 2179 402 2211 403 q 2115 400 2147 401 q 1990 271 2065 349 q 1811 90 1914 193 q 1963 32 1888 61 q 2115 -28 2039 3 q 2426 -96 2301 -96 q 2543 -31 2543 -96 q 2501 72 2543 13 q 2539 32 2519 64 q 2557 -21 2557 1 q 2479 -121 2557 -81 q 2347 -154 2415 -154 m 2654 828 l 2669 828 q 2735 844 2735 828 q 2715 850 2735 850 q 2629 829 2679 850 q 2644 828 2638 828 q 2654 828 2650 828 m 457 51 q 513 125 482 78 q 574 242 543 172 l 710 542 q 796 710 756 643 q 868 813 836 778 q 788 824 829 819 q 704 828 747 828 q 666 678 690 760 q 608 500 642 597 q 638 511 628 511 q 649 497 649 511 q 558 375 649 458 q 478 216 522 290 q 386 81 435 142 l 457 51 m 2004 428 q 2083 428 2044 431 q 2556 810 2326 683 q 2497 814 2528 811 q 2433 819 2467 817 q 2171 599 2311 739 l 2171 596 q 2129 525 2171 569 q 2092 490 2110 503 q 2060 472 2075 478 l 2054 482 l 2004 428 m 822 -42 q 1139 83 1014 -42 q 1264 401 1264 208 q 1165 661 1264 546 q 924 803 1068 778 q 874 715 901 769 q 810 582 846 660 q 656 249 763 469 q 517 26 581 100 q 822 -42 679 -42 m 1792 97 q 1899 223 1835 149 q 2051 396 1964 297 q 2007 392 2029 394 q 1965 386 1985 389 q 1860 276 1924 342 q 1711 122 1797 210 q 1750 110 1731 117 q 1792 97 1769 104 m 1510 -60 q 1656 -14 1571 -60 q 1730 32 1700 8 q 1778 79 1760 56 q 1747 94 1767 86 q 1700 110 1728 103 q 1503 -19 1569 -19 q 1472 -8 1481 -19 l 1479 -8 q 1676 117 1550 -8 q 1543 139 1593 139 q 1438 118 1486 139 q 1376 40 1376 90 q 1422 -35 1376 -6 q 1510 -60 1463 -60 m 196 -83 q 335 -53 265 -83 q 446 32 414 -19 q 375 65 411 51 q 228 -39 290 -39 q 199 -22 199 -39 q 207 -15 199 -15 q 218 -17 210 -15 q 231 -19 226 -19 q 364 71 286 -19 q 147 128 233 128 q 68 110 100 128 q 26 46 26 89 q 85 -49 26 -10 q 196 -83 136 -83 z "},"Ď":{"ha":1365,"x_min":3,"x_max":1347,"o":"m 1329 1190 q 1308 1171 1329 1188 q 1268 1143 1288 1154 q 1221 1113 1249 1132 q 1169 1081 1193 1094 q 1138 1067 1146 1067 q 1113 1080 1131 1067 q 1077 1111 1096 1093 q 1046 1144 1058 1129 q 1033 1164 1040 1151 q 1025 1181 1025 1176 q 1039 1188 1025 1193 q 1074 1167 1053 1182 l 1118 1135 q 1133 1125 1125 1129 q 1146 1115 1140 1121 q 1172 1126 1161 1122 q 1193 1135 1183 1131 l 1263 1167 q 1329 1190 1329 1197 m 222 -117 q 195 -116 208 -117 q 168 -114 182 -115 q 60 -65 110 -107 q 3 36 3 -19 q 56 118 3 90 q 157 142 99 142 q 375 85 236 142 q 546 385 471 206 q 526 483 526 451 q 546 533 526 533 q 585 489 568 533 q 685 828 635 588 q 222 661 379 826 q 169 540 169 604 q 293 374 169 426 q 319 364 304 368 q 357 354 335 360 q 364 349 364 351 q 354 342 364 342 l 351 343 q 196 410 267 349 q 119 560 119 476 q 171 676 119 624 q 689 850 340 854 q 714 975 697 911 q 719 943 719 974 q 717 901 719 925 q 708 850 714 878 q 882 829 801 847 q 1093 964 983 964 q 1179 940 1140 964 q 1233 871 1218 915 q 1238 853 1236 861 q 1239 840 1239 846 q 1235 835 1239 835 q 1224 853 1228 835 q 1175 906 1215 885 q 1104 925 1139 925 q 936 822 1014 925 q 1218 692 1101 796 q 1347 417 1347 578 q 1303 217 1347 314 q 1115 8 1239 81 q 836 -65 990 -65 q 501 8 681 -65 q 222 -117 404 -117 m 457 51 q 513 125 482 78 q 574 242 543 172 l 710 542 q 796 710 756 643 q 868 813 836 778 q 788 824 829 819 q 704 828 747 828 q 666 678 690 760 q 608 500 642 597 q 638 511 628 511 q 649 497 649 511 q 558 375 649 458 q 478 216 522 290 q 386 81 435 142 l 457 51 m 822 -42 q 1139 83 1014 -42 q 1264 401 1264 208 q 1165 661 1264 546 q 924 803 1068 778 q 874 715 901 769 q 810 582 846 660 q 656 249 763 469 q 517 26 581 100 q 822 -42 679 -42 m 196 -83 q 335 -53 265 -83 q 446 32 414 -19 q 375 65 411 51 q 228 -39 290 -39 q 199 -22 199 -39 q 207 -15 199 -15 q 218 -17 210 -15 q 231 -19 226 -19 q 364 71 286 -19 q 147 128 233 128 q 68 110 100 128 q 26 46 26 89 q 85 -49 26 -10 q 196 -83 136 -83 z "},"Đ":{"ha":1365,"x_min":3,"x_max":1347,"o":"m 222 -117 q 195 -116 208 -117 q 168 -114 182 -115 q 60 -65 110 -107 q 3 36 3 -19 q 56 118 3 90 q 157 142 99 142 q 385 81 238 142 q 451 175 419 122 q 511 292 483 228 q 462 268 489 281 q 415 247 435 256 q 390 239 394 239 q 374 274 374 239 q 379 288 374 286 q 417 301 394 293 q 468 324 439 310 l 539 358 q 610 590 583 472 q 646 826 636 707 q 222 661 365 813 q 169 540 169 604 q 290 374 169 428 q 318 364 301 368 q 357 354 335 360 q 364 349 364 351 q 354 342 364 342 l 351 343 q 196 410 267 349 q 119 560 119 476 q 171 676 119 624 q 647 850 326 839 q 649 889 649 869 q 650 928 650 908 q 649 968 650 942 q 647 1008 647 994 q 654 1018 647 1018 q 658 1011 656 1018 q 667 850 668 947 q 882 829 779 853 q 1093 964 983 964 q 1179 940 1140 964 q 1232 874 1218 915 q 1239 840 1239 850 q 1235 835 1239 835 q 1224 853 1228 835 q 1175 906 1215 885 q 1104 925 1139 925 q 936 822 1014 925 q 1218 692 1101 796 q 1347 417 1347 578 q 1303 217 1347 314 q 1115 8 1239 81 q 836 -65 990 -65 q 501 8 681 -65 q 222 -117 404 -117 m 571 372 q 610 388 590 381 q 647 401 629 396 q 710 541 686 488 q 746 617 735 594 q 811 735 781 686 q 868 813 842 785 q 783 824 826 819 q 696 828 740 828 l 665 828 q 571 372 656 601 m 822 -42 q 1139 83 1014 -42 q 1264 401 1264 211 q 1165 661 1264 546 q 924 803 1068 778 q 877 722 901 768 q 826 621 853 676 q 785 526 806 574 q 742 431 764 478 q 946 465 872 465 q 957 454 957 465 q 947 444 957 446 l 874 428 q 718 379 801 411 q 667 271 690 317 q 629 196 644 225 q 517 26 572 92 q 822 -42 679 -42 m 457 51 q 619 339 518 117 l 546 307 q 408 71 486 167 l 457 51 m 196 -83 q 335 -53 265 -83 q 446 32 414 -19 l 396 57 q 176 -62 292 -62 q 149 -51 149 -62 q 174 -44 149 -44 q 374 67 275 -44 q 147 128 236 128 q 68 110 100 128 q 26 46 26 89 q 85 -49 26 -10 q 196 -83 136 -83 z "},"ǅ":{"ha":1753,"x_min":3,"x_max":1839,"o":"m 222 -117 q 195 -116 208 -117 q 168 -114 182 -115 q 60 -65 110 -107 q 3 36 3 -19 q 56 118 3 90 q 157 142 99 142 q 375 85 236 142 q 546 385 471 206 q 526 483 526 451 q 546 533 526 533 q 585 489 568 533 q 685 828 635 588 q 222 661 379 826 q 169 540 169 604 q 293 374 169 426 q 319 364 304 368 q 357 354 335 360 q 364 349 364 351 q 354 342 364 342 l 351 343 q 196 410 267 349 q 119 560 119 476 q 171 676 119 624 q 689 850 340 854 q 714 975 697 911 q 719 943 719 974 q 717 901 719 925 q 708 850 714 878 q 882 829 801 847 q 1093 964 983 964 q 1179 940 1140 964 q 1233 871 1218 915 q 1238 853 1236 861 q 1239 840 1239 846 q 1235 835 1239 835 q 1224 853 1228 835 q 1175 906 1215 885 q 1104 925 1139 925 q 936 822 1014 925 q 1218 692 1101 796 q 1347 417 1347 578 q 1303 217 1347 314 q 1115 8 1239 81 q 836 -65 990 -65 q 501 8 681 -65 q 222 -117 404 -117 m 457 51 q 513 125 482 78 q 574 242 543 172 l 710 542 q 796 710 756 643 q 868 813 836 778 q 788 824 829 819 q 704 828 747 828 q 666 678 690 760 q 608 500 642 597 q 638 511 628 511 q 649 497 649 511 q 558 375 649 458 q 478 216 522 290 q 386 81 435 142 l 457 51 m 822 -42 q 1139 83 1014 -42 q 1264 401 1264 208 q 1165 661 1264 546 q 924 803 1068 778 q 874 715 901 769 q 810 582 846 660 q 656 249 763 469 q 517 26 581 100 q 822 -42 679 -42 m 1813 686 q 1792 667 1813 683 q 1751 639 1771 650 q 1704 609 1732 628 q 1653 576 1676 590 q 1621 563 1629 563 q 1597 576 1614 563 q 1560 607 1579 589 q 1529 640 1542 625 q 1516 660 1524 647 q 1508 676 1508 672 q 1522 683 1508 689 q 1557 663 1536 678 l 1601 631 q 1616 621 1608 625 q 1629 611 1624 617 q 1656 622 1644 618 q 1676 631 1667 626 l 1746 663 q 1813 686 1813 693 m 1061 -521 q 942 -421 942 -521 q 1032 -236 942 -335 q 1199 -106 1101 -162 q 1657 15 1394 10 q 1676 135 1676 82 q 1608 236 1676 236 q 1542 217 1583 236 q 1513 202 1522 207 q 1503 197 1503 197 q 1489 210 1489 197 q 1496 222 1489 215 q 1535 264 1515 240 q 1576 315 1556 288 q 1629 419 1629 388 q 1610 440 1629 440 q 1396 201 1539 440 q 1386 193 1390 193 q 1381 200 1381 193 q 1385 211 1381 206 l 1440 306 q 1613 468 1536 468 q 1675 426 1675 468 q 1578 257 1675 363 q 1643 281 1617 281 q 1724 139 1724 281 q 1719 74 1724 104 q 1708 15 1715 43 q 1746 10 1726 14 q 1786 0 1765 7 q 1839 -46 1839 -19 q 1822 -74 1839 -74 q 1818 -68 1818 -74 q 1819 -62 1818 -65 q 1821 -56 1821 -58 q 1771 -19 1821 -36 q 1704 -6 1733 -6 q 1536 -279 1667 -153 q 1268 -464 1422 -390 q 1061 -521 1143 -521 m 196 -83 q 335 -53 265 -83 q 446 32 414 -19 q 375 65 411 51 q 228 -39 290 -39 q 199 -22 199 -39 q 207 -15 199 -15 q 218 -17 210 -15 q 231 -19 226 -19 q 364 71 286 -19 q 147 128 233 128 q 68 110 100 128 q 26 46 26 89 q 85 -49 26 -10 q 196 -83 136 -83 m 1075 -482 q 1432 -331 1256 -482 q 1653 -7 1599 -186 q 1414 -49 1542 -11 q 1193 -146 1285 -89 q 1053 -260 1118 -190 q 969 -412 969 -344 q 1075 -482 969 -482 z "},"E":{"ha":1361,"x_min":11,"x_max":1513,"o":"m 1129 -183 q 826 -108 1025 -183 l 522 8 q 196 -151 375 -151 q 78 -119 135 -151 q 11 -26 11 -83 q 82 78 11 43 q 214 104 136 104 q 419 63 286 104 q 461 126 436 85 q 521 228 486 168 q 596 392 596 364 q 592 402 596 392 q 581 432 588 413 q 567 497 567 469 q 582 536 567 536 q 625 493 603 536 q 655 619 643 538 q 672 821 667 701 q 483 838 563 838 q 356 824 406 838 q 219 656 219 783 q 357 439 219 538 q 364 432 364 436 q 358 428 364 428 q 350 431 356 428 q 165 682 165 536 q 233 814 165 767 q 379 865 289 854 q 457 869 415 869 q 556 865 501 869 q 674 850 610 860 q 675 877 675 864 q 675 904 675 890 q 674 914 675 910 l 674 924 q 676 932 674 932 l 681 929 q 690 849 690 901 q 787 833 731 843 q 913 808 843 822 q 1153 961 1032 961 q 1260 872 1260 961 q 1253 856 1260 856 q 1247 869 1247 856 q 1219 919 1247 900 q 1161 933 1196 933 q 974 797 1068 933 q 1195 758 1106 771 q 1333 746 1285 746 q 1432 760 1392 746 q 1493 824 1493 781 q 1488 845 1493 836 q 1482 857 1482 854 q 1486 861 1482 861 q 1505 837 1497 861 q 1513 799 1513 813 q 1351 699 1513 699 q 953 765 1251 699 q 890 647 935 736 q 772 410 844 558 q 947 429 828 429 q 1207 396 1111 429 q 1215 390 1215 394 q 1208 385 1215 385 q 1156 389 1192 385 q 1103 393 1121 393 q 992 389 1046 393 q 890 375 939 385 q 731 278 731 346 q 739 250 731 267 l 739 247 q 708 283 724 247 q 539 26 621 124 l 831 -60 q 994 -98 919 -86 q 1128 -110 1068 -110 q 1261 -86 1203 -110 q 1336 14 1336 -53 q 1293 135 1336 65 q 1250 206 1250 207 q 1251 207 1250 207 q 1268 197 1257 207 q 1358 18 1358 122 q 1288 -131 1358 -74 q 1129 -183 1222 -183 m 467 46 q 541 147 499 81 q 633 314 583 214 l 753 551 q 822 677 788 621 q 890 779 857 733 q 781 803 831 793 q 690 818 731 813 q 647 504 686 660 q 676 515 667 515 q 688 497 688 515 q 611 385 688 457 q 541 233 585 315 q 438 56 497 150 l 467 46 m 182 -122 q 335 -74 249 -122 q 406 -24 375 -50 q 457 29 438 1 l 425 40 q 414 28 421 35 q 397 11 407 21 q 288 -74 340 -46 q 283 -75 286 -75 q 282 -72 282 -75 q 293 -58 282 -67 l 353 -10 q 384 20 372 6 q 406 49 396 35 q 305 75 353 67 q 217 83 257 83 q 107 63 156 83 q 46 -21 46 35 q 92 -97 46 -69 q 182 -122 132 -122 z "},"É":{"ha":1361,"x_min":11,"x_max":1513,"o":"m 1129 -183 q 826 -108 1025 -183 l 522 8 q 196 -151 375 -151 q 78 -119 135 -151 q 11 -26 11 -83 q 82 78 11 43 q 214 104 136 104 q 419 63 286 104 q 461 126 436 85 q 521 228 486 168 q 596 392 596 364 q 592 402 596 392 q 581 432 588 413 q 567 497 567 469 q 582 536 567 536 q 625 493 603 536 q 655 619 643 538 q 672 821 667 701 q 483 838 563 838 q 356 824 406 838 q 219 656 219 783 q 357 439 219 538 q 364 432 364 436 q 358 428 364 428 q 350 431 356 428 q 165 682 165 536 q 233 814 165 767 q 379 865 289 854 q 457 869 415 869 q 556 865 501 869 q 674 850 610 860 q 675 877 675 864 q 675 904 675 890 q 674 914 675 910 l 674 924 q 676 932 674 932 l 681 929 q 690 849 690 901 q 787 833 731 843 q 913 808 843 822 q 1153 961 1032 961 q 1260 872 1260 961 q 1253 856 1260 856 q 1247 869 1247 856 q 1219 919 1247 900 q 1161 933 1196 933 q 974 797 1068 933 q 1195 758 1106 771 q 1333 746 1285 746 q 1432 760 1392 746 q 1493 824 1493 781 q 1488 845 1493 836 q 1482 857 1482 854 q 1486 861 1482 861 q 1505 837 1497 861 q 1513 799 1513 813 q 1351 699 1513 699 q 953 765 1251 699 q 890 647 935 736 q 772 410 844 558 q 947 429 828 429 q 1207 396 1111 429 q 1215 390 1215 394 q 1208 385 1215 385 q 1156 389 1192 385 q 1103 393 1121 393 q 992 389 1046 393 q 890 375 939 385 q 731 278 731 346 q 739 250 731 267 l 739 247 q 708 283 724 247 q 539 26 621 124 l 831 -60 q 994 -98 919 -86 q 1128 -110 1068 -110 q 1261 -86 1203 -110 q 1336 14 1336 -53 q 1293 135 1336 65 q 1250 206 1250 207 q 1251 207 1250 207 q 1268 197 1257 207 q 1358 18 1358 122 q 1288 -131 1358 -74 q 1129 -183 1222 -183 m 467 46 q 541 147 499 81 q 633 314 583 214 l 753 551 q 822 677 788 621 q 890 779 857 733 q 781 803 831 793 q 690 818 731 813 q 647 504 686 660 q 676 515 667 515 q 688 497 688 515 q 611 385 688 457 q 541 233 585 315 q 438 56 497 150 l 467 46 m 182 -122 q 335 -74 249 -122 q 406 -24 375 -50 q 457 29 438 1 l 425 40 q 414 28 421 35 q 397 11 407 21 q 288 -74 340 -46 q 283 -75 286 -75 q 282 -72 282 -75 q 293 -58 282 -67 l 353 -10 q 384 20 372 6 q 406 49 396 35 q 305 75 353 67 q 217 83 257 83 q 107 63 156 83 q 46 -21 46 35 q 92 -97 46 -69 q 182 -122 132 -122 m 1196 1028 q 1189 1032 1189 1028 q 1224 1058 1189 1036 q 1303 1103 1260 1081 q 1372 1142 1339 1124 q 1422 1161 1404 1161 q 1439 1142 1439 1161 q 1433 1122 1439 1132 q 1418 1110 1428 1113 q 1396 1103 1408 1107 q 1374 1096 1383 1100 q 1324 1076 1353 1088 q 1269 1054 1296 1065 q 1220 1036 1242 1044 q 1196 1028 1199 1028 z "},"Ĕ":{"ha":1361,"x_min":11,"x_max":1513,"o":"m 1129 -183 q 826 -108 1025 -183 l 522 8 q 196 -151 375 -151 q 78 -119 135 -151 q 11 -26 11 -83 q 82 78 11 43 q 214 104 136 104 q 419 63 286 104 q 461 126 436 85 q 521 228 486 168 q 596 392 596 364 q 592 402 596 392 q 581 432 588 413 q 567 497 567 469 q 582 536 567 536 q 625 493 603 536 q 655 619 643 538 q 672 821 667 701 q 483 838 563 838 q 356 824 406 838 q 219 656 219 783 q 357 439 219 538 q 364 432 364 436 q 358 428 364 428 q 350 431 356 428 q 165 682 165 536 q 233 814 165 767 q 379 865 289 854 q 457 869 415 869 q 556 865 501 869 q 674 850 610 860 q 675 877 675 864 q 675 904 675 890 q 674 914 675 910 l 674 924 q 676 932 674 932 l 681 929 q 690 849 690 901 q 787 833 731 843 q 913 808 843 822 q 1153 961 1032 961 q 1260 872 1260 961 q 1253 856 1260 856 q 1247 869 1247 856 q 1219 919 1247 900 q 1161 933 1196 933 q 974 797 1068 933 q 1195 758 1106 771 q 1333 746 1285 746 q 1432 760 1392 746 q 1493 824 1493 781 q 1488 845 1493 836 q 1482 857 1482 854 q 1486 861 1482 861 q 1505 837 1497 861 q 1513 799 1513 813 q 1351 699 1513 699 q 953 765 1251 699 q 890 647 935 736 q 772 410 844 558 q 947 429 828 429 q 1207 396 1111 429 q 1215 390 1215 394 q 1208 385 1215 385 q 1156 389 1192 385 q 1103 393 1121 393 q 992 389 1046 393 q 890 375 939 385 q 731 278 731 346 q 739 250 731 267 l 739 247 q 708 283 724 247 q 539 26 621 124 l 831 -60 q 994 -98 919 -86 q 1128 -110 1068 -110 q 1261 -86 1203 -110 q 1336 14 1336 -53 q 1293 135 1336 65 q 1250 206 1250 207 q 1251 207 1250 207 q 1268 197 1257 207 q 1358 18 1358 122 q 1288 -131 1358 -74 q 1129 -183 1222 -183 m 467 46 q 541 147 499 81 q 633 314 583 214 l 753 551 q 822 677 788 621 q 890 779 857 733 q 781 803 831 793 q 690 818 731 813 q 647 504 686 660 q 676 515 667 515 q 688 497 688 515 q 611 385 688 457 q 541 233 585 315 q 438 56 497 150 l 467 46 m 182 -122 q 335 -74 249 -122 q 406 -24 375 -50 q 457 29 438 1 l 425 40 q 414 28 421 35 q 397 11 407 21 q 288 -74 340 -46 q 283 -75 286 -75 q 282 -72 282 -75 q 293 -58 282 -67 l 353 -10 q 384 20 372 6 q 406 49 396 35 q 305 75 353 67 q 217 83 257 83 q 107 63 156 83 q 46 -21 46 35 q 92 -97 46 -69 q 182 -122 132 -122 m 1268 1028 q 1164 1110 1164 1028 q 1175 1142 1164 1128 q 1200 1156 1186 1156 q 1206 1147 1206 1156 q 1204 1135 1206 1142 q 1203 1124 1203 1129 q 1223 1083 1203 1099 q 1282 1067 1243 1067 q 1363 1078 1324 1067 q 1432 1125 1401 1090 q 1449 1149 1444 1140 q 1456 1157 1453 1157 q 1458 1146 1463 1157 q 1415 1078 1447 1104 q 1344 1040 1383 1053 q 1268 1028 1306 1028 z "},"Ě":{"ha":1361,"x_min":11,"x_max":1513,"o":"m 1472 1153 q 1460 1142 1472 1151 q 1433 1122 1447 1132 q 1411 1106 1418 1111 q 1356 1071 1386 1089 q 1300 1041 1325 1053 q 1267 1029 1275 1029 q 1242 1042 1260 1029 q 1205 1072 1225 1054 q 1168 1107 1185 1090 q 1149 1129 1157 1118 q 1140 1146 1140 1140 q 1155 1147 1140 1154 q 1189 1129 1169 1140 q 1244 1097 1218 1113 q 1275 1078 1269 1082 q 1300 1088 1286 1082 q 1322 1097 1314 1094 l 1406 1129 q 1455 1149 1438 1142 q 1472 1153 1472 1157 m 1129 -183 q 826 -108 1025 -183 l 522 8 q 196 -151 375 -151 q 78 -119 135 -151 q 11 -26 11 -83 q 82 78 11 43 q 214 104 136 104 q 419 63 286 104 q 461 126 436 85 q 521 228 486 168 q 596 392 596 364 q 592 402 596 392 q 581 432 588 413 q 567 497 567 469 q 582 536 567 536 q 625 493 603 536 q 655 619 643 538 q 672 821 667 701 q 483 838 563 838 q 356 824 406 838 q 219 656 219 783 q 357 439 219 538 q 364 432 364 436 q 358 428 364 428 q 350 431 356 428 q 165 682 165 536 q 233 814 165 767 q 379 865 289 854 q 457 869 415 869 q 556 865 501 869 q 674 850 610 860 q 675 877 675 864 q 675 904 675 890 q 674 914 675 910 l 674 924 q 676 932 674 932 l 681 929 q 690 849 690 901 q 787 833 731 843 q 913 808 843 822 q 1153 961 1032 961 q 1260 872 1260 961 q 1253 856 1260 856 q 1247 869 1247 856 q 1219 919 1247 900 q 1161 933 1196 933 q 974 797 1068 933 q 1195 758 1106 771 q 1333 746 1285 746 q 1432 760 1392 746 q 1493 824 1493 781 q 1488 845 1493 836 q 1482 857 1482 854 q 1486 861 1482 861 q 1505 837 1497 861 q 1513 799 1513 813 q 1351 699 1513 699 q 953 765 1251 699 q 890 647 935 736 q 772 410 844 558 q 947 429 828 429 q 1207 396 1111 429 q 1215 390 1215 394 q 1208 385 1215 385 q 1156 389 1192 385 q 1103 393 1121 393 q 992 389 1046 393 q 890 375 939 385 q 731 278 731 346 q 739 250 731 267 l 739 247 q 708 283 724 247 q 539 26 621 124 l 831 -60 q 994 -98 919 -86 q 1128 -110 1068 -110 q 1261 -86 1203 -110 q 1336 14 1336 -53 q 1293 135 1336 65 q 1250 206 1250 207 q 1251 207 1250 207 q 1268 197 1257 207 q 1358 18 1358 122 q 1288 -131 1358 -74 q 1129 -183 1222 -183 m 467 46 q 541 147 499 81 q 633 314 583 214 l 753 551 q 822 677 788 621 q 890 779 857 733 q 781 803 831 793 q 690 818 731 813 q 647 504 686 660 q 676 515 667 515 q 688 497 688 515 q 611 385 688 457 q 541 233 585 315 q 438 56 497 150 l 467 46 m 182 -122 q 335 -74 249 -122 q 406 -24 375 -50 q 457 29 438 1 l 425 40 q 414 28 421 35 q 397 11 407 21 q 288 -74 340 -46 q 283 -75 286 -75 q 282 -72 282 -75 q 293 -58 282 -67 l 353 -10 q 384 20 372 6 q 406 49 396 35 q 305 75 353 67 q 217 83 257 83 q 107 63 156 83 q 46 -21 46 35 q 92 -97 46 -69 q 182 -122 132 -122 z "},"Ê":{"ha":1361,"x_min":11,"x_max":1513,"o":"m 1129 -183 q 826 -108 1025 -183 l 522 8 q 196 -151 375 -151 q 78 -119 135 -151 q 11 -26 11 -83 q 82 78 11 43 q 214 104 136 104 q 419 63 286 104 q 461 126 436 85 q 521 228 486 168 q 596 392 596 364 q 592 402 596 392 q 581 432 588 413 q 567 497 567 469 q 582 536 567 536 q 625 493 603 536 q 655 619 643 538 q 672 821 667 701 q 483 838 563 838 q 356 824 406 838 q 219 656 219 783 q 357 439 219 538 q 364 432 364 436 q 358 428 364 428 q 350 431 356 428 q 165 682 165 536 q 233 814 165 767 q 379 865 289 854 q 457 869 415 869 q 556 865 501 869 q 674 850 610 860 q 675 877 675 864 q 675 904 675 890 q 674 914 675 910 l 674 924 q 676 932 674 932 l 681 929 q 690 849 690 901 q 787 833 731 843 q 913 808 843 822 q 1153 961 1032 961 q 1260 872 1260 961 q 1253 856 1260 856 q 1247 869 1247 856 q 1219 919 1247 900 q 1161 933 1196 933 q 974 797 1068 933 q 1195 758 1106 771 q 1333 746 1285 746 q 1432 760 1392 746 q 1493 824 1493 781 q 1488 845 1493 836 q 1482 857 1482 854 q 1486 861 1482 861 q 1505 837 1497 861 q 1513 799 1513 813 q 1351 699 1513 699 q 953 765 1251 699 q 890 647 935 736 q 772 410 844 558 q 947 429 828 429 q 1207 396 1111 429 q 1215 390 1215 394 q 1208 385 1215 385 q 1156 389 1192 385 q 1103 393 1121 393 q 992 389 1046 393 q 890 375 939 385 q 731 278 731 346 q 739 250 731 267 l 739 247 q 708 283 724 247 q 539 26 621 124 l 831 -60 q 994 -98 919 -86 q 1128 -110 1068 -110 q 1261 -86 1203 -110 q 1336 14 1336 -53 q 1293 135 1336 65 q 1250 206 1250 207 q 1251 207 1250 207 q 1268 197 1257 207 q 1358 18 1358 122 q 1288 -131 1358 -74 q 1129 -183 1222 -183 m 467 46 q 541 147 499 81 q 633 314 583 214 l 753 551 q 822 677 788 621 q 890 779 857 733 q 781 803 831 793 q 690 818 731 813 q 647 504 686 660 q 676 515 667 515 q 688 497 688 515 q 611 385 688 457 q 541 233 585 315 q 438 56 497 150 l 467 46 m 182 -122 q 335 -74 249 -122 q 406 -24 375 -50 q 457 29 438 1 l 425 40 q 414 28 421 35 q 397 11 407 21 q 288 -74 340 -46 q 283 -75 286 -75 q 282 -72 282 -75 q 293 -58 282 -67 l 353 -10 q 384 20 372 6 q 406 49 396 35 q 305 75 353 67 q 217 83 257 83 q 107 63 156 83 q 46 -21 46 35 q 92 -97 46 -69 q 182 -122 132 -122 m 1111 1029 q 1124 1041 1111 1032 q 1151 1061 1136 1050 q 1172 1076 1165 1072 q 1228 1112 1199 1094 q 1283 1141 1258 1129 q 1317 1153 1308 1153 q 1341 1140 1324 1153 q 1378 1110 1358 1128 q 1415 1075 1399 1092 q 1435 1053 1426 1064 q 1443 1036 1443 1043 q 1428 1035 1443 1028 q 1394 1053 1414 1042 q 1340 1085 1365 1069 q 1308 1104 1315 1100 q 1284 1094 1299 1100 q 1261 1085 1269 1088 l 1178 1053 q 1128 1033 1146 1040 q 1111 1029 1111 1025 z "},"Ế":{"ha":1361,"x_min":11,"x_max":1513,"o":"m 1129 -183 q 826 -108 1025 -183 l 522 8 q 196 -151 375 -151 q 78 -119 135 -151 q 11 -26 11 -83 q 82 78 11 43 q 214 104 136 104 q 419 63 286 104 q 461 126 436 85 q 521 228 486 168 q 596 392 596 364 q 592 402 596 392 q 581 432 588 413 q 567 497 567 469 q 582 536 567 536 q 625 493 603 536 q 655 619 643 538 q 672 821 667 701 q 483 838 563 838 q 356 824 406 838 q 219 656 219 783 q 357 439 219 538 q 364 432 364 436 q 358 428 364 428 q 350 431 356 428 q 165 682 165 536 q 233 814 165 767 q 379 865 289 854 q 457 869 415 869 q 556 865 501 869 q 674 850 610 860 q 675 877 675 864 q 675 904 675 890 q 674 914 675 910 l 674 924 q 676 932 674 932 l 681 929 q 690 849 690 901 q 787 833 731 843 q 913 808 843 822 q 1153 961 1032 961 q 1260 872 1260 961 q 1253 856 1260 856 q 1247 869 1247 856 q 1219 919 1247 900 q 1161 933 1196 933 q 974 797 1068 933 q 1195 758 1106 771 q 1333 746 1285 746 q 1432 760 1392 746 q 1493 824 1493 781 q 1488 845 1493 836 q 1482 857 1482 854 q 1486 861 1482 861 q 1505 837 1497 861 q 1513 799 1513 813 q 1351 699 1513 699 q 953 765 1251 699 q 890 647 935 736 q 772 410 844 558 q 947 429 828 429 q 1207 396 1111 429 q 1215 390 1215 394 q 1208 385 1215 385 q 1156 389 1192 385 q 1103 393 1121 393 q 992 389 1046 393 q 890 375 939 385 q 731 278 731 346 q 739 250 731 267 l 739 247 q 708 283 724 247 q 539 26 621 124 l 831 -60 q 994 -98 919 -86 q 1128 -110 1068 -110 q 1261 -86 1203 -110 q 1336 14 1336 -53 q 1293 135 1336 65 q 1250 206 1250 207 q 1251 207 1250 207 q 1268 197 1257 207 q 1358 18 1358 122 q 1288 -131 1358 -74 q 1129 -183 1222 -183 m 467 46 q 541 147 499 81 q 633 314 583 214 l 753 551 q 822 677 788 621 q 890 779 857 733 q 781 803 831 793 q 690 818 731 813 q 647 504 686 660 q 676 515 667 515 q 688 497 688 515 q 611 385 688 457 q 541 233 585 315 q 438 56 497 150 l 467 46 m 182 -122 q 335 -74 249 -122 q 406 -24 375 -50 q 457 29 438 1 l 425 40 q 414 28 421 35 q 397 11 407 21 q 288 -74 340 -46 q 283 -75 286 -75 q 282 -72 282 -75 q 293 -58 282 -67 l 353 -10 q 384 20 372 6 q 406 49 396 35 q 305 75 353 67 q 217 83 257 83 q 107 63 156 83 q 46 -21 46 35 q 92 -97 46 -69 q 182 -122 132 -122 m 1111 1029 q 1124 1041 1111 1032 q 1151 1061 1136 1050 q 1172 1076 1165 1072 q 1228 1112 1199 1094 q 1283 1141 1258 1129 q 1317 1153 1308 1153 q 1341 1140 1324 1153 q 1378 1110 1358 1128 q 1415 1075 1399 1092 q 1435 1053 1426 1064 q 1443 1036 1443 1043 q 1428 1035 1443 1028 q 1394 1053 1414 1042 q 1340 1085 1365 1069 q 1308 1104 1315 1100 q 1284 1094 1299 1100 q 1261 1085 1269 1088 l 1178 1053 q 1128 1033 1146 1040 q 1111 1029 1111 1025 m 1197 1181 q 1190 1185 1190 1181 q 1226 1211 1190 1189 q 1304 1256 1261 1233 q 1373 1295 1340 1276 q 1424 1314 1406 1314 q 1440 1294 1440 1314 q 1435 1275 1440 1285 q 1419 1263 1429 1265 q 1397 1256 1410 1260 q 1375 1249 1385 1253 q 1326 1229 1354 1240 q 1271 1207 1297 1218 q 1222 1189 1243 1197 q 1197 1181 1200 1181 z "},"Ệ":{"ha":1361,"x_min":11,"x_max":1513,"o":"m 1129 -183 q 826 -108 1025 -183 l 522 8 q 196 -151 375 -151 q 78 -119 135 -151 q 11 -26 11 -83 q 82 78 11 43 q 214 104 136 104 q 419 63 286 104 q 461 126 436 85 q 521 228 486 168 q 596 392 596 364 q 592 402 596 392 q 581 432 588 413 q 567 497 567 469 q 582 536 567 536 q 625 493 603 536 q 655 619 643 538 q 672 821 667 701 q 483 838 563 838 q 356 824 406 838 q 219 656 219 783 q 357 439 219 538 q 364 432 364 436 q 358 428 364 428 q 350 431 356 428 q 165 682 165 536 q 233 814 165 767 q 379 865 289 854 q 457 869 415 869 q 556 865 501 869 q 674 850 610 860 q 675 877 675 864 q 675 904 675 890 q 674 914 675 910 l 674 924 q 676 932 674 932 l 681 929 q 690 849 690 901 q 787 833 731 843 q 913 808 843 822 q 1153 961 1032 961 q 1260 872 1260 961 q 1253 856 1260 856 q 1247 869 1247 856 q 1219 919 1247 900 q 1161 933 1196 933 q 974 797 1068 933 q 1195 758 1106 771 q 1333 746 1285 746 q 1432 760 1392 746 q 1493 824 1493 781 q 1488 845 1493 836 q 1482 857 1482 854 q 1486 861 1482 861 q 1505 837 1497 861 q 1513 799 1513 813 q 1351 699 1513 699 q 953 765 1251 699 q 890 647 935 736 q 772 410 844 558 q 947 429 828 429 q 1207 396 1111 429 q 1215 390 1215 394 q 1208 385 1215 385 q 1156 389 1192 385 q 1103 393 1121 393 q 992 389 1046 393 q 890 375 939 385 q 731 278 731 346 q 739 250 731 267 l 739 247 q 708 283 724 247 q 539 26 621 124 l 831 -60 q 994 -98 919 -86 q 1128 -110 1068 -110 q 1261 -86 1203 -110 q 1336 14 1336 -53 q 1293 135 1336 65 q 1250 206 1250 207 q 1251 207 1250 207 q 1268 197 1257 207 q 1358 18 1358 122 q 1288 -131 1358 -74 q 1129 -183 1222 -183 m 467 46 q 541 147 499 81 q 633 314 583 214 l 753 551 q 822 677 788 621 q 890 779 857 733 q 781 803 831 793 q 690 818 731 813 q 647 504 686 660 q 676 515 667 515 q 688 497 688 515 q 611 385 688 457 q 541 233 585 315 q 438 56 497 150 l 467 46 m 182 -122 q 335 -74 249 -122 q 406 -24 375 -50 q 457 29 438 1 l 425 40 q 414 28 421 35 q 397 11 407 21 q 288 -74 340 -46 q 283 -75 286 -75 q 282 -72 282 -75 q 293 -58 282 -67 l 353 -10 q 384 20 372 6 q 406 49 396 35 q 305 75 353 67 q 217 83 257 83 q 107 63 156 83 q 46 -21 46 35 q 92 -97 46 -69 q 182 -122 132 -122 m 739 -322 q 719 -306 731 -322 q 713 -279 713 -293 q 736 -249 713 -254 q 788 -206 775 -206 q 793 -217 793 -206 q 779 -278 793 -231 q 739 -322 764 -322 m 1111 1029 q 1124 1041 1111 1032 q 1151 1061 1136 1050 q 1172 1076 1165 1072 q 1228 1112 1199 1094 q 1283 1141 1258 1129 q 1317 1153 1308 1153 q 1341 1140 1324 1153 q 1378 1110 1358 1128 q 1415 1075 1399 1092 q 1435 1053 1426 1064 q 1443 1036 1443 1043 q 1428 1035 1443 1028 q 1394 1053 1414 1042 q 1340 1085 1365 1069 q 1308 1104 1315 1100 q 1284 1094 1299 1100 q 1261 1085 1269 1088 l 1178 1053 q 1128 1033 1146 1040 q 1111 1029 1111 1025 z "},"Ề":{"ha":1361,"x_min":11,"x_max":1513,"o":"m 1129 -183 q 826 -108 1025 -183 l 522 8 q 196 -151 375 -151 q 78 -119 135 -151 q 11 -26 11 -83 q 82 78 11 43 q 214 104 136 104 q 419 63 286 104 q 461 126 436 85 q 521 228 486 168 q 596 392 596 364 q 592 402 596 392 q 581 432 588 413 q 567 497 567 469 q 582 536 567 536 q 625 493 603 536 q 655 619 643 538 q 672 821 667 701 q 483 838 563 838 q 356 824 406 838 q 219 656 219 783 q 357 439 219 538 q 364 432 364 436 q 358 428 364 428 q 350 431 356 428 q 165 682 165 536 q 233 814 165 767 q 379 865 289 854 q 457 869 415 869 q 556 865 501 869 q 674 850 610 860 q 675 877 675 864 q 675 904 675 890 q 674 914 675 910 l 674 924 q 676 932 674 932 l 681 929 q 690 849 690 901 q 787 833 731 843 q 913 808 843 822 q 1153 961 1032 961 q 1260 872 1260 961 q 1253 856 1260 856 q 1247 869 1247 856 q 1219 919 1247 900 q 1161 933 1196 933 q 974 797 1068 933 q 1195 758 1106 771 q 1333 746 1285 746 q 1432 760 1392 746 q 1493 824 1493 781 q 1488 845 1493 836 q 1482 857 1482 854 q 1486 861 1482 861 q 1505 837 1497 861 q 1513 799 1513 813 q 1351 699 1513 699 q 953 765 1251 699 q 890 647 935 736 q 772 410 844 558 q 947 429 828 429 q 1207 396 1111 429 q 1215 390 1215 394 q 1208 385 1215 385 q 1156 389 1192 385 q 1103 393 1121 393 q 992 389 1046 393 q 890 375 939 385 q 731 278 731 346 q 739 250 731 267 l 739 247 q 708 283 724 247 q 539 26 621 124 l 831 -60 q 994 -98 919 -86 q 1128 -110 1068 -110 q 1261 -86 1203 -110 q 1336 14 1336 -53 q 1293 135 1336 65 q 1250 206 1250 207 q 1251 207 1250 207 q 1268 197 1257 207 q 1358 18 1358 122 q 1288 -131 1358 -74 q 1129 -183 1222 -183 m 467 46 q 541 147 499 81 q 633 314 583 214 l 753 551 q 822 677 788 621 q 890 779 857 733 q 781 803 831 793 q 690 818 731 813 q 647 504 686 660 q 676 515 667 515 q 688 497 688 515 q 611 385 688 457 q 541 233 585 315 q 438 56 497 150 l 467 46 m 182 -122 q 335 -74 249 -122 q 406 -24 375 -50 q 457 29 438 1 l 425 40 q 414 28 421 35 q 397 11 407 21 q 288 -74 340 -46 q 283 -75 286 -75 q 282 -72 282 -75 q 293 -58 282 -67 l 353 -10 q 384 20 372 6 q 406 49 396 35 q 305 75 353 67 q 217 83 257 83 q 107 63 156 83 q 46 -21 46 35 q 92 -97 46 -69 q 182 -122 132 -122 m 1111 1029 q 1124 1041 1111 1032 q 1151 1061 1136 1050 q 1172 1076 1165 1072 q 1228 1112 1199 1094 q 1283 1141 1258 1129 q 1317 1153 1308 1153 q 1341 1140 1324 1153 q 1378 1110 1358 1128 q 1415 1075 1399 1092 q 1435 1053 1426 1064 q 1443 1036 1443 1043 q 1428 1035 1443 1028 q 1394 1053 1414 1042 q 1340 1085 1365 1069 q 1308 1104 1315 1100 q 1284 1094 1299 1100 q 1261 1085 1269 1088 l 1178 1053 q 1128 1033 1146 1040 q 1111 1029 1111 1025 m 1442 1174 q 1417 1182 1439 1174 q 1368 1200 1396 1190 q 1313 1222 1342 1211 q 1264 1242 1285 1233 q 1242 1249 1254 1246 q 1219 1256 1229 1253 q 1204 1268 1210 1258 q 1199 1288 1199 1278 q 1215 1307 1199 1307 q 1266 1288 1233 1307 q 1335 1249 1299 1269 q 1413 1204 1378 1226 q 1449 1178 1449 1182 q 1442 1174 1449 1174 z "},"Ể":{"ha":1361,"x_min":11,"x_max":1560,"o":"m 1129 -183 q 826 -108 1025 -183 l 522 8 q 196 -151 375 -151 q 78 -119 135 -151 q 11 -26 11 -83 q 82 78 11 43 q 214 104 136 104 q 419 63 286 104 q 461 126 436 85 q 521 228 486 168 q 596 392 596 364 q 592 402 596 392 q 581 432 588 413 q 567 497 567 469 q 582 536 567 536 q 625 493 603 536 q 655 619 643 538 q 672 821 667 701 q 483 838 563 838 q 356 824 406 838 q 219 656 219 783 q 357 439 219 538 q 364 432 364 436 q 358 428 364 428 q 350 431 356 428 q 165 682 165 536 q 233 814 165 767 q 379 865 289 854 q 457 869 415 869 q 556 865 501 869 q 674 850 610 860 q 675 877 675 864 q 675 904 675 890 q 674 914 675 910 l 674 924 q 676 932 674 932 l 681 929 q 690 849 690 901 q 787 833 731 843 q 913 808 843 822 q 1153 961 1032 961 q 1260 872 1260 961 q 1253 856 1260 856 q 1247 869 1247 856 q 1219 919 1247 900 q 1161 933 1196 933 q 974 797 1068 933 q 1195 758 1106 771 q 1333 746 1285 746 q 1432 760 1392 746 q 1493 824 1493 781 q 1488 845 1493 836 q 1482 857 1482 854 q 1486 861 1482 861 q 1505 837 1497 861 q 1513 799 1513 813 q 1351 699 1513 699 q 953 765 1251 699 q 890 647 935 736 q 772 410 844 558 q 947 429 828 429 q 1207 396 1111 429 q 1215 390 1215 394 q 1208 385 1215 385 q 1156 389 1192 385 q 1103 393 1121 393 q 992 389 1046 393 q 890 375 939 385 q 731 278 731 346 q 739 250 731 267 l 739 247 q 708 283 724 247 q 539 26 621 124 l 831 -60 q 994 -98 919 -86 q 1128 -110 1068 -110 q 1261 -86 1203 -110 q 1336 14 1336 -53 q 1293 135 1336 65 q 1250 206 1250 207 q 1251 207 1250 207 q 1268 197 1257 207 q 1358 18 1358 122 q 1288 -131 1358 -74 q 1129 -183 1222 -183 m 467 46 q 541 147 499 81 q 633 314 583 214 l 753 551 q 822 677 788 621 q 890 779 857 733 q 781 803 831 793 q 690 818 731 813 q 647 504 686 660 q 676 515 667 515 q 688 497 688 515 q 611 385 688 457 q 541 233 585 315 q 438 56 497 150 l 467 46 m 182 -122 q 335 -74 249 -122 q 406 -24 375 -50 q 457 29 438 1 l 425 40 q 414 28 421 35 q 397 11 407 21 q 288 -74 340 -46 q 283 -75 286 -75 q 282 -72 282 -75 q 293 -58 282 -67 l 353 -10 q 384 20 372 6 q 406 49 396 35 q 305 75 353 67 q 217 83 257 83 q 107 63 156 83 q 46 -21 46 35 q 92 -97 46 -69 q 182 -122 132 -122 m 1111 1029 q 1124 1041 1111 1032 q 1151 1061 1136 1050 q 1172 1076 1165 1072 q 1228 1112 1199 1094 q 1283 1141 1258 1129 q 1317 1153 1308 1153 q 1341 1140 1324 1153 q 1378 1110 1358 1128 q 1415 1075 1399 1092 q 1435 1053 1426 1064 q 1443 1036 1443 1043 q 1428 1035 1443 1028 q 1394 1053 1414 1042 q 1340 1085 1365 1069 q 1308 1104 1315 1100 q 1284 1094 1299 1100 q 1261 1085 1269 1088 l 1178 1053 q 1128 1033 1146 1040 q 1111 1029 1111 1025 m 1433 1136 q 1428 1140 1428 1136 q 1433 1150 1428 1142 q 1485 1203 1471 1182 q 1500 1243 1500 1225 q 1469 1267 1500 1267 q 1440 1262 1451 1267 q 1417 1249 1428 1257 q 1407 1244 1413 1244 q 1400 1249 1400 1244 q 1427 1281 1400 1263 q 1489 1299 1454 1299 q 1540 1288 1519 1299 q 1557 1254 1560 1276 q 1523 1195 1550 1221 q 1451 1142 1496 1169 q 1433 1136 1442 1136 z "},"Ễ":{"ha":1361,"x_min":11,"x_max":1533,"o":"m 1129 -183 q 826 -108 1025 -183 l 522 8 q 196 -151 375 -151 q 78 -119 135 -151 q 11 -26 11 -83 q 82 78 11 43 q 214 104 136 104 q 419 63 286 104 q 461 126 436 85 q 521 228 486 168 q 596 392 596 364 q 592 402 596 392 q 581 432 588 413 q 567 497 567 469 q 582 536 567 536 q 625 493 603 536 q 655 619 643 538 q 672 821 667 701 q 483 838 563 838 q 356 824 406 838 q 219 656 219 783 q 357 439 219 538 q 364 432 364 436 q 358 428 364 428 q 350 431 356 428 q 165 682 165 536 q 233 814 165 767 q 379 865 289 854 q 457 869 415 869 q 556 865 501 869 q 674 850 610 860 q 675 877 675 864 q 675 904 675 890 q 674 914 675 910 l 674 924 q 676 932 674 932 l 681 929 q 690 849 690 901 q 787 833 731 843 q 913 808 843 822 q 1153 961 1032 961 q 1260 872 1260 961 q 1253 856 1260 856 q 1247 869 1247 856 q 1219 919 1247 900 q 1161 933 1196 933 q 974 797 1068 933 q 1195 758 1106 771 q 1333 746 1285 746 q 1432 760 1392 746 q 1493 824 1493 781 q 1488 845 1493 836 q 1482 857 1482 854 q 1486 861 1482 861 q 1505 837 1497 861 q 1513 799 1513 813 q 1351 699 1513 699 q 953 765 1251 699 q 890 647 935 736 q 772 410 844 558 q 947 429 828 429 q 1207 396 1111 429 q 1215 390 1215 394 q 1208 385 1215 385 q 1156 389 1192 385 q 1103 393 1121 393 q 992 389 1046 393 q 890 375 939 385 q 731 278 731 346 q 739 250 731 267 l 739 247 q 708 283 724 247 q 539 26 621 124 l 831 -60 q 994 -98 919 -86 q 1128 -110 1068 -110 q 1261 -86 1203 -110 q 1336 14 1336 -53 q 1293 135 1336 65 q 1250 206 1250 207 q 1251 207 1250 207 q 1268 197 1257 207 q 1358 18 1358 122 q 1288 -131 1358 -74 q 1129 -183 1222 -183 m 467 46 q 541 147 499 81 q 633 314 583 214 l 753 551 q 822 677 788 621 q 890 779 857 733 q 781 803 831 793 q 690 818 731 813 q 647 504 686 660 q 676 515 667 515 q 688 497 688 515 q 611 385 688 457 q 541 233 585 315 q 438 56 497 150 l 467 46 m 182 -122 q 335 -74 249 -122 q 406 -24 375 -50 q 457 29 438 1 l 425 40 q 414 28 421 35 q 397 11 407 21 q 288 -74 340 -46 q 283 -75 286 -75 q 282 -72 282 -75 q 293 -58 282 -67 l 353 -10 q 384 20 372 6 q 406 49 396 35 q 305 75 353 67 q 217 83 257 83 q 107 63 156 83 q 46 -21 46 35 q 92 -97 46 -69 q 182 -122 132 -122 m 1111 1029 q 1124 1041 1111 1032 q 1151 1061 1136 1050 q 1172 1076 1165 1072 q 1228 1112 1199 1094 q 1283 1141 1258 1129 q 1317 1153 1308 1153 q 1341 1140 1324 1153 q 1378 1110 1358 1128 q 1415 1075 1399 1092 q 1435 1053 1426 1064 q 1443 1036 1443 1043 q 1428 1035 1443 1028 q 1394 1053 1414 1042 q 1340 1085 1365 1069 q 1308 1104 1315 1100 q 1284 1094 1299 1100 q 1261 1085 1269 1088 l 1178 1053 q 1128 1033 1146 1040 q 1111 1029 1111 1025 m 1206 1179 q 1199 1190 1196 1179 q 1236 1248 1206 1221 q 1300 1275 1267 1275 q 1357 1265 1332 1275 q 1406 1243 1382 1254 q 1456 1232 1429 1232 q 1495 1244 1479 1232 q 1515 1278 1511 1257 q 1524 1286 1518 1286 q 1531 1274 1533 1286 q 1497 1213 1524 1240 q 1435 1186 1471 1186 q 1386 1197 1413 1186 q 1335 1219 1360 1208 q 1292 1231 1310 1231 q 1239 1215 1256 1231 q 1218 1193 1222 1200 q 1206 1179 1210 1179 z "},"Ȅ":{"ha":1361,"x_min":11,"x_max":1513,"o":"m 1129 -183 q 826 -108 1025 -183 l 522 8 q 196 -151 375 -151 q 78 -119 135 -151 q 11 -26 11 -83 q 82 78 11 43 q 214 104 136 104 q 419 63 286 104 q 461 126 436 85 q 521 228 486 168 q 596 392 596 364 q 592 402 596 392 q 581 432 588 413 q 567 497 567 469 q 582 536 567 536 q 625 493 603 536 q 655 619 643 538 q 672 821 667 701 q 483 838 563 838 q 356 824 406 838 q 219 656 219 783 q 357 439 219 538 q 364 432 364 436 q 358 428 364 428 q 350 431 356 428 q 165 682 165 536 q 233 814 165 767 q 379 865 289 854 q 457 869 415 869 q 556 865 501 869 q 674 850 610 860 q 675 877 675 864 q 675 904 675 890 q 674 914 675 910 l 674 924 q 676 932 674 932 l 681 929 q 690 849 690 901 q 787 833 731 843 q 913 808 843 822 q 1153 961 1032 961 q 1260 872 1260 961 q 1253 856 1260 856 q 1247 869 1247 856 q 1219 919 1247 900 q 1161 933 1196 933 q 974 797 1068 933 q 1195 758 1106 771 q 1333 746 1285 746 q 1432 760 1392 746 q 1493 824 1493 781 q 1488 845 1493 836 q 1482 857 1482 854 q 1486 861 1482 861 q 1505 837 1497 861 q 1513 799 1513 813 q 1351 699 1513 699 q 953 765 1251 699 q 890 647 935 736 q 772 410 844 558 q 947 429 828 429 q 1207 396 1111 429 q 1215 390 1215 394 q 1208 385 1215 385 q 1156 389 1192 385 q 1103 393 1121 393 q 992 389 1046 393 q 890 375 939 385 q 731 278 731 346 q 739 250 731 267 l 739 247 q 708 283 724 247 q 539 26 621 124 l 831 -60 q 994 -98 919 -86 q 1128 -110 1068 -110 q 1261 -86 1203 -110 q 1336 14 1336 -53 q 1293 135 1336 65 q 1250 206 1250 207 q 1251 207 1250 207 q 1268 197 1257 207 q 1358 18 1358 122 q 1288 -131 1358 -74 q 1129 -183 1222 -183 m 467 46 q 541 147 499 81 q 633 314 583 214 l 753 551 q 822 677 788 621 q 890 779 857 733 q 781 803 831 793 q 690 818 731 813 q 647 504 686 660 q 676 515 667 515 q 688 497 688 515 q 611 385 688 457 q 541 233 585 315 q 438 56 497 150 l 467 46 m 182 -122 q 335 -74 249 -122 q 406 -24 375 -50 q 457 29 438 1 l 425 40 q 414 28 421 35 q 397 11 407 21 q 288 -74 340 -46 q 283 -75 286 -75 q 282 -72 282 -75 q 293 -58 282 -67 l 353 -10 q 384 20 372 6 q 406 49 396 35 q 305 75 353 67 q 217 83 257 83 q 107 63 156 83 q 46 -21 46 35 q 92 -97 46 -69 q 182 -122 132 -122 m 1301 1028 q 1276 1040 1293 1029 q 1238 1068 1260 1051 q 1203 1091 1219 1081 q 1168 1114 1188 1101 q 1148 1126 1160 1121 q 1128 1136 1136 1131 q 1114 1172 1108 1149 q 1129 1190 1119 1188 q 1149 1178 1133 1192 q 1187 1147 1165 1165 q 1227 1110 1208 1128 q 1256 1085 1246 1093 q 1290 1053 1271 1072 q 1308 1031 1310 1033 q 1301 1028 1308 1025 m 1200 1028 q 1173 1035 1192 1028 q 1129 1054 1154 1043 q 1091 1069 1108 1063 q 1053 1085 1074 1076 q 1031 1092 1043 1089 q 1008 1099 1018 1096 q 993 1112 999 1103 q 988 1131 988 1121 q 999 1151 988 1146 q 1020 1144 1001 1153 q 1064 1121 1039 1135 q 1111 1094 1089 1107 q 1144 1075 1133 1082 q 1184 1050 1161 1065 q 1207 1032 1207 1035 q 1200 1028 1207 1028 z "},"Ë":{"ha":1361,"x_min":11,"x_max":1513,"o":"m 1129 -183 q 826 -108 1025 -183 l 522 8 q 196 -151 375 -151 q 78 -119 135 -151 q 11 -26 11 -83 q 82 78 11 43 q 214 104 136 104 q 419 63 286 104 q 461 126 436 85 q 521 228 486 168 q 596 392 596 364 q 592 402 596 392 q 581 432 588 413 q 567 497 567 469 q 582 536 567 536 q 625 493 603 536 q 655 619 643 538 q 672 821 667 701 q 483 838 563 838 q 356 824 406 838 q 219 656 219 783 q 357 439 219 538 q 364 432 364 436 q 358 428 364 428 q 350 431 356 428 q 165 682 165 536 q 233 814 165 767 q 379 865 289 854 q 457 869 415 869 q 556 865 501 869 q 674 850 610 860 q 675 877 675 864 q 675 904 675 890 q 674 914 675 910 l 674 924 q 676 932 674 932 l 681 929 q 690 849 690 901 q 787 833 731 843 q 913 808 843 822 q 1153 961 1032 961 q 1260 872 1260 961 q 1253 856 1260 856 q 1247 869 1247 856 q 1219 919 1247 900 q 1161 933 1196 933 q 974 797 1068 933 q 1195 758 1106 771 q 1333 746 1285 746 q 1432 760 1392 746 q 1493 824 1493 781 q 1488 845 1493 836 q 1482 857 1482 854 q 1486 861 1482 861 q 1505 837 1497 861 q 1513 799 1513 813 q 1351 699 1513 699 q 953 765 1251 699 q 890 647 935 736 q 772 410 844 558 q 947 429 828 429 q 1207 396 1111 429 q 1215 390 1215 394 q 1208 385 1215 385 q 1156 389 1192 385 q 1103 393 1121 393 q 992 389 1046 393 q 890 375 939 385 q 731 278 731 346 q 739 250 731 267 l 739 247 q 708 283 724 247 q 539 26 621 124 l 831 -60 q 994 -98 919 -86 q 1128 -110 1068 -110 q 1261 -86 1203 -110 q 1336 14 1336 -53 q 1293 135 1336 65 q 1250 206 1250 207 q 1251 207 1250 207 q 1268 197 1257 207 q 1358 18 1358 122 q 1288 -131 1358 -74 q 1129 -183 1222 -183 m 467 46 q 541 147 499 81 q 633 314 583 214 l 753 551 q 822 677 788 621 q 890 779 857 733 q 781 803 831 793 q 690 818 731 813 q 647 504 686 660 q 676 515 667 515 q 688 497 688 515 q 611 385 688 457 q 541 233 585 315 q 438 56 497 150 l 467 46 m 182 -122 q 335 -74 249 -122 q 406 -24 375 -50 q 457 29 438 1 l 425 40 q 414 28 421 35 q 397 11 407 21 q 288 -74 340 -46 q 283 -75 286 -75 q 282 -72 282 -75 q 293 -58 282 -67 l 353 -10 q 384 20 372 6 q 406 49 396 35 q 305 75 353 67 q 217 83 257 83 q 107 63 156 83 q 46 -21 46 35 q 92 -97 46 -69 q 182 -122 132 -122 m 1353 1028 q 1338 1039 1344 1028 q 1329 1063 1329 1054 q 1350 1090 1329 1081 q 1382 1111 1356 1099 q 1418 1125 1406 1125 q 1421 1124 1421 1125 l 1421 1122 q 1419 1120 1421 1122 q 1413 1113 1417 1118 l 1403 1103 q 1394 1087 1397 1097 q 1388 1064 1392 1076 q 1353 1028 1375 1028 m 1214 1028 q 1199 1039 1207 1028 q 1192 1052 1193 1046 q 1190 1063 1190 1058 q 1211 1090 1190 1082 q 1242 1111 1218 1099 q 1278 1125 1268 1125 q 1282 1124 1281 1125 l 1282 1122 q 1280 1119 1282 1122 q 1274 1113 1278 1117 q 1267 1106 1268 1108 q 1264 1103 1265 1104 q 1256 1087 1258 1097 q 1249 1064 1253 1076 q 1214 1028 1236 1028 z "},"Ė":{"ha":1361,"x_min":11,"x_max":1513,"o":"m 1129 -183 q 826 -108 1025 -183 l 522 8 q 196 -151 375 -151 q 78 -119 135 -151 q 11 -26 11 -83 q 82 78 11 43 q 214 104 136 104 q 419 63 286 104 q 461 126 436 85 q 521 228 486 168 q 596 392 596 364 q 592 402 596 392 q 581 432 588 413 q 567 497 567 469 q 582 536 567 536 q 625 493 603 536 q 655 619 643 538 q 672 821 667 701 q 483 838 563 838 q 356 824 406 838 q 219 656 219 783 q 357 439 219 538 q 364 432 364 436 q 358 428 364 428 q 350 431 356 428 q 165 682 165 536 q 233 814 165 767 q 379 865 289 854 q 457 869 415 869 q 556 865 501 869 q 674 850 610 860 q 675 877 675 864 q 675 904 675 890 q 674 914 675 910 l 674 924 q 676 932 674 932 l 681 929 q 690 849 690 901 q 787 833 731 843 q 913 808 843 822 q 1153 961 1032 961 q 1260 872 1260 961 q 1253 856 1260 856 q 1247 869 1247 856 q 1219 919 1247 900 q 1161 933 1196 933 q 974 797 1068 933 q 1195 758 1106 771 q 1333 746 1285 746 q 1432 760 1392 746 q 1493 824 1493 781 q 1488 845 1493 836 q 1482 857 1482 854 q 1486 861 1482 861 q 1505 837 1497 861 q 1513 799 1513 813 q 1351 699 1513 699 q 953 765 1251 699 q 890 647 935 736 q 772 410 844 558 q 947 429 828 429 q 1207 396 1111 429 q 1215 390 1215 394 q 1208 385 1215 385 q 1156 389 1192 385 q 1103 393 1121 393 q 992 389 1046 393 q 890 375 939 385 q 731 278 731 346 q 739 250 731 267 l 739 247 q 708 283 724 247 q 539 26 621 124 l 831 -60 q 994 -98 919 -86 q 1128 -110 1068 -110 q 1261 -86 1203 -110 q 1336 14 1336 -53 q 1293 135 1336 65 q 1250 206 1250 207 q 1251 207 1250 207 q 1268 197 1257 207 q 1358 18 1358 122 q 1288 -131 1358 -74 q 1129 -183 1222 -183 m 467 46 q 541 147 499 81 q 633 314 583 214 l 753 551 q 822 677 788 621 q 890 779 857 733 q 781 803 831 793 q 690 818 731 813 q 647 504 686 660 q 676 515 667 515 q 688 497 688 515 q 611 385 688 457 q 541 233 585 315 q 438 56 497 150 l 467 46 m 182 -122 q 335 -74 249 -122 q 406 -24 375 -50 q 457 29 438 1 l 425 40 q 414 28 421 35 q 397 11 407 21 q 288 -74 340 -46 q 283 -75 286 -75 q 282 -72 282 -75 q 293 -58 282 -67 l 353 -10 q 384 20 372 6 q 406 49 396 35 q 305 75 353 67 q 217 83 257 83 q 107 63 156 83 q 46 -21 46 35 q 92 -97 46 -69 q 182 -122 132 -122 m 1278 1018 q 1258 1035 1269 1018 q 1251 1061 1251 1047 q 1275 1092 1251 1086 q 1326 1135 1314 1135 q 1332 1124 1332 1135 q 1318 1063 1332 1110 q 1278 1018 1303 1018 z "},"Ẹ":{"ha":1361,"x_min":11,"x_max":1513,"o":"m 1129 -183 q 826 -108 1025 -183 l 522 8 q 196 -151 375 -151 q 78 -119 135 -151 q 11 -26 11 -83 q 82 78 11 43 q 214 104 136 104 q 419 63 286 104 q 461 126 436 85 q 521 228 486 168 q 596 392 596 364 q 592 402 596 392 q 581 432 588 413 q 567 497 567 469 q 582 536 567 536 q 625 493 603 536 q 655 619 643 538 q 672 821 667 701 q 483 838 563 838 q 356 824 406 838 q 219 656 219 783 q 357 439 219 538 q 364 432 364 436 q 358 428 364 428 q 350 431 356 428 q 165 682 165 536 q 233 814 165 767 q 379 865 289 854 q 457 869 415 869 q 556 865 501 869 q 674 850 610 860 q 675 877 675 864 q 675 904 675 890 q 674 914 675 910 l 674 924 q 676 932 674 932 l 681 929 q 690 849 690 901 q 787 833 731 843 q 913 808 843 822 q 1153 961 1032 961 q 1260 872 1260 961 q 1253 856 1260 856 q 1247 869 1247 856 q 1219 919 1247 900 q 1161 933 1196 933 q 974 797 1068 933 q 1195 758 1106 771 q 1333 746 1285 746 q 1432 760 1392 746 q 1493 824 1493 781 q 1488 845 1493 836 q 1482 857 1482 854 q 1486 861 1482 861 q 1505 837 1497 861 q 1513 799 1513 813 q 1351 699 1513 699 q 953 765 1251 699 q 890 647 935 736 q 772 410 844 558 q 947 429 828 429 q 1207 396 1111 429 q 1215 390 1215 394 q 1208 385 1215 385 q 1156 389 1192 385 q 1103 393 1121 393 q 992 389 1046 393 q 890 375 939 385 q 731 278 731 346 q 739 250 731 267 l 739 247 q 708 283 724 247 q 539 26 621 124 l 831 -60 q 994 -98 919 -86 q 1128 -110 1068 -110 q 1261 -86 1203 -110 q 1336 14 1336 -53 q 1293 135 1336 65 q 1250 206 1250 207 q 1251 207 1250 207 q 1268 197 1257 207 q 1358 18 1358 122 q 1288 -131 1358 -74 q 1129 -183 1222 -183 m 467 46 q 541 147 499 81 q 633 314 583 214 l 753 551 q 822 677 788 621 q 890 779 857 733 q 781 803 831 793 q 690 818 731 813 q 647 504 686 660 q 676 515 667 515 q 688 497 688 515 q 611 385 688 457 q 541 233 585 315 q 438 56 497 150 l 467 46 m 182 -122 q 335 -74 249 -122 q 406 -24 375 -50 q 457 29 438 1 l 425 40 q 414 28 421 35 q 397 11 407 21 q 288 -74 340 -46 q 283 -75 286 -75 q 282 -72 282 -75 q 293 -58 282 -67 l 353 -10 q 384 20 372 6 q 406 49 396 35 q 305 75 353 67 q 217 83 257 83 q 107 63 156 83 q 46 -21 46 35 q 92 -97 46 -69 q 182 -122 132 -122 m 739 -322 q 719 -306 731 -322 q 713 -279 713 -293 q 736 -249 713 -254 q 788 -206 775 -206 q 793 -217 793 -206 q 779 -278 793 -231 q 739 -322 764 -322 z "},"È":{"ha":1361,"x_min":11,"x_max":1513,"o":"m 1129 -183 q 826 -108 1025 -183 l 522 8 q 196 -151 375 -151 q 78 -119 135 -151 q 11 -26 11 -83 q 82 78 11 43 q 214 104 136 104 q 419 63 286 104 q 461 126 436 85 q 521 228 486 168 q 596 392 596 364 q 592 402 596 392 q 581 432 588 413 q 567 497 567 469 q 582 536 567 536 q 625 493 603 536 q 655 619 643 538 q 672 821 667 701 q 483 838 563 838 q 356 824 406 838 q 219 656 219 783 q 357 439 219 538 q 364 432 364 436 q 358 428 364 428 q 350 431 356 428 q 165 682 165 536 q 233 814 165 767 q 379 865 289 854 q 457 869 415 869 q 556 865 501 869 q 674 850 610 860 q 675 877 675 864 q 675 904 675 890 q 674 914 675 910 l 674 924 q 676 932 674 932 l 681 929 q 690 849 690 901 q 787 833 731 843 q 913 808 843 822 q 1153 961 1032 961 q 1260 872 1260 961 q 1253 856 1260 856 q 1247 869 1247 856 q 1219 919 1247 900 q 1161 933 1196 933 q 974 797 1068 933 q 1195 758 1106 771 q 1333 746 1285 746 q 1432 760 1392 746 q 1493 824 1493 781 q 1488 845 1493 836 q 1482 857 1482 854 q 1486 861 1482 861 q 1505 837 1497 861 q 1513 799 1513 813 q 1351 699 1513 699 q 953 765 1251 699 q 890 647 935 736 q 772 410 844 558 q 947 429 828 429 q 1207 396 1111 429 q 1215 390 1215 394 q 1208 385 1215 385 q 1156 389 1192 385 q 1103 393 1121 393 q 992 389 1046 393 q 890 375 939 385 q 731 278 731 346 q 739 250 731 267 l 739 247 q 708 283 724 247 q 539 26 621 124 l 831 -60 q 994 -98 919 -86 q 1128 -110 1068 -110 q 1261 -86 1203 -110 q 1336 14 1336 -53 q 1293 135 1336 65 q 1250 206 1250 207 q 1251 207 1250 207 q 1268 197 1257 207 q 1358 18 1358 122 q 1288 -131 1358 -74 q 1129 -183 1222 -183 m 467 46 q 541 147 499 81 q 633 314 583 214 l 753 551 q 822 677 788 621 q 890 779 857 733 q 781 803 831 793 q 690 818 731 813 q 647 504 686 660 q 676 515 667 515 q 688 497 688 515 q 611 385 688 457 q 541 233 585 315 q 438 56 497 150 l 467 46 m 182 -122 q 335 -74 249 -122 q 406 -24 375 -50 q 457 29 438 1 l 425 40 q 414 28 421 35 q 397 11 407 21 q 288 -74 340 -46 q 283 -75 286 -75 q 282 -72 282 -75 q 293 -58 282 -67 l 353 -10 q 384 20 372 6 q 406 49 396 35 q 305 75 353 67 q 217 83 257 83 q 107 63 156 83 q 46 -21 46 35 q 92 -97 46 -69 q 182 -122 132 -122 m 1301 1028 q 1277 1036 1299 1028 q 1228 1054 1256 1044 q 1173 1076 1201 1065 q 1124 1096 1144 1088 q 1101 1103 1114 1100 q 1079 1110 1089 1107 q 1064 1122 1069 1113 q 1058 1142 1058 1132 q 1075 1161 1058 1161 q 1126 1142 1093 1161 q 1194 1103 1158 1124 q 1273 1058 1238 1081 q 1308 1032 1308 1036 q 1301 1028 1308 1028 z "},"Ẻ":{"ha":1361,"x_min":11,"x_max":1513,"o":"m 1129 -183 q 826 -108 1025 -183 l 522 8 q 196 -151 375 -151 q 78 -119 135 -151 q 11 -26 11 -83 q 82 78 11 43 q 214 104 136 104 q 419 63 286 104 q 461 126 436 85 q 521 228 486 168 q 596 392 596 364 q 592 402 596 392 q 581 432 588 413 q 567 497 567 469 q 582 536 567 536 q 625 493 603 536 q 655 619 643 538 q 672 821 667 701 q 483 838 563 838 q 356 824 406 838 q 219 656 219 783 q 357 439 219 538 q 364 432 364 436 q 358 428 364 428 q 350 431 356 428 q 165 682 165 536 q 233 814 165 767 q 379 865 289 854 q 457 869 415 869 q 556 865 501 869 q 674 850 610 860 q 675 877 675 864 q 675 904 675 890 q 674 914 675 910 l 674 924 q 676 932 674 932 l 681 929 q 690 849 690 901 q 787 833 731 843 q 913 808 843 822 q 1153 961 1032 961 q 1260 872 1260 961 q 1253 856 1260 856 q 1247 869 1247 856 q 1219 919 1247 900 q 1161 933 1196 933 q 974 797 1068 933 q 1195 758 1106 771 q 1333 746 1285 746 q 1432 760 1392 746 q 1493 824 1493 781 q 1488 845 1493 836 q 1482 857 1482 854 q 1486 861 1482 861 q 1505 837 1497 861 q 1513 799 1513 813 q 1351 699 1513 699 q 953 765 1251 699 q 890 647 935 736 q 772 410 844 558 q 947 429 828 429 q 1207 396 1111 429 q 1215 390 1215 394 q 1208 385 1215 385 q 1156 389 1192 385 q 1103 393 1121 393 q 992 389 1046 393 q 890 375 939 385 q 731 278 731 346 q 739 250 731 267 l 739 247 q 708 283 724 247 q 539 26 621 124 l 831 -60 q 994 -98 919 -86 q 1128 -110 1068 -110 q 1261 -86 1203 -110 q 1336 14 1336 -53 q 1293 135 1336 65 q 1250 206 1250 207 q 1251 207 1250 207 q 1268 197 1257 207 q 1358 18 1358 122 q 1288 -131 1358 -74 q 1129 -183 1222 -183 m 467 46 q 541 147 499 81 q 633 314 583 214 l 753 551 q 822 677 788 621 q 890 779 857 733 q 781 803 831 793 q 690 818 731 813 q 647 504 686 660 q 676 515 667 515 q 688 497 688 515 q 611 385 688 457 q 541 233 585 315 q 438 56 497 150 l 467 46 m 182 -122 q 335 -74 249 -122 q 406 -24 375 -50 q 457 29 438 1 l 425 40 q 414 28 421 35 q 397 11 407 21 q 288 -74 340 -46 q 283 -75 286 -75 q 282 -72 282 -75 q 293 -58 282 -67 l 353 -10 q 384 20 372 6 q 406 49 396 35 q 305 75 353 67 q 217 83 257 83 q 107 63 156 83 q 46 -21 46 35 q 92 -97 46 -69 q 182 -122 132 -122 m 1286 1022 q 1281 1026 1281 1022 q 1286 1036 1281 1028 q 1338 1090 1324 1068 q 1353 1129 1353 1111 q 1322 1153 1353 1153 q 1292 1148 1304 1153 q 1269 1135 1281 1143 q 1260 1131 1265 1131 q 1253 1135 1253 1131 q 1280 1167 1253 1149 q 1342 1185 1307 1185 q 1392 1174 1372 1185 q 1410 1140 1413 1163 q 1376 1081 1403 1107 q 1304 1028 1349 1056 q 1286 1022 1294 1022 z "},"Ȇ":{"ha":1361,"x_min":11,"x_max":1513,"o":"m 1363 1151 q 1467 1069 1467 1151 q 1456 1038 1467 1051 q 1431 1024 1446 1024 q 1425 1032 1425 1024 q 1426 1044 1425 1038 q 1428 1056 1428 1050 q 1408 1097 1428 1081 q 1349 1113 1388 1113 q 1269 1101 1307 1113 q 1199 1054 1231 1089 q 1182 1031 1186 1040 q 1175 1022 1178 1022 q 1172 1033 1168 1022 q 1216 1101 1185 1075 q 1287 1140 1247 1128 q 1363 1151 1326 1151 m 1129 -183 q 826 -108 1025 -183 l 522 8 q 196 -151 375 -151 q 78 -119 135 -151 q 11 -26 11 -83 q 82 78 11 43 q 214 104 136 104 q 419 63 286 104 q 461 126 436 85 q 521 228 486 168 q 596 392 596 364 q 592 402 596 392 q 581 432 588 413 q 567 497 567 469 q 582 536 567 536 q 625 493 603 536 q 655 619 643 538 q 672 821 667 701 q 483 838 563 838 q 356 824 406 838 q 219 656 219 783 q 357 439 219 538 q 364 432 364 436 q 358 428 364 428 q 350 431 356 428 q 165 682 165 536 q 233 814 165 767 q 379 865 289 854 q 457 869 415 869 q 556 865 501 869 q 674 850 610 860 q 675 877 675 864 q 675 904 675 890 q 674 914 675 910 l 674 924 q 676 932 674 932 l 681 929 q 690 849 690 901 q 787 833 731 843 q 913 808 843 822 q 1153 961 1032 961 q 1260 872 1260 961 q 1253 856 1260 856 q 1247 869 1247 856 q 1219 919 1247 900 q 1161 933 1196 933 q 974 797 1068 933 q 1195 758 1106 771 q 1333 746 1285 746 q 1432 760 1392 746 q 1493 824 1493 781 q 1488 845 1493 836 q 1482 857 1482 854 q 1486 861 1482 861 q 1505 837 1497 861 q 1513 799 1513 813 q 1351 699 1513 699 q 953 765 1251 699 q 890 647 935 736 q 772 410 844 558 q 947 429 828 429 q 1207 396 1111 429 q 1215 390 1215 394 q 1208 385 1215 385 q 1156 389 1192 385 q 1103 393 1121 393 q 992 389 1046 393 q 890 375 939 385 q 731 278 731 346 q 739 250 731 267 l 739 247 q 708 283 724 247 q 539 26 621 124 l 831 -60 q 994 -98 919 -86 q 1128 -110 1068 -110 q 1261 -86 1203 -110 q 1336 14 1336 -53 q 1293 135 1336 65 q 1250 206 1250 207 q 1251 207 1250 207 q 1268 197 1257 207 q 1358 18 1358 122 q 1288 -131 1358 -74 q 1129 -183 1222 -183 m 467 46 q 541 147 499 81 q 633 314 583 214 l 753 551 q 822 677 788 621 q 890 779 857 733 q 781 803 831 793 q 690 818 731 813 q 647 504 686 660 q 676 515 667 515 q 688 497 688 515 q 611 385 688 457 q 541 233 585 315 q 438 56 497 150 l 467 46 m 182 -122 q 335 -74 249 -122 q 406 -24 375 -50 q 457 29 438 1 l 425 40 q 414 28 421 35 q 397 11 407 21 q 288 -74 340 -46 q 283 -75 286 -75 q 282 -72 282 -75 q 293 -58 282 -67 l 353 -10 q 384 20 372 6 q 406 49 396 35 q 305 75 353 67 q 217 83 257 83 q 107 63 156 83 q 46 -21 46 35 q 92 -97 46 -69 q 182 -122 132 -122 z "},"Ē":{"ha":1361,"x_min":11,"x_max":1513,"o":"m 1129 -183 q 826 -108 1025 -183 l 522 8 q 196 -151 375 -151 q 78 -119 135 -151 q 11 -26 11 -83 q 82 78 11 43 q 214 104 136 104 q 419 63 286 104 q 461 126 436 85 q 521 228 486 168 q 596 392 596 364 q 592 402 596 392 q 581 432 588 413 q 567 497 567 469 q 582 536 567 536 q 625 493 603 536 q 655 619 643 538 q 672 821 667 701 q 483 838 563 838 q 356 824 406 838 q 219 656 219 783 q 357 439 219 538 q 364 432 364 436 q 358 428 364 428 q 350 431 356 428 q 165 682 165 536 q 233 814 165 767 q 379 865 289 854 q 457 869 415 869 q 556 865 501 869 q 674 850 610 860 q 675 877 675 864 q 675 904 675 890 q 674 914 675 910 l 674 924 q 676 932 674 932 l 681 929 q 690 849 690 901 q 787 833 731 843 q 913 808 843 822 q 1153 961 1032 961 q 1260 872 1260 961 q 1253 856 1260 856 q 1247 869 1247 856 q 1219 919 1247 900 q 1161 933 1196 933 q 974 797 1068 933 q 1195 758 1106 771 q 1333 746 1285 746 q 1432 760 1392 746 q 1493 824 1493 781 q 1488 845 1493 836 q 1482 857 1482 854 q 1486 861 1482 861 q 1505 837 1497 861 q 1513 799 1513 813 q 1351 699 1513 699 q 953 765 1251 699 q 890 647 935 736 q 772 410 844 558 q 947 429 828 429 q 1207 396 1111 429 q 1215 390 1215 394 q 1208 385 1215 385 q 1156 389 1192 385 q 1103 393 1121 393 q 992 389 1046 393 q 890 375 939 385 q 731 278 731 346 q 739 250 731 267 l 739 247 q 708 283 724 247 q 539 26 621 124 l 831 -60 q 994 -98 919 -86 q 1128 -110 1068 -110 q 1261 -86 1203 -110 q 1336 14 1336 -53 q 1293 135 1336 65 q 1250 206 1250 207 q 1251 207 1250 207 q 1268 197 1257 207 q 1358 18 1358 122 q 1288 -131 1358 -74 q 1129 -183 1222 -183 m 467 46 q 541 147 499 81 q 633 314 583 214 l 753 551 q 822 677 788 621 q 890 779 857 733 q 781 803 831 793 q 690 818 731 813 q 647 504 686 660 q 676 515 667 515 q 688 497 688 515 q 611 385 688 457 q 541 233 585 315 q 438 56 497 150 l 467 46 m 182 -122 q 335 -74 249 -122 q 406 -24 375 -50 q 457 29 438 1 l 425 40 q 414 28 421 35 q 397 11 407 21 q 288 -74 340 -46 q 283 -75 286 -75 q 282 -72 282 -75 q 293 -58 282 -67 l 353 -10 q 384 20 372 6 q 406 49 396 35 q 305 75 353 67 q 217 83 257 83 q 107 63 156 83 q 46 -21 46 35 q 92 -97 46 -69 q 182 -122 132 -122 m 1125 1026 q 1110 1038 1117 1026 q 1104 1061 1104 1049 l 1104 1063 q 1167 1068 1121 1068 q 1199 1068 1182 1068 q 1235 1067 1215 1068 q 1305 1063 1276 1065 q 1358 1056 1333 1060 q 1414 1047 1383 1053 q 1419 1042 1419 1047 q 1410 1032 1419 1032 q 1375 1031 1403 1032 q 1308 1030 1347 1031 q 1231 1028 1269 1029 q 1163 1027 1192 1028 q 1125 1026 1133 1026 z "},"Ŋ":{"ha":1328,"x_min":3,"x_max":1669,"o":"m 660 -478 q 585 -435 603 -478 q 579 -400 579 -422 q 602 -315 579 -362 q 675 -222 625 -268 q 685 -213 678 -217 q 694 -208 692 -210 q 700 -207 697 -207 q 703 -210 703 -207 q 685 -237 703 -215 q 640 -310 656 -272 q 624 -379 624 -349 q 638 -424 624 -406 q 678 -442 651 -442 q 731 -428 701 -442 q 809 -371 772 -410 q 876 -285 846 -332 q 929 -191 907 -237 q 965 -110 951 -144 q 992 -49 978 -83 q 1019 22 1007 -15 l 996 54 q 903 349 932 156 q 892 449 900 371 q 871 661 883 526 q 719 267 838 463 q 447 -57 601 67 q 124 -186 288 -186 q 36 -155 69 -186 q 3 -71 3 -124 q 49 53 3 -7 q 56 58 53 58 q 60 51 60 58 l 44 15 q 31 -50 31 -18 q 58 -130 31 -96 q 131 -164 86 -164 q 479 7 304 -164 q 739 386 632 158 q 840 768 840 603 q 840 781 840 775 q 839 793 840 788 q 769 774 814 782 q 682 490 740 639 q 697 494 690 494 q 711 479 711 494 q 683 417 711 451 q 628 365 656 383 q 456 71 543 185 q 281 -92 369 -43 q 200 -117 238 -117 q 186 -107 186 -117 q 201 -97 186 -99 q 250 -85 215 -94 q 463 110 349 -46 q 540 231 503 167 q 611 365 578 294 q 578 458 578 410 q 606 511 578 511 q 643 464 629 511 l 661 478 q 713 625 690 551 q 750 771 735 699 l 571 750 q 431 732 489 740 q 338 714 372 724 q 172 586 172 669 q 238 456 172 521 q 365 381 296 400 q 374 376 374 379 q 363 371 374 371 q 215 438 282 371 q 149 586 149 507 q 278 733 149 674 q 542 807 374 778 q 652 822 597 814 q 763 839 707 831 q 775 1046 775 925 q 783 1057 775 1057 q 789 1050 786 1057 q 791 1018 790 1036 q 792 979 792 1000 q 789 913 792 947 q 781 842 786 878 q 815 849 800 844 q 840 856 831 853 q 860 867 847 867 q 878 838 876 867 q 883 797 879 818 q 893 735 886 776 l 919 592 q 981 315 949 432 q 1049 121 1014 197 q 1071 210 1056 147 q 1103 360 1086 272 q 1153 588 1128 489 q 1194 735 1178 688 q 1282 895 1231 838 q 1400 990 1333 953 q 1479 1013 1439 1013 q 1608 935 1546 1013 q 1669 796 1669 861 q 1665 790 1669 790 q 1657 801 1661 790 q 1603 899 1639 858 q 1503 942 1560 942 q 1440 926 1474 942 q 1228 665 1310 867 q 1191 534 1210 618 q 1143 326 1172 450 q 1131 275 1140 311 q 1110 194 1121 239 q 1089 113 1099 150 q 1075 60 1079 76 q 1076 63 1071 43 q 1128 -3 1096 24 q 1196 -31 1160 -31 q 1282 7 1235 -31 q 1326 44 1331 44 q 1329 40 1329 44 q 1321 25 1329 33 q 1156 -60 1238 -60 q 1058 -19 1100 -60 q 1025 -117 1040 -72 q 994 -197 1010 -162 q 949 -282 979 -233 q 870 -377 918 -331 q 754 -454 822 -424 q 703 -472 726 -467 q 660 -478 679 -478 z "},"Ę":{"ha":1361,"x_min":11,"x_max":1513,"o":"m 1129 -183 q 826 -108 1025 -183 l 522 8 q 196 -151 375 -151 q 78 -119 135 -151 q 11 -26 11 -83 q 82 78 11 43 q 214 104 136 104 q 419 63 286 104 q 461 126 436 85 q 521 228 486 168 q 596 392 596 364 q 592 402 596 392 q 581 432 588 413 q 567 497 567 469 q 582 536 567 536 q 625 493 603 536 q 655 619 643 538 q 672 821 667 701 q 483 838 563 838 q 356 824 406 838 q 219 656 219 783 q 357 439 219 538 q 364 432 364 436 q 358 428 364 428 q 350 431 356 428 q 165 682 165 536 q 233 814 165 767 q 379 865 289 854 q 457 869 415 869 q 556 865 501 869 q 674 850 610 860 q 675 877 675 864 q 675 904 675 890 q 674 914 675 910 l 674 924 q 676 932 674 932 l 681 929 q 690 849 690 901 q 787 833 731 843 q 913 808 843 822 q 1153 961 1032 961 q 1260 872 1260 961 q 1253 856 1260 856 q 1247 869 1247 856 q 1219 919 1247 900 q 1161 933 1196 933 q 974 797 1068 933 q 1195 758 1106 771 q 1333 746 1285 746 q 1432 760 1392 746 q 1493 824 1493 781 q 1488 845 1493 836 q 1482 857 1482 854 q 1486 861 1482 861 q 1505 837 1497 861 q 1513 799 1513 813 q 1351 699 1513 699 q 953 765 1251 699 q 890 647 935 736 q 772 410 844 558 q 947 429 828 429 q 1207 396 1111 429 q 1215 390 1215 394 q 1208 385 1215 385 q 1156 389 1192 385 q 1103 393 1121 393 q 992 389 1046 393 q 890 375 939 385 q 731 278 731 346 q 739 250 731 267 l 739 247 q 708 283 724 247 q 539 26 621 124 l 831 -60 q 994 -98 919 -86 q 1128 -110 1068 -110 q 1261 -86 1203 -110 q 1336 14 1336 -53 q 1293 135 1336 65 q 1250 206 1250 207 q 1251 207 1250 207 q 1268 197 1257 207 q 1358 18 1358 122 q 1288 -131 1358 -74 q 1129 -183 1222 -183 m 467 46 q 541 147 499 81 q 633 314 583 214 l 753 551 q 822 677 788 621 q 890 779 857 733 q 781 803 831 793 q 690 818 731 813 q 647 504 686 660 q 676 515 667 515 q 688 497 688 515 q 611 385 688 457 q 541 233 585 315 q 438 56 497 150 l 467 46 m 182 -122 q 335 -74 249 -122 q 406 -24 375 -50 q 457 29 438 1 l 425 40 q 414 28 421 35 q 397 11 407 21 q 288 -74 340 -46 q 283 -75 286 -75 q 282 -72 282 -75 q 293 -58 282 -67 l 353 -10 q 384 20 372 6 q 406 49 396 35 q 305 75 353 67 q 217 83 257 83 q 107 63 156 83 q 46 -21 46 35 q 92 -97 46 -69 q 182 -122 132 -122 m 1126 -399 q 1063 -379 1088 -399 q 1039 -318 1039 -360 q 1053 -254 1039 -292 q 1091 -188 1068 -217 q 1136 -158 1114 -160 l 1142 -162 q 1093 -296 1093 -235 q 1109 -346 1093 -326 q 1158 -365 1125 -365 q 1194 -360 1174 -365 q 1232 -340 1215 -354 q 1242 -335 1238 -336 q 1247 -340 1247 -333 q 1228 -366 1247 -353 q 1181 -389 1208 -379 q 1126 -399 1153 -399 z "},"Ð":{"ha":1365,"x_min":3,"x_max":1347,"o":"m 222 -117 q 195 -116 208 -117 q 168 -114 182 -115 q 60 -65 110 -107 q 3 36 3 -19 q 56 118 3 90 q 157 142 99 142 q 385 81 238 142 q 451 175 419 122 q 511 292 483 228 q 462 268 489 281 q 415 247 435 256 q 390 239 394 239 q 374 274 374 239 q 379 288 374 286 q 417 301 394 293 q 468 324 439 310 l 539 358 q 610 590 583 472 q 646 826 636 707 q 222 661 365 813 q 169 540 169 604 q 290 374 169 428 q 318 364 301 368 q 357 354 335 360 q 364 349 364 351 q 354 342 364 342 l 351 343 q 196 410 267 349 q 119 560 119 476 q 171 676 119 624 q 647 850 326 839 q 649 889 649 869 q 650 928 650 908 q 649 968 650 942 q 647 1008 647 994 q 654 1018 647 1018 q 658 1011 656 1018 q 667 850 668 947 q 882 829 779 853 q 1093 964 983 964 q 1179 940 1140 964 q 1232 874 1218 915 q 1239 840 1239 850 q 1235 835 1239 835 q 1224 853 1228 835 q 1175 906 1215 885 q 1104 925 1139 925 q 936 822 1014 925 q 1218 692 1101 796 q 1347 417 1347 578 q 1303 217 1347 314 q 1115 8 1239 81 q 836 -65 990 -65 q 501 8 681 -65 q 222 -117 404 -117 m 571 372 q 610 388 590 381 q 647 401 629 396 q 710 541 686 488 q 746 617 735 594 q 811 735 781 686 q 868 813 842 785 q 783 824 826 819 q 696 828 740 828 l 665 828 q 571 372 656 601 m 822 -42 q 1139 83 1014 -42 q 1264 401 1264 211 q 1165 661 1264 546 q 924 803 1068 778 q 877 722 901 768 q 826 621 853 676 q 785 526 806 574 q 742 431 764 478 q 946 465 872 465 q 957 454 957 465 q 947 444 957 446 l 874 428 q 718 379 801 411 q 667 271 690 317 q 629 196 644 225 q 517 26 572 92 q 822 -42 679 -42 m 457 51 q 619 339 518 117 l 546 307 q 408 71 486 167 l 457 51 m 196 -83 q 335 -53 265 -83 q 446 32 414 -19 l 396 57 q 176 -62 292 -62 q 149 -51 149 -62 q 174 -44 149 -44 q 374 67 275 -44 q 147 128 236 128 q 68 110 100 128 q 26 46 26 89 q 85 -49 26 -10 q 196 -83 136 -83 z "},"Ẽ":{"ha":1361,"x_min":11,"x_max":1513,"o":"m 1129 -183 q 826 -108 1025 -183 l 522 8 q 196 -151 375 -151 q 78 -119 135 -151 q 11 -26 11 -83 q 82 78 11 43 q 214 104 136 104 q 419 63 286 104 q 461 126 436 85 q 521 228 486 168 q 596 392 596 364 q 592 402 596 392 q 581 432 588 413 q 567 497 567 469 q 582 536 567 536 q 625 493 603 536 q 655 619 643 538 q 672 821 667 701 q 483 838 563 838 q 356 824 406 838 q 219 656 219 783 q 357 439 219 538 q 364 432 364 436 q 358 428 364 428 q 350 431 356 428 q 165 682 165 536 q 233 814 165 767 q 379 865 289 854 q 457 869 415 869 q 556 865 501 869 q 674 850 610 860 q 675 877 675 864 q 675 904 675 890 q 674 914 675 910 l 674 924 q 676 932 674 932 l 681 929 q 690 849 690 901 q 787 833 731 843 q 913 808 843 822 q 1153 961 1032 961 q 1260 872 1260 961 q 1253 856 1260 856 q 1247 869 1247 856 q 1219 919 1247 900 q 1161 933 1196 933 q 974 797 1068 933 q 1195 758 1106 771 q 1333 746 1285 746 q 1432 760 1392 746 q 1493 824 1493 781 q 1488 845 1493 836 q 1482 857 1482 854 q 1486 861 1482 861 q 1505 837 1497 861 q 1513 799 1513 813 q 1351 699 1513 699 q 953 765 1251 699 q 890 647 935 736 q 772 410 844 558 q 947 429 828 429 q 1207 396 1111 429 q 1215 390 1215 394 q 1208 385 1215 385 q 1156 389 1192 385 q 1103 393 1121 393 q 992 389 1046 393 q 890 375 939 385 q 731 278 731 346 q 739 250 731 267 l 739 247 q 708 283 724 247 q 539 26 621 124 l 831 -60 q 994 -98 919 -86 q 1128 -110 1068 -110 q 1261 -86 1203 -110 q 1336 14 1336 -53 q 1293 135 1336 65 q 1250 206 1250 207 q 1251 207 1250 207 q 1268 197 1257 207 q 1358 18 1358 122 q 1288 -131 1358 -74 q 1129 -183 1222 -183 m 467 46 q 541 147 499 81 q 633 314 583 214 l 753 551 q 822 677 788 621 q 890 779 857 733 q 781 803 831 793 q 690 818 731 813 q 647 504 686 660 q 676 515 667 515 q 688 497 688 515 q 611 385 688 457 q 541 233 585 315 q 438 56 497 150 l 467 46 m 182 -122 q 335 -74 249 -122 q 406 -24 375 -50 q 457 29 438 1 l 425 40 q 414 28 421 35 q 397 11 407 21 q 288 -74 340 -46 q 283 -75 286 -75 q 282 -72 282 -75 q 293 -58 282 -67 l 353 -10 q 384 20 372 6 q 406 49 396 35 q 305 75 353 67 q 217 83 257 83 q 107 63 156 83 q 46 -21 46 35 q 92 -97 46 -69 q 182 -122 132 -122 m 1124 1022 q 1117 1033 1114 1022 q 1154 1091 1124 1064 q 1218 1118 1185 1118 q 1275 1108 1250 1118 q 1324 1086 1300 1097 q 1374 1075 1347 1075 q 1413 1088 1397 1075 q 1433 1121 1429 1100 q 1442 1129 1436 1129 q 1449 1117 1451 1129 q 1415 1056 1442 1083 q 1353 1029 1389 1029 q 1304 1040 1331 1029 q 1253 1063 1278 1051 q 1210 1074 1228 1074 q 1157 1058 1174 1074 q 1136 1036 1140 1043 q 1124 1022 1128 1022 z "},"F":{"ha":1056,"x_min":31,"x_max":1257,"o":"m 197 -136 q 90 -114 135 -136 q 31 -28 31 -83 q 96 65 31 32 q 214 92 147 92 q 226 88 226 92 q 214 82 226 82 q 117 60 157 82 q 64 -19 64 32 q 104 -89 64 -64 q 185 -110 140 -110 q 413 4 308 -110 q 483 97 447 42 q 557 226 519 153 q 601 317 572 258 q 668 465 629 376 q 731 600 701 542 q 783 701 760 658 l 686 722 q 653 597 672 665 q 606 451 633 529 q 632 461 621 461 q 642 449 642 461 q 561 340 642 413 q 508 230 538 285 q 442 122 478 175 q 267 -29 340 -29 q 240 -15 240 -29 q 247 -8 240 -8 q 258 -10 251 -8 q 268 -11 265 -11 q 438 136 340 -11 q 550 349 504 236 q 533 436 533 406 q 550 482 533 482 q 585 442 569 482 q 626 553 604 482 q 671 726 649 624 q 339 772 454 772 q 104 610 104 772 q 228 417 104 503 q 233 410 233 413 q 228 406 233 406 q 221 408 226 406 q 57 632 57 501 q 146 768 57 725 q 317 800 214 800 q 676 754 439 800 q 687 813 681 782 q 700 875 693 843 q 704 846 704 874 q 692 751 704 810 l 800 731 q 1086 949 931 949 q 1181 869 1181 949 q 1175 854 1181 854 q 1169 867 1169 854 q 1093 924 1169 924 q 871 717 988 924 q 1003 696 947 703 q 1097 689 1060 689 q 1239 760 1239 689 q 1235 778 1239 771 q 1231 789 1231 786 q 1233 793 1231 793 q 1251 768 1243 793 q 1257 736 1257 751 q 1114 647 1257 647 q 1008 657 1074 647 q 853 686 943 667 q 811 601 847 676 q 706 386 775 526 q 876 410 746 410 q 1101 382 1015 410 q 1108 376 1108 379 q 1103 372 1108 372 q 1058 376 1088 372 q 1011 379 1028 379 q 916 375 963 379 q 826 364 869 371 q 688 279 688 338 q 691 265 688 274 q 694 251 694 256 q 676 269 686 251 q 664 301 665 288 q 570 136 615 207 q 482 17 525 65 q 197 -136 346 -136 z "},"G":{"ha":950,"x_min":15,"x_max":1040,"o":"m 356 -372 q 342 -362 342 -372 q 353 -353 342 -356 q 404 -333 385 -346 q 590 -42 500 -274 q 694 301 650 108 q 596 187 650 242 q 479 83 542 132 q 210 -39 324 -39 q 83 29 126 -39 q 46 175 46 86 q 175 544 46 357 q 468 808 299 722 q 406 813 429 813 q 348 809 378 813 q 288 799 318 806 q 149 744 210 781 q 64 633 64 694 q 65 622 64 626 l 65 611 q 53 592 65 592 q 25 618 35 592 q 15 658 15 638 q 169 792 15 744 q 396 825 282 825 q 438 823 414 825 q 489 818 461 821 q 633 869 563 853 q 769 882 703 885 q 768 919 769 894 q 767 956 767 943 q 774 967 767 967 q 789 881 786 967 q 974 805 908 871 q 1040 617 1040 739 l 1040 610 q 1021 586 1040 586 q 994 594 1010 586 q 907 645 960 615 q 783 714 854 675 l 768 592 q 808 613 792 613 q 824 594 824 613 q 799 533 824 567 q 749 482 775 500 q 740 432 744 457 q 729 381 735 407 q 804 489 763 425 q 817 506 815 506 q 819 501 819 503 q 718 332 819 472 q 610 -28 672 136 q 425 -343 521 -267 q 356 -372 386 -372 m 767 761 q 769 802 768 782 q 769 842 769 822 q 699 846 736 846 q 519 814 603 846 q 654 790 593 804 q 767 761 715 776 m 983 667 q 994 682 994 667 q 985 715 994 700 q 790 838 931 808 l 786 754 q 869 722 824 742 q 965 674 914 701 q 983 667 979 667 m 251 31 q 501 149 354 31 q 706 351 610 233 q 719 418 713 385 q 732 485 726 451 q 692 583 692 533 q 715 628 692 628 q 749 597 735 628 q 758 661 754 629 q 764 724 761 693 q 631 774 697 754 q 496 804 564 794 q 222 567 335 731 q 106 224 106 399 q 138 92 106 144 q 251 31 175 31 m 374 -432 q 228 -381 304 -432 q 143 -261 143 -325 q 147 -256 143 -256 q 154 -264 150 -256 q 340 -400 213 -400 q 456 -371 401 -400 q 667 -57 578 -304 q 789 364 668 -56 q 910 575 850 575 q 953 560 935 575 l 950 560 q 899 428 929 554 q 822 144 856 260 q 764 -35 789 28 q 486 -406 654 -315 q 374 -432 435 -432 z "},"Ğ":{"ha":950,"x_min":15,"x_max":1040,"o":"m 356 -372 q 342 -362 342 -372 q 353 -353 342 -356 q 404 -333 385 -346 q 590 -42 500 -274 q 694 301 650 108 q 596 187 650 242 q 479 83 542 132 q 210 -39 324 -39 q 83 29 126 -39 q 46 175 46 86 q 175 544 46 357 q 468 808 299 722 q 406 813 429 813 q 348 809 378 813 q 288 799 318 806 q 149 744 210 781 q 64 633 64 694 q 65 622 64 626 l 65 611 q 53 592 65 592 q 25 618 35 592 q 15 658 15 638 q 169 792 15 744 q 396 825 282 825 q 438 823 414 825 q 489 818 461 821 q 633 869 563 853 q 769 882 703 885 q 768 919 769 894 q 767 956 767 943 q 774 967 767 967 q 789 881 786 967 q 974 805 908 871 q 1040 617 1040 739 l 1040 610 q 1021 586 1040 586 q 994 594 1010 586 q 907 645 960 615 q 783 714 854 675 l 768 592 q 808 613 792 613 q 824 594 824 613 q 799 533 824 567 q 749 482 775 500 q 740 432 744 457 q 729 381 735 407 q 804 489 763 425 q 817 506 815 506 q 819 501 819 503 q 718 332 819 472 q 610 -28 672 136 q 425 -343 521 -267 q 356 -372 386 -372 m 767 761 q 769 802 768 782 q 769 842 769 822 q 699 846 736 846 q 519 814 603 846 q 654 790 593 804 q 767 761 715 776 m 983 667 q 994 682 994 667 q 985 715 994 700 q 790 838 931 808 l 786 754 q 869 722 824 742 q 965 674 914 701 q 983 667 979 667 m 251 31 q 501 149 354 31 q 706 351 610 233 q 719 418 713 385 q 732 485 726 451 q 692 583 692 533 q 715 628 692 628 q 749 597 735 628 q 758 661 754 629 q 764 724 761 693 q 631 774 697 754 q 496 804 564 794 q 222 567 335 731 q 106 224 106 399 q 138 92 106 144 q 251 31 175 31 m 374 -432 q 228 -381 304 -432 q 143 -261 143 -325 q 147 -256 143 -256 q 154 -264 150 -256 q 340 -400 213 -400 q 456 -371 401 -400 q 667 -57 578 -304 q 789 364 668 -56 q 910 575 850 575 q 953 560 935 575 l 950 560 q 899 428 929 554 q 822 144 856 260 q 764 -35 789 28 q 486 -406 654 -315 q 374 -432 435 -432 m 796 994 q 692 1076 692 994 q 703 1108 692 1094 q 728 1122 714 1122 q 733 1114 733 1122 q 732 1102 733 1108 q 731 1090 731 1096 q 751 1049 731 1065 q 810 1033 771 1033 q 890 1045 851 1033 q 960 1092 929 1057 q 976 1115 972 1107 q 983 1124 981 1124 q 986 1113 990 1124 q 943 1045 975 1071 q 872 1007 911 1019 q 796 994 833 994 z "},"Ǧ":{"ha":950,"x_min":15,"x_max":1040,"o":"m 1000 1119 q 988 1108 1000 1118 q 960 1088 975 1099 q 939 1072 946 1078 q 883 1038 914 1056 q 828 1008 853 1019 q 794 996 803 996 q 770 1008 788 996 q 733 1039 753 1021 q 696 1074 713 1057 q 676 1096 685 1085 q 668 1113 668 1107 q 683 1114 668 1121 q 717 1096 697 1107 q 772 1064 746 1079 q 803 1044 797 1049 q 828 1055 814 1049 q 850 1064 842 1061 l 933 1096 q 983 1116 965 1108 q 1000 1119 1000 1124 m 356 -372 q 342 -362 342 -372 q 353 -353 342 -356 q 404 -333 385 -346 q 590 -42 500 -274 q 694 301 650 108 q 596 187 650 242 q 479 83 542 132 q 210 -39 324 -39 q 83 29 126 -39 q 46 175 46 86 q 175 544 46 357 q 468 808 299 722 q 406 813 429 813 q 348 809 378 813 q 288 799 318 806 q 149 744 210 781 q 64 633 64 694 q 65 622 64 626 l 65 611 q 53 592 65 592 q 25 618 35 592 q 15 658 15 638 q 169 792 15 744 q 396 825 282 825 q 438 823 414 825 q 489 818 461 821 q 633 869 563 853 q 769 882 703 885 q 768 919 769 894 q 767 956 767 943 q 774 967 767 967 q 789 881 786 967 q 974 805 908 871 q 1040 617 1040 739 l 1040 610 q 1021 586 1040 586 q 994 594 1010 586 q 907 645 960 615 q 783 714 854 675 l 768 592 q 808 613 792 613 q 824 594 824 613 q 799 533 824 567 q 749 482 775 500 q 740 432 744 457 q 729 381 735 407 q 804 489 763 425 q 817 506 815 506 q 819 501 819 503 q 718 332 819 472 q 610 -28 672 136 q 425 -343 521 -267 q 356 -372 386 -372 m 767 761 q 769 802 768 782 q 769 842 769 822 q 699 846 736 846 q 519 814 603 846 q 654 790 593 804 q 767 761 715 776 m 983 667 q 994 682 994 667 q 985 715 994 700 q 790 838 931 808 l 786 754 q 869 722 824 742 q 965 674 914 701 q 983 667 979 667 m 251 31 q 501 149 354 31 q 706 351 610 233 q 719 418 713 385 q 732 485 726 451 q 692 583 692 533 q 715 628 692 628 q 749 597 735 628 q 758 661 754 629 q 764 724 761 693 q 631 774 697 754 q 496 804 564 794 q 222 567 335 731 q 106 224 106 399 q 138 92 106 144 q 251 31 175 31 m 374 -432 q 228 -381 304 -432 q 143 -261 143 -325 q 147 -256 143 -256 q 154 -264 150 -256 q 340 -400 213 -400 q 456 -371 401 -400 q 667 -57 578 -304 q 789 364 668 -56 q 910 575 850 575 q 953 560 935 575 l 950 560 q 899 428 929 554 q 822 144 856 260 q 764 -35 789 28 q 486 -406 654 -315 q 374 -432 435 -432 z "},"Ĝ":{"ha":950,"x_min":15,"x_max":1040,"o":"m 356 -372 q 342 -362 342 -372 q 353 -353 342 -356 q 404 -333 385 -346 q 590 -42 500 -274 q 694 301 650 108 q 596 187 650 242 q 479 83 542 132 q 210 -39 324 -39 q 83 29 126 -39 q 46 175 46 86 q 175 544 46 357 q 468 808 299 722 q 406 813 429 813 q 348 809 378 813 q 288 799 318 806 q 149 744 210 781 q 64 633 64 694 q 65 622 64 626 l 65 611 q 53 592 65 592 q 25 618 35 592 q 15 658 15 638 q 169 792 15 744 q 396 825 282 825 q 438 823 414 825 q 489 818 461 821 q 633 869 563 853 q 769 882 703 885 q 768 919 769 894 q 767 956 767 943 q 774 967 767 967 q 789 881 786 967 q 974 805 908 871 q 1040 617 1040 739 l 1040 610 q 1021 586 1040 586 q 994 594 1010 586 q 907 645 960 615 q 783 714 854 675 l 768 592 q 808 613 792 613 q 824 594 824 613 q 799 533 824 567 q 749 482 775 500 q 740 432 744 457 q 729 381 735 407 q 804 489 763 425 q 817 506 815 506 q 819 501 819 503 q 718 332 819 472 q 610 -28 672 136 q 425 -343 521 -267 q 356 -372 386 -372 m 767 761 q 769 802 768 782 q 769 842 769 822 q 699 846 736 846 q 519 814 603 846 q 654 790 593 804 q 767 761 715 776 m 983 667 q 994 682 994 667 q 985 715 994 700 q 790 838 931 808 l 786 754 q 869 722 824 742 q 965 674 914 701 q 983 667 979 667 m 251 31 q 501 149 354 31 q 706 351 610 233 q 719 418 713 385 q 732 485 726 451 q 692 583 692 533 q 715 628 692 628 q 749 597 735 628 q 758 661 754 629 q 764 724 761 693 q 631 774 697 754 q 496 804 564 794 q 222 567 335 731 q 106 224 106 399 q 138 92 106 144 q 251 31 175 31 m 374 -432 q 228 -381 304 -432 q 143 -261 143 -325 q 147 -256 143 -256 q 154 -264 150 -256 q 340 -400 213 -400 q 456 -371 401 -400 q 667 -57 578 -304 q 789 364 668 -56 q 910 575 850 575 q 953 560 935 575 l 950 560 q 899 428 929 554 q 822 144 856 260 q 764 -35 789 28 q 486 -406 654 -315 q 374 -432 435 -432 m 639 996 q 651 1008 639 999 q 678 1028 664 1017 q 700 1043 693 1039 q 756 1078 726 1061 q 811 1108 786 1096 q 844 1119 836 1119 q 869 1107 851 1119 q 906 1076 886 1094 q 943 1042 926 1058 q 963 1020 954 1031 q 971 1003 971 1010 q 956 1001 971 994 q 922 1019 942 1008 q 868 1051 893 1036 q 836 1071 843 1067 q 812 1060 826 1067 q 789 1051 797 1054 l 706 1019 q 656 999 674 1007 q 639 996 639 992 z "},"Ģ":{"ha":950,"x_min":15,"x_max":1040,"o":"m 356 -372 q 342 -362 342 -372 q 353 -353 342 -356 q 404 -333 385 -346 q 590 -42 500 -274 q 694 301 650 108 q 596 187 650 242 q 479 83 542 132 q 210 -39 324 -39 q 83 29 126 -39 q 46 175 46 86 q 175 544 46 357 q 468 808 299 722 q 406 813 429 813 q 348 809 378 813 q 288 799 318 806 q 149 744 210 781 q 64 633 64 694 q 65 622 64 626 l 65 611 q 53 592 65 592 q 25 618 35 592 q 15 658 15 638 q 169 792 15 744 q 396 825 282 825 q 438 823 414 825 q 489 818 461 821 q 633 869 563 853 q 769 882 703 885 q 768 919 769 894 q 767 956 767 943 q 774 967 767 967 q 789 881 786 967 q 974 805 908 871 q 1040 617 1040 739 l 1040 610 q 1021 586 1040 586 q 994 594 1010 586 q 907 645 960 615 q 783 714 854 675 l 768 592 q 808 613 792 613 q 824 594 824 613 q 799 533 824 567 q 749 482 775 500 q 740 432 744 457 q 729 381 735 407 q 804 489 763 425 q 817 506 815 506 q 819 501 819 503 q 718 332 819 472 q 610 -28 672 136 q 425 -343 521 -267 q 356 -372 386 -372 m 767 761 q 769 802 768 782 q 769 842 769 822 q 699 846 736 846 q 519 814 603 846 q 654 790 593 804 q 767 761 715 776 m 983 667 q 994 682 994 667 q 985 715 994 700 q 790 838 931 808 l 786 754 q 869 722 824 742 q 965 674 914 701 q 983 667 979 667 m 251 31 q 501 149 354 31 q 706 351 610 233 q 719 418 713 385 q 732 485 726 451 q 692 583 692 533 q 715 628 692 628 q 749 597 735 628 q 758 661 754 629 q 764 724 761 693 q 631 774 697 754 q 496 804 564 794 q 222 567 335 731 q 106 224 106 399 q 138 92 106 144 q 251 31 175 31 m 374 -432 q 228 -381 304 -432 q 143 -261 143 -325 q 147 -256 143 -256 q 154 -264 150 -256 q 340 -400 213 -400 q 456 -371 401 -400 q 667 -57 578 -304 q 789 364 668 -56 q 910 575 850 575 q 953 560 935 575 l 950 560 q 899 428 929 554 q 822 144 856 260 q 764 -35 789 28 q 486 -406 654 -315 q 374 -432 435 -432 m 232 -737 q 224 -733 226 -737 q 228 -719 222 -728 q 265 -604 265 -650 q 261 -586 265 -599 q 257 -567 257 -571 q 265 -542 257 -554 q 283 -525 274 -525 q 317 -550 300 -525 l 317 -547 q 319 -556 318 -547 q 319 -569 319 -565 q 281 -674 319 -608 q 264 -700 275 -685 q 238 -735 253 -715 q 232 -737 235 -737 z "},"Ġ":{"ha":950,"x_min":15,"x_max":1040,"o":"m 356 -372 q 342 -362 342 -372 q 353 -353 342 -356 q 404 -333 385 -346 q 590 -42 500 -274 q 694 301 650 108 q 596 187 650 242 q 479 83 542 132 q 210 -39 324 -39 q 83 29 126 -39 q 46 175 46 86 q 175 544 46 357 q 468 808 299 722 q 406 813 429 813 q 348 809 378 813 q 288 799 318 806 q 149 744 210 781 q 64 633 64 694 q 65 622 64 626 l 65 611 q 53 592 65 592 q 25 618 35 592 q 15 658 15 638 q 169 792 15 744 q 396 825 282 825 q 438 823 414 825 q 489 818 461 821 q 633 869 563 853 q 769 882 703 885 q 768 919 769 894 q 767 956 767 943 q 774 967 767 967 q 789 881 786 967 q 974 805 908 871 q 1040 617 1040 739 l 1040 610 q 1021 586 1040 586 q 994 594 1010 586 q 907 645 960 615 q 783 714 854 675 l 768 592 q 808 613 792 613 q 824 594 824 613 q 799 533 824 567 q 749 482 775 500 q 740 432 744 457 q 729 381 735 407 q 804 489 763 425 q 817 506 815 506 q 819 501 819 503 q 718 332 819 472 q 610 -28 672 136 q 425 -343 521 -267 q 356 -372 386 -372 m 767 761 q 769 802 768 782 q 769 842 769 822 q 699 846 736 846 q 519 814 603 846 q 654 790 593 804 q 767 761 715 776 m 983 667 q 994 682 994 667 q 985 715 994 700 q 790 838 931 808 l 786 754 q 869 722 824 742 q 965 674 914 701 q 983 667 979 667 m 251 31 q 501 149 354 31 q 706 351 610 233 q 719 418 713 385 q 732 485 726 451 q 692 583 692 533 q 715 628 692 628 q 749 597 735 628 q 758 661 754 629 q 764 724 761 693 q 631 774 697 754 q 496 804 564 794 q 222 567 335 731 q 106 224 106 399 q 138 92 106 144 q 251 31 175 31 m 374 -432 q 228 -381 304 -432 q 143 -261 143 -325 q 147 -256 143 -256 q 154 -264 150 -256 q 340 -400 213 -400 q 456 -371 401 -400 q 667 -57 578 -304 q 789 364 668 -56 q 910 575 850 575 q 953 560 935 575 l 950 560 q 899 428 929 554 q 822 144 856 260 q 764 -35 789 28 q 486 -406 654 -315 q 374 -432 435 -432 m 806 985 q 786 1001 797 985 q 779 1028 779 1014 q 803 1058 779 1053 q 854 1101 842 1101 q 860 1090 860 1101 q 846 1029 860 1076 q 806 985 831 985 z "},"ẞ":{"ha":883,"x_min":-156,"x_max":932,"o":"m -129 -139 q -156 -125 -154 -139 q -139 -114 -149 -114 q 136 113 -11 -114 q 213 244 172 167 q 299 410 253 322 q 395 585 344 499 q 503 742 446 671 q 624 855 560 813 q 760 897 688 897 q 890 863 849 897 q 932 775 932 828 q 883 648 932 717 q 742 520 835 579 q 518 432 649 461 q 561 426 540 432 q 728 350 685 396 q 772 243 772 304 q 736 149 772 190 q 642 76 700 107 q 514 24 583 44 q 376 -8 444 3 q 254 -18 308 -18 q 228 -8 228 -18 q 236 2 228 -3 q 254 7 244 7 q 398 26 321 7 q 543 77 475 44 q 655 153 611 110 q 699 249 699 197 q 681 306 699 283 q 619 348 664 329 q 488 389 574 367 q 439 425 439 401 q 451 444 439 440 q 499 453 464 447 q 640 498 574 464 q 756 579 706 532 q 835 676 807 626 q 864 767 864 725 q 833 833 864 807 q 732 860 801 860 q 623 819 674 860 q 526 708 572 778 q 433 551 479 639 q 333 369 386 464 q 225 170 272 258 q 129 21 178 82 q -8 -100 61 -61 q -129 -139 -76 -139 z "},"H":{"ha":1031,"x_min":-215,"x_max":1244,"o":"m -142 -307 q -215 -257 -215 -307 q -203 -218 -215 -228 l -203 -233 q -142 -287 -203 -287 q 189 -71 8 -287 q 162 -58 175 -65 q 138 -44 149 -51 q -106 -218 0 -218 q -118 -208 -118 -218 q -106 -199 -118 -201 q -64 -190 -93 -197 q 124 -36 24 -158 q 53 76 53 17 q 151 210 53 149 q 314 279 224 254 q 356 376 336 328 q 392 475 375 425 q 361 565 361 518 q 389 619 361 619 q 424 579 408 619 q 471 876 467 738 q 418 885 449 885 q 201 800 313 885 q 82 610 82 710 q 207 457 82 522 q 213 449 213 456 q 201 438 213 438 l 196 438 q 85 508 131 465 q 28 624 28 563 q 119 782 28 707 q 285 874 193 843 q 426 897 360 897 q 449 897 438 897 q 471 894 461 896 l 471 944 q 479 956 471 956 q 488 892 486 956 q 636 689 636 860 q 517 313 636 547 q 615 319 554 315 q 761 324 676 322 q 781 324 768 324 q 813 326 793 325 q 840 328 828 328 q 863 328 853 328 q 871 324 871 328 q 840 306 871 310 l 724 300 q 500 279 585 293 q 247 -75 393 83 l 325 -92 q 336 -99 336 -94 q 322 -106 336 -106 q 235 -87 293 -106 q -142 -307 26 -307 m 971 -237 q 806 -49 806 -237 q 881 286 806 76 q 1056 711 896 326 q 1081 775 1065 738 q 1115 863 1096 813 q 1138 896 1128 896 q 1147 876 1147 896 q 1147 868 1147 872 q 1144 858 1146 864 q 1122 785 1139 838 q 1075 647 1104 732 q 1008 450 1036 538 q 961 299 981 363 q 899 -46 899 81 q 1003 -217 899 -217 q 1106 -175 1046 -217 q 1197 -96 1146 -146 q 1231 -65 1219 -75 q 1242 -54 1242 -54 q 1244 -57 1244 -57 q 1240 -67 1244 -60 q 1124 -183 1194 -135 q 971 -237 1044 -237 m 333 283 q 378 294 356 289 q 428 301 401 299 q 560 721 560 569 q 488 869 560 835 q 476 736 486 807 q 443 586 465 665 q 479 601 467 601 q 493 586 493 601 q 464 522 493 558 q 436 492 450 504 q 408 471 422 479 q 333 283 375 378 m 200 -57 q 307 90 256 11 q 406 260 358 169 q 354 246 379 254 q 306 228 329 238 q 151 -26 233 81 q 200 -57 168 -43 m 140 -17 q 215 92 179 33 q 285 218 250 150 q 111 50 111 140 q 140 -17 111 15 z "},"Ħ":{"ha":1031,"x_min":-215,"x_max":1244,"o":"m -142 -307 q -215 -257 -215 -307 q -203 -218 -215 -228 l -203 -233 q -142 -287 -203 -287 q 189 -71 8 -287 q 162 -58 175 -65 q 138 -44 149 -51 q -106 -218 0 -218 q -118 -208 -118 -218 q -106 -199 -118 -201 q -64 -190 -93 -197 q 124 -36 24 -158 q 53 76 53 17 q 151 210 53 149 q 314 279 224 254 q 356 376 336 328 q 392 475 375 425 q 361 565 361 518 q 389 619 361 619 q 424 579 408 619 q 471 876 467 738 q 418 885 449 885 q 201 800 313 885 q 82 610 82 710 q 207 457 82 522 q 213 449 213 456 q 201 438 213 438 l 196 438 q 85 508 131 465 q 28 624 28 563 q 119 782 28 707 q 285 874 193 843 q 426 897 360 897 q 449 897 438 897 q 471 894 461 896 l 471 944 q 479 956 471 956 q 488 892 486 956 q 636 689 636 860 q 517 313 636 547 q 615 319 554 315 q 761 324 676 322 q 781 324 768 324 q 813 326 793 325 q 840 328 828 328 q 863 328 853 328 q 871 324 871 328 q 840 306 871 310 l 724 300 q 500 279 585 293 q 247 -75 393 83 l 325 -92 q 336 -99 336 -94 q 322 -106 336 -106 q 235 -87 293 -106 q -142 -307 26 -307 m 971 -237 q 806 -49 806 -237 q 881 286 806 76 q 1056 711 896 326 q 1081 775 1065 738 q 1115 863 1096 813 q 1138 896 1128 896 q 1147 876 1147 896 q 1147 868 1147 872 q 1144 858 1146 864 q 1122 785 1139 838 q 1075 647 1104 732 q 1008 450 1036 538 q 961 299 981 363 q 899 -46 899 81 q 1003 -217 899 -217 q 1106 -175 1046 -217 q 1197 -96 1146 -146 q 1231 -65 1219 -75 q 1242 -54 1242 -54 q 1244 -57 1244 -57 q 1240 -67 1244 -60 q 1124 -183 1194 -135 q 971 -237 1044 -237 m 333 283 q 378 294 356 289 q 428 301 401 299 q 560 721 560 569 q 488 869 560 835 q 476 736 486 807 q 443 586 465 665 q 479 601 467 601 q 493 586 493 601 q 464 522 493 558 q 436 492 450 504 q 408 471 422 479 q 333 283 375 378 m 200 -57 q 307 90 256 11 q 406 260 358 169 q 354 246 379 254 q 306 228 329 238 q 151 -26 233 81 q 200 -57 168 -43 m 140 -17 q 215 92 179 33 q 285 218 250 150 q 111 50 111 140 q 140 -17 111 15 m 389 658 q 361 669 378 658 q 340 690 344 681 q 343 693 343 693 q 401 697 363 696 q 496 700 439 699 q 581 701 536 701 q 675 701 625 701 q 849 700 763 701 q 1019 696 935 699 q 1099 692 1051 694 q 1208 686 1146 690 q 1222 681 1222 685 q 1196 674 1222 675 q 460 661 763 674 q 448 661 457 661 q 425 660 439 661 q 405 658 414 658 q 389 658 396 658 z "},"Ĥ":{"ha":1031,"x_min":-215,"x_max":1244,"o":"m -142 -307 q -215 -257 -215 -307 q -203 -218 -215 -228 l -203 -233 q -142 -287 -203 -287 q 189 -71 8 -287 q 162 -58 175 -65 q 138 -44 149 -51 q -106 -218 0 -218 q -118 -208 -118 -218 q -106 -199 -118 -201 q -64 -190 -93 -197 q 124 -36 24 -158 q 53 76 53 17 q 151 210 53 149 q 314 279 224 254 q 356 376 336 328 q 392 475 375 425 q 361 565 361 518 q 389 619 361 619 q 424 579 408 619 q 471 876 467 738 q 418 885 449 885 q 201 800 313 885 q 82 610 82 710 q 207 457 82 522 q 213 449 213 456 q 201 438 213 438 l 196 438 q 85 508 131 465 q 28 624 28 563 q 119 782 28 707 q 285 874 193 843 q 426 897 360 897 q 449 897 438 897 q 471 894 461 896 l 471 944 q 479 956 471 956 q 488 892 486 956 q 636 689 636 860 q 517 313 636 547 q 615 319 554 315 q 761 324 676 322 q 781 324 768 324 q 813 326 793 325 q 840 328 828 328 q 863 328 853 328 q 871 324 871 328 q 840 306 871 310 l 724 300 q 500 279 585 293 q 247 -75 393 83 l 325 -92 q 336 -99 336 -94 q 322 -106 336 -106 q 235 -87 293 -106 q -142 -307 26 -307 m 971 -237 q 806 -49 806 -237 q 881 286 806 76 q 1056 711 896 326 q 1081 775 1065 738 q 1115 863 1096 813 q 1138 896 1128 896 q 1147 876 1147 896 q 1147 868 1147 872 q 1144 858 1146 864 q 1122 785 1139 838 q 1075 647 1104 732 q 1008 450 1036 538 q 961 299 981 363 q 899 -46 899 81 q 1003 -217 899 -217 q 1106 -175 1046 -217 q 1197 -96 1146 -146 q 1231 -65 1219 -75 q 1242 -54 1242 -54 q 1244 -57 1244 -57 q 1240 -67 1244 -60 q 1124 -183 1194 -135 q 971 -237 1044 -237 m 333 283 q 378 294 356 289 q 428 301 401 299 q 560 721 560 569 q 488 869 560 835 q 476 736 486 807 q 443 586 465 665 q 479 601 467 601 q 493 586 493 601 q 464 522 493 558 q 436 492 450 504 q 408 471 422 479 q 333 283 375 378 m 200 -57 q 307 90 256 11 q 406 260 358 169 q 354 246 379 254 q 306 228 329 238 q 151 -26 233 81 q 200 -57 168 -43 m 140 -17 q 215 92 179 33 q 285 218 250 150 q 111 50 111 140 q 140 -17 111 15 m 711 976 q 733 996 711 979 q 772 1024 754 1013 q 819 1054 792 1036 q 871 1086 847 1072 q 903 1100 894 1100 q 927 1087 910 1100 q 963 1056 944 1074 q 994 1022 982 1038 q 1008 1003 1000 1015 q 1015 986 1015 990 q 1001 980 1015 974 q 967 1000 988 986 l 922 1032 q 909 1042 917 1038 q 894 1051 901 1046 q 869 1041 881 1046 q 847 1032 857 1036 l 778 1000 q 711 976 711 969 z "},"I":{"ha":922,"x_min":33,"x_max":972,"o":"m 257 -193 q 99 -117 150 -193 q 51 61 51 -49 q 85 235 51 172 q 89 244 89 242 q 61 256 89 251 q 33 271 33 263 q 56 297 33 285 q 94 310 79 310 q 110 308 100 310 q 125 307 121 307 q 226 311 160 307 q 329 315 296 315 q 429 307 399 315 q 488 239 488 290 q 440 174 488 200 q 435 176 435 174 q 450 199 435 181 q 465 221 465 218 q 313 271 465 271 q 285 270 301 271 q 244 268 268 269 q 206 267 222 267 q 178 267 189 267 q 159 267 168 267 q 143 268 150 267 q 144 260 144 267 q 136 232 144 251 q 82 24 82 122 q 129 -115 82 -60 q 261 -175 179 -175 q 568 53 411 -175 q 736 353 658 186 q 878 722 814 521 q 907 825 907 810 q 906 826 907 826 q 776 764 883 826 q 681 435 750 629 q 710 446 700 446 q 721 432 721 446 q 632 311 721 392 q 570 187 604 247 q 496 67 536 126 q 301 -104 382 -104 q 271 -87 271 -104 q 279 -81 271 -81 q 291 -82 283 -81 q 303 -83 299 -83 q 492 81 383 -83 q 618 321 567 194 q 600 418 600 383 q 619 469 600 469 q 657 425 640 469 q 706 552 681 471 q 756 751 731 633 q 691 708 719 729 q 642 665 663 686 q 575 572 607 631 q 538 468 538 506 q 560 428 538 440 q 567 421 567 424 q 560 418 567 418 q 515 440 533 418 q 496 488 496 461 q 596 656 496 560 q 673 722 632 690 q 761 781 714 753 l 778 889 q 786 911 779 904 q 792 878 792 907 q 790 840 792 861 q 782 793 788 819 q 947 856 893 856 q 972 833 972 856 q 939 667 972 786 q 599 -3 818 254 q 257 -193 433 -193 z "},"Í":{"ha":922,"x_min":33,"x_max":1104,"o":"m 257 -193 q 99 -117 150 -193 q 51 61 51 -49 q 85 235 51 172 q 89 244 89 242 q 61 256 89 251 q 33 271 33 263 q 56 297 33 285 q 94 310 79 310 q 110 308 100 310 q 125 307 121 307 q 226 311 160 307 q 329 315 296 315 q 429 307 399 315 q 488 239 488 290 q 440 174 488 200 q 435 176 435 174 q 450 199 435 181 q 465 221 465 218 q 313 271 465 271 q 285 270 301 271 q 244 268 268 269 q 206 267 222 267 q 178 267 189 267 q 159 267 168 267 q 143 268 150 267 q 144 260 144 267 q 136 232 144 251 q 82 24 82 122 q 129 -115 82 -60 q 261 -175 179 -175 q 568 53 411 -175 q 736 353 658 186 q 878 722 814 521 q 907 825 907 810 q 906 826 907 826 q 776 764 883 826 q 681 435 750 629 q 710 446 700 446 q 721 432 721 446 q 632 311 721 392 q 570 187 604 247 q 496 67 536 126 q 301 -104 382 -104 q 271 -87 271 -104 q 279 -81 271 -81 q 291 -82 283 -81 q 303 -83 299 -83 q 492 81 383 -83 q 618 321 567 194 q 600 418 600 383 q 619 469 600 469 q 657 425 640 469 q 706 552 681 471 q 756 751 731 633 q 691 708 719 729 q 642 665 663 686 q 575 572 607 631 q 538 468 538 506 q 560 428 538 440 q 567 421 567 424 q 560 418 567 418 q 515 440 533 418 q 496 488 496 461 q 596 656 496 560 q 673 722 632 690 q 761 781 714 753 l 778 889 q 786 911 779 904 q 792 878 792 907 q 790 840 792 861 q 782 793 788 819 q 947 856 893 856 q 972 833 972 856 q 939 667 972 786 q 599 -3 818 254 q 257 -193 433 -193 m 892 965 q 885 969 885 965 q 908 988 885 972 q 947 1013 931 1003 q 979 1031 958 1019 q 1023 1057 1000 1043 q 1064 1080 1046 1071 q 1088 1089 1082 1089 q 1100 1082 1096 1089 q 1104 1068 1104 1075 q 1099 1049 1104 1058 q 1083 1036 1094 1040 q 1061 1030 1074 1033 q 1039 1022 1049 1026 q 1001 1007 1018 1014 q 963 992 983 1000 q 919 973 938 981 q 892 965 900 965 z "},"Ĭ":{"ha":922,"x_min":33,"x_max":1144,"o":"m 257 -193 q 99 -117 150 -193 q 51 61 51 -49 q 85 235 51 172 q 89 244 89 242 q 61 256 89 251 q 33 271 33 263 q 56 297 33 285 q 94 310 79 310 q 110 308 100 310 q 125 307 121 307 q 226 311 160 307 q 329 315 296 315 q 429 307 399 315 q 488 239 488 290 q 440 174 488 200 q 435 176 435 174 q 450 199 435 181 q 465 221 465 218 q 313 271 465 271 q 285 270 301 271 q 244 268 268 269 q 206 267 222 267 q 178 267 189 267 q 159 267 168 267 q 143 268 150 267 q 144 260 144 267 q 136 232 144 251 q 82 24 82 122 q 129 -115 82 -60 q 261 -175 179 -175 q 568 53 411 -175 q 736 353 658 186 q 878 722 814 521 q 907 825 907 810 q 906 826 907 826 q 776 764 883 826 q 681 435 750 629 q 710 446 700 446 q 721 432 721 446 q 632 311 721 392 q 570 187 604 247 q 496 67 536 126 q 301 -104 382 -104 q 271 -87 271 -104 q 279 -81 271 -81 q 291 -82 283 -81 q 303 -83 299 -83 q 492 81 383 -83 q 618 321 567 194 q 600 418 600 383 q 619 469 600 469 q 657 425 640 469 q 706 552 681 471 q 756 751 731 633 q 691 708 719 729 q 642 665 663 686 q 575 572 607 631 q 538 468 538 506 q 560 428 538 440 q 567 421 567 424 q 560 418 567 418 q 515 440 533 418 q 496 488 496 461 q 596 656 496 560 q 673 722 632 690 q 761 781 714 753 l 778 889 q 786 911 779 904 q 792 878 792 907 q 790 840 792 861 q 782 793 788 819 q 947 856 893 856 q 972 833 972 856 q 939 667 972 786 q 599 -3 818 254 q 257 -193 433 -193 m 964 965 q 898 985 922 965 q 874 1047 874 1006 q 885 1079 874 1065 q 910 1093 896 1093 q 915 1085 915 1093 q 914 1073 915 1079 q 913 1061 913 1067 q 931 1020 913 1036 q 978 1004 950 1004 q 1051 1016 1019 1004 q 1114 1063 1083 1028 q 1131 1086 1126 1078 q 1138 1094 1135 1094 q 1140 1083 1144 1094 q 1071 993 1122 1021 q 964 965 1019 965 z "},"Ǐ":{"ha":922,"x_min":33,"x_max":1156,"o":"m 1156 1088 q 1135 1068 1156 1085 q 1094 1040 1114 1051 q 1047 1010 1075 1029 q 996 978 1019 992 q 964 964 972 964 q 940 977 957 964 q 903 1008 922 990 q 872 1042 885 1026 q 859 1061 867 1049 q 851 1078 851 1074 q 865 1085 851 1090 q 900 1064 879 1079 l 944 1032 q 959 1022 951 1026 q 972 1013 967 1018 q 999 1024 988 1019 q 1019 1032 1010 1028 l 1089 1064 q 1156 1088 1156 1094 m 257 -193 q 99 -117 150 -193 q 51 61 51 -49 q 85 235 51 172 q 89 244 89 242 q 61 256 89 251 q 33 271 33 263 q 56 297 33 285 q 94 310 79 310 q 110 308 100 310 q 125 307 121 307 q 226 311 160 307 q 329 315 296 315 q 429 307 399 315 q 488 239 488 290 q 440 174 488 200 q 435 176 435 174 q 450 199 435 181 q 465 221 465 218 q 313 271 465 271 q 285 270 301 271 q 244 268 268 269 q 206 267 222 267 q 178 267 189 267 q 159 267 168 267 q 143 268 150 267 q 144 260 144 267 q 136 232 144 251 q 82 24 82 122 q 129 -115 82 -60 q 261 -175 179 -175 q 568 53 411 -175 q 736 353 658 186 q 878 722 814 521 q 907 825 907 810 q 906 826 907 826 q 776 764 883 826 q 681 435 750 629 q 710 446 700 446 q 721 432 721 446 q 632 311 721 392 q 570 187 604 247 q 496 67 536 126 q 301 -104 382 -104 q 271 -87 271 -104 q 279 -81 271 -81 q 291 -82 283 -81 q 303 -83 299 -83 q 492 81 383 -83 q 618 321 567 194 q 600 418 600 383 q 619 469 600 469 q 657 425 640 469 q 706 552 681 471 q 756 751 731 633 q 691 708 719 729 q 642 665 663 686 q 575 572 607 631 q 538 468 538 506 q 560 428 538 440 q 567 421 567 424 q 560 418 567 418 q 515 440 533 418 q 496 488 496 461 q 596 656 496 560 q 673 722 632 690 q 761 781 714 753 l 778 889 q 786 911 779 904 q 792 878 792 907 q 790 840 792 861 q 782 793 788 819 q 947 856 893 856 q 972 833 972 856 q 939 667 972 786 q 599 -3 818 254 q 257 -193 433 -193 z "},"Î":{"ha":922,"x_min":33,"x_max":1125,"o":"m 257 -193 q 99 -117 150 -193 q 51 61 51 -49 q 85 235 51 172 q 89 244 89 242 q 61 256 89 251 q 33 271 33 263 q 56 297 33 285 q 94 310 79 310 q 110 308 100 310 q 125 307 121 307 q 226 311 160 307 q 329 315 296 315 q 429 307 399 315 q 488 239 488 290 q 440 174 488 200 q 435 176 435 174 q 450 199 435 181 q 465 221 465 218 q 313 271 465 271 q 285 270 301 271 q 244 268 268 269 q 206 267 222 267 q 178 267 189 267 q 159 267 168 267 q 143 268 150 267 q 144 260 144 267 q 136 232 144 251 q 82 24 82 122 q 129 -115 82 -60 q 261 -175 179 -175 q 568 53 411 -175 q 736 353 658 186 q 878 722 814 521 q 907 825 907 810 q 906 826 907 826 q 776 764 883 826 q 681 435 750 629 q 710 446 700 446 q 721 432 721 446 q 632 311 721 392 q 570 187 604 247 q 496 67 536 126 q 301 -104 382 -104 q 271 -87 271 -104 q 279 -81 271 -81 q 291 -82 283 -81 q 303 -83 299 -83 q 492 81 383 -83 q 618 321 567 194 q 600 418 600 383 q 619 469 600 469 q 657 425 640 469 q 706 552 681 471 q 756 751 731 633 q 691 708 719 729 q 642 665 663 686 q 575 572 607 631 q 538 468 538 506 q 560 428 538 440 q 567 421 567 424 q 560 418 567 418 q 515 440 533 418 q 496 488 496 461 q 596 656 496 560 q 673 722 632 690 q 761 781 714 753 l 778 889 q 786 911 779 904 q 792 878 792 907 q 790 840 792 861 q 782 793 788 819 q 947 856 893 856 q 972 833 972 856 q 939 667 972 786 q 599 -3 818 254 q 257 -193 433 -193 m 821 967 q 842 986 821 969 q 882 1014 864 1003 q 929 1044 901 1026 q 981 1076 957 1063 q 1013 1090 1004 1090 q 1037 1077 1019 1090 q 1073 1046 1054 1064 q 1104 1013 1092 1028 q 1117 993 1110 1006 q 1125 976 1125 981 q 1111 970 1125 964 q 1076 990 1097 976 l 1032 1022 q 1019 1032 1026 1028 q 1004 1042 1011 1036 q 978 1031 990 1036 q 957 1022 967 1026 l 888 990 q 821 967 821 960 z "},"Ȉ":{"ha":922,"x_min":33,"x_max":1006,"o":"m 257 -193 q 99 -117 150 -193 q 51 61 51 -49 q 85 235 51 172 q 89 244 89 242 q 61 256 89 251 q 33 271 33 263 q 56 297 33 285 q 94 310 79 310 q 110 308 100 310 q 125 307 121 307 q 226 311 160 307 q 329 315 296 315 q 429 307 399 315 q 488 239 488 290 q 440 174 488 200 q 435 176 435 174 q 450 199 435 181 q 465 221 465 218 q 313 271 465 271 q 285 270 301 271 q 244 268 268 269 q 206 267 222 267 q 178 267 189 267 q 159 267 168 267 q 143 268 150 267 q 144 260 144 267 q 136 232 144 251 q 82 24 82 122 q 129 -115 82 -60 q 261 -175 179 -175 q 568 53 411 -175 q 736 353 658 186 q 878 722 814 521 q 907 825 907 810 q 906 826 907 826 q 776 764 883 826 q 681 435 750 629 q 710 446 700 446 q 721 432 721 446 q 632 311 721 392 q 570 187 604 247 q 496 67 536 126 q 301 -104 382 -104 q 271 -87 271 -104 q 279 -81 271 -81 q 291 -82 283 -81 q 303 -83 299 -83 q 492 81 383 -83 q 618 321 567 194 q 600 418 600 383 q 619 469 600 469 q 657 425 640 469 q 706 552 681 471 q 756 751 731 633 q 691 708 719 729 q 642 665 663 686 q 575 572 607 631 q 538 468 538 506 q 560 428 538 440 q 567 421 567 424 q 560 418 567 418 q 515 440 533 418 q 496 488 496 461 q 596 656 496 560 q 673 722 632 690 q 761 781 714 753 l 778 889 q 786 911 779 904 q 792 878 792 907 q 790 840 792 861 q 782 793 788 819 q 947 856 893 856 q 972 833 972 856 q 939 667 972 786 q 599 -3 818 254 q 257 -193 433 -193 m 997 965 q 972 978 989 967 q 933 1006 956 989 q 899 1028 915 1018 q 864 1051 883 1039 q 844 1063 856 1058 q 824 1074 832 1068 q 810 1110 804 1086 q 825 1128 815 1125 q 845 1116 829 1129 q 883 1084 861 1103 q 923 1048 904 1065 q 951 1022 942 1031 q 986 990 967 1010 q 1004 968 1006 971 q 997 965 1004 963 m 896 965 q 869 973 888 965 q 825 992 850 981 q 787 1007 804 1000 q 749 1022 769 1014 q 726 1030 739 1026 q 704 1036 714 1033 q 689 1049 694 1040 q 683 1068 683 1058 q 694 1089 683 1083 q 716 1081 697 1090 q 760 1058 735 1072 q 807 1032 785 1044 q 840 1013 829 1019 q 880 988 857 1003 q 903 969 903 972 q 896 965 903 965 z "},"Ï":{"ha":922,"x_min":33,"x_max":1117,"o":"m 257 -193 q 99 -117 150 -193 q 51 61 51 -49 q 85 235 51 172 q 89 244 89 242 q 61 256 89 251 q 33 271 33 263 q 56 297 33 285 q 94 310 79 310 q 110 308 100 310 q 125 307 121 307 q 226 311 160 307 q 329 315 296 315 q 429 307 399 315 q 488 239 488 290 q 440 174 488 200 q 435 176 435 174 q 450 199 435 181 q 465 221 465 218 q 313 271 465 271 q 285 270 301 271 q 244 268 268 269 q 206 267 222 267 q 178 267 189 267 q 159 267 168 267 q 143 268 150 267 q 144 260 144 267 q 136 232 144 251 q 82 24 82 122 q 129 -115 82 -60 q 261 -175 179 -175 q 568 53 411 -175 q 736 353 658 186 q 878 722 814 521 q 907 825 907 810 q 906 826 907 826 q 776 764 883 826 q 681 435 750 629 q 710 446 700 446 q 721 432 721 446 q 632 311 721 392 q 570 187 604 247 q 496 67 536 126 q 301 -104 382 -104 q 271 -87 271 -104 q 279 -81 271 -81 q 291 -82 283 -81 q 303 -83 299 -83 q 492 81 383 -83 q 618 321 567 194 q 600 418 600 383 q 619 469 600 469 q 657 425 640 469 q 706 552 681 471 q 756 751 731 633 q 691 708 719 729 q 642 665 663 686 q 575 572 607 631 q 538 468 538 506 q 560 428 538 440 q 567 421 567 424 q 560 418 567 418 q 515 440 533 418 q 496 488 496 461 q 596 656 496 560 q 673 722 632 690 q 761 781 714 753 l 778 889 q 786 911 779 904 q 792 878 792 907 q 790 840 792 861 q 782 793 788 819 q 947 856 893 856 q 972 833 972 856 q 939 667 972 786 q 599 -3 818 254 q 257 -193 433 -193 m 1049 965 q 1033 976 1040 965 q 1025 1000 1025 992 q 1046 1028 1025 1018 q 1078 1049 1051 1036 q 1114 1063 1101 1063 q 1117 1061 1117 1063 l 1117 1060 q 1115 1058 1117 1060 q 1108 1050 1113 1056 l 1099 1040 q 1090 1024 1093 1035 q 1083 1001 1088 1014 q 1049 965 1071 965 m 910 965 q 894 976 903 965 q 888 990 889 983 q 886 1000 886 996 q 907 1028 886 1019 q 938 1049 914 1036 q 974 1063 964 1063 q 978 1061 976 1063 l 978 1060 q 976 1057 978 1060 q 969 1050 974 1054 q 963 1044 964 1046 q 960 1040 961 1042 q 951 1024 954 1035 q 944 1001 949 1014 q 910 965 932 965 z "},"İ":{"ha":922,"x_min":33,"x_max":1028,"o":"m 257 -193 q 99 -117 150 -193 q 51 61 51 -49 q 85 235 51 172 q 89 244 89 242 q 61 256 89 251 q 33 271 33 263 q 56 297 33 285 q 94 310 79 310 q 110 308 100 310 q 125 307 121 307 q 226 311 160 307 q 329 315 296 315 q 429 307 399 315 q 488 239 488 290 q 440 174 488 200 q 435 176 435 174 q 450 199 435 181 q 465 221 465 218 q 313 271 465 271 q 285 270 301 271 q 244 268 268 269 q 206 267 222 267 q 178 267 189 267 q 159 267 168 267 q 143 268 150 267 q 144 260 144 267 q 136 232 144 251 q 82 24 82 122 q 129 -115 82 -60 q 261 -175 179 -175 q 568 53 411 -175 q 736 353 658 186 q 878 722 814 521 q 907 825 907 810 q 906 826 907 826 q 776 764 883 826 q 681 435 750 629 q 710 446 700 446 q 721 432 721 446 q 632 311 721 392 q 570 187 604 247 q 496 67 536 126 q 301 -104 382 -104 q 271 -87 271 -104 q 279 -81 271 -81 q 291 -82 283 -81 q 303 -83 299 -83 q 492 81 383 -83 q 618 321 567 194 q 600 418 600 383 q 619 469 600 469 q 657 425 640 469 q 706 552 681 471 q 756 751 731 633 q 691 708 719 729 q 642 665 663 686 q 575 572 607 631 q 538 468 538 506 q 560 428 538 440 q 567 421 567 424 q 560 418 567 418 q 515 440 533 418 q 496 488 496 461 q 596 656 496 560 q 673 722 632 690 q 761 781 714 753 l 778 889 q 786 911 779 904 q 792 878 792 907 q 790 840 792 861 q 782 793 788 819 q 947 856 893 856 q 972 833 972 856 q 939 667 972 786 q 599 -3 818 254 q 257 -193 433 -193 m 974 956 q 954 972 965 956 q 947 999 947 985 q 971 1029 947 1024 q 1022 1072 1010 1072 q 1028 1061 1028 1072 q 1014 1000 1028 1047 q 974 956 999 956 z "},"Ị":{"ha":922,"x_min":33,"x_max":972,"o":"m 257 -193 q 99 -117 150 -193 q 51 61 51 -49 q 85 235 51 172 q 89 244 89 242 q 61 256 89 251 q 33 271 33 263 q 56 297 33 285 q 94 310 79 310 q 110 308 100 310 q 125 307 121 307 q 226 311 160 307 q 329 315 296 315 q 429 307 399 315 q 488 239 488 290 q 440 174 488 200 q 435 176 435 174 q 450 199 435 181 q 465 221 465 218 q 313 271 465 271 q 285 270 301 271 q 244 268 268 269 q 206 267 222 267 q 178 267 189 267 q 159 267 168 267 q 143 268 150 267 q 144 260 144 267 q 136 232 144 251 q 82 24 82 122 q 129 -115 82 -60 q 261 -175 179 -175 q 568 53 411 -175 q 736 353 658 186 q 878 722 814 521 q 907 825 907 810 q 906 826 907 826 q 776 764 883 826 q 681 435 750 629 q 710 446 700 446 q 721 432 721 446 q 632 311 721 392 q 570 187 604 247 q 496 67 536 126 q 301 -104 382 -104 q 271 -87 271 -104 q 279 -81 271 -81 q 291 -82 283 -81 q 303 -83 299 -83 q 492 81 383 -83 q 618 321 567 194 q 600 418 600 383 q 619 469 600 469 q 657 425 640 469 q 706 552 681 471 q 756 751 731 633 q 691 708 719 729 q 642 665 663 686 q 575 572 607 631 q 538 468 538 506 q 560 428 538 440 q 567 421 567 424 q 560 418 567 418 q 515 440 533 418 q 496 488 496 461 q 596 656 496 560 q 673 722 632 690 q 761 781 714 753 l 778 889 q 786 911 779 904 q 792 878 792 907 q 790 840 792 861 q 782 793 788 819 q 947 856 893 856 q 972 833 972 856 q 939 667 972 786 q 599 -3 818 254 q 257 -193 433 -193 m 140 -386 q 121 -369 132 -386 q 114 -343 114 -357 q 138 -312 114 -318 q 189 -269 176 -269 q 194 -281 194 -269 q 181 -342 194 -294 q 140 -386 165 -386 z "},"Ì":{"ha":922,"x_min":33,"x_max":1004,"o":"m 257 -193 q 99 -117 150 -193 q 51 61 51 -49 q 85 235 51 172 q 89 244 89 242 q 61 256 89 251 q 33 271 33 263 q 56 297 33 285 q 94 310 79 310 q 110 308 100 310 q 125 307 121 307 q 226 311 160 307 q 329 315 296 315 q 429 307 399 315 q 488 239 488 290 q 440 174 488 200 q 435 176 435 174 q 450 199 435 181 q 465 221 465 218 q 313 271 465 271 q 285 270 301 271 q 244 268 268 269 q 206 267 222 267 q 178 267 189 267 q 159 267 168 267 q 143 268 150 267 q 144 260 144 267 q 136 232 144 251 q 82 24 82 122 q 129 -115 82 -60 q 261 -175 179 -175 q 568 53 411 -175 q 736 353 658 186 q 878 722 814 521 q 907 825 907 810 q 906 826 907 826 q 776 764 883 826 q 681 435 750 629 q 710 446 700 446 q 721 432 721 446 q 632 311 721 392 q 570 187 604 247 q 496 67 536 126 q 301 -104 382 -104 q 271 -87 271 -104 q 279 -81 271 -81 q 291 -82 283 -81 q 303 -83 299 -83 q 492 81 383 -83 q 618 321 567 194 q 600 418 600 383 q 619 469 600 469 q 657 425 640 469 q 706 552 681 471 q 756 751 731 633 q 691 708 719 729 q 642 665 663 686 q 575 572 607 631 q 538 468 538 506 q 560 428 538 440 q 567 421 567 424 q 560 418 567 418 q 515 440 533 418 q 496 488 496 461 q 596 656 496 560 q 673 722 632 690 q 761 781 714 753 l 778 889 q 786 911 779 904 q 792 878 792 907 q 790 840 792 861 q 782 793 788 819 q 947 856 893 856 q 972 833 972 856 q 939 667 972 786 q 599 -3 818 254 q 257 -193 433 -193 m 997 965 q 970 973 989 965 q 926 992 951 981 q 888 1007 906 1000 q 850 1022 871 1014 q 828 1030 840 1026 q 806 1036 815 1033 q 790 1049 796 1040 q 785 1068 785 1058 q 789 1082 785 1075 q 801 1089 793 1089 q 825 1080 807 1089 q 866 1057 843 1071 q 910 1031 889 1043 q 942 1013 931 1019 q 981 988 958 1003 q 1004 969 1004 972 q 997 965 1004 965 z "},"Ỉ":{"ha":922,"x_min":33,"x_max":1104,"o":"m 257 -193 q 99 -117 150 -193 q 51 61 51 -49 q 85 235 51 172 q 89 244 89 242 q 61 256 89 251 q 33 271 33 263 q 56 297 33 285 q 94 310 79 310 q 110 308 100 310 q 125 307 121 307 q 226 311 160 307 q 329 315 296 315 q 429 307 399 315 q 488 239 488 290 q 440 174 488 200 q 435 176 435 174 q 450 199 435 181 q 465 221 465 218 q 313 271 465 271 q 285 270 301 271 q 244 268 268 269 q 206 267 222 267 q 178 267 189 267 q 159 267 168 267 q 143 268 150 267 q 144 260 144 267 q 136 232 144 251 q 82 24 82 122 q 129 -115 82 -60 q 261 -175 179 -175 q 568 53 411 -175 q 736 353 658 186 q 878 722 814 521 q 907 825 907 810 q 906 826 907 826 q 776 764 883 826 q 681 435 750 629 q 710 446 700 446 q 721 432 721 446 q 632 311 721 392 q 570 187 604 247 q 496 67 536 126 q 301 -104 382 -104 q 271 -87 271 -104 q 279 -81 271 -81 q 291 -82 283 -81 q 303 -83 299 -83 q 492 81 383 -83 q 618 321 567 194 q 600 418 600 383 q 619 469 600 469 q 657 425 640 469 q 706 552 681 471 q 756 751 731 633 q 691 708 719 729 q 642 665 663 686 q 575 572 607 631 q 538 468 538 506 q 560 428 538 440 q 567 421 567 424 q 560 418 567 418 q 515 440 533 418 q 496 488 496 461 q 596 656 496 560 q 673 722 632 690 q 761 781 714 753 l 778 889 q 786 911 779 904 q 792 878 792 907 q 790 840 792 861 q 782 793 788 819 q 947 856 893 856 q 972 833 972 856 q 939 667 972 786 q 599 -3 818 254 q 257 -193 433 -193 m 985 964 q 985 976 972 964 q 1034 1027 1021 1007 q 1047 1065 1047 1047 q 1018 1088 1047 1088 q 968 1071 989 1088 q 958 1067 964 1067 q 953 1071 953 1067 q 978 1101 953 1083 q 1038 1118 1003 1118 q 1085 1108 1065 1118 q 1101 1076 1104 1097 q 1070 1020 1096 1044 q 1001 969 1044 996 q 985 964 992 964 z "},"Ȋ":{"ha":922,"x_min":33,"x_max":1133,"o":"m 1043 1093 q 1109 1073 1085 1093 q 1133 1011 1133 1053 q 1123 979 1133 993 q 1097 965 1113 965 q 1092 974 1092 965 q 1093 985 1092 979 q 1094 997 1094 992 q 1076 1038 1094 1022 q 1029 1054 1057 1054 q 956 1042 988 1054 q 893 996 925 1031 q 876 973 881 982 q 869 964 872 964 q 867 975 863 964 q 936 1065 885 1038 q 1043 1093 988 1093 m 257 -193 q 99 -117 150 -193 q 51 61 51 -49 q 85 235 51 172 q 89 244 89 242 q 61 256 89 251 q 33 271 33 263 q 56 297 33 285 q 94 310 79 310 q 110 308 100 310 q 125 307 121 307 q 226 311 160 307 q 329 315 296 315 q 429 307 399 315 q 488 239 488 290 q 440 174 488 200 q 435 176 435 174 q 450 199 435 181 q 465 221 465 218 q 313 271 465 271 q 285 270 301 271 q 244 268 268 269 q 206 267 222 267 q 178 267 189 267 q 159 267 168 267 q 143 268 150 267 q 144 260 144 267 q 136 232 144 251 q 82 24 82 122 q 129 -115 82 -60 q 261 -175 179 -175 q 568 53 411 -175 q 736 353 658 186 q 878 722 814 521 q 907 825 907 810 q 906 826 907 826 q 776 764 883 826 q 681 435 750 629 q 710 446 700 446 q 721 432 721 446 q 632 311 721 392 q 570 187 604 247 q 496 67 536 126 q 301 -104 382 -104 q 271 -87 271 -104 q 279 -81 271 -81 q 291 -82 283 -81 q 303 -83 299 -83 q 492 81 383 -83 q 618 321 567 194 q 600 418 600 383 q 619 469 600 469 q 657 425 640 469 q 706 552 681 471 q 756 751 731 633 q 691 708 719 729 q 642 665 663 686 q 575 572 607 631 q 538 468 538 506 q 560 428 538 440 q 567 421 567 424 q 560 418 567 418 q 515 440 533 418 q 496 488 496 461 q 596 656 496 560 q 673 722 632 690 q 761 781 714 753 l 778 889 q 786 911 779 904 q 792 878 792 907 q 790 840 792 861 q 782 793 788 819 q 947 856 893 856 q 972 833 972 856 q 939 667 972 786 q 599 -3 818 254 q 257 -193 433 -193 z "},"Ī":{"ha":922,"x_min":33,"x_max":1126,"o":"m 257 -193 q 99 -117 150 -193 q 51 61 51 -49 q 85 235 51 172 q 89 244 89 242 q 61 256 89 251 q 33 271 33 263 q 56 297 33 285 q 94 310 79 310 q 110 308 100 310 q 125 307 121 307 q 226 311 160 307 q 329 315 296 315 q 429 307 399 315 q 488 239 488 290 q 440 174 488 200 q 435 176 435 174 q 450 199 435 181 q 465 221 465 218 q 313 271 465 271 q 285 270 301 271 q 244 268 268 269 q 206 267 222 267 q 178 267 189 267 q 159 267 168 267 q 143 268 150 267 q 144 260 144 267 q 136 232 144 251 q 82 24 82 122 q 129 -115 82 -60 q 261 -175 179 -175 q 568 53 411 -175 q 736 353 658 186 q 878 722 814 521 q 907 825 907 810 q 906 826 907 826 q 776 764 883 826 q 681 435 750 629 q 710 446 700 446 q 721 432 721 446 q 632 311 721 392 q 570 187 604 247 q 496 67 536 126 q 301 -104 382 -104 q 271 -87 271 -104 q 279 -81 271 -81 q 291 -82 283 -81 q 303 -83 299 -83 q 492 81 383 -83 q 618 321 567 194 q 600 418 600 383 q 619 469 600 469 q 657 425 640 469 q 706 552 681 471 q 756 751 731 633 q 691 708 719 729 q 642 665 663 686 q 575 572 607 631 q 538 468 538 506 q 560 428 538 440 q 567 421 567 424 q 560 418 567 418 q 515 440 533 418 q 496 488 496 461 q 596 656 496 560 q 673 722 632 690 q 761 781 714 753 l 778 889 q 786 911 779 904 q 792 878 792 907 q 790 840 792 861 q 782 793 788 819 q 947 856 893 856 q 972 833 972 856 q 939 667 972 786 q 599 -3 818 254 q 257 -193 433 -193 m 846 964 q 831 975 838 964 q 825 999 825 986 l 825 1000 q 890 1007 846 1007 q 921 1006 904 1007 q 956 1004 938 1006 q 1041 997 1008 1001 q 1121 985 1074 993 q 1126 979 1126 985 q 1117 969 1126 969 q 1083 969 1110 969 q 1020 967 1057 968 q 947 966 983 967 q 882 965 910 965 q 846 964 854 964 z "},"Į":{"ha":922,"x_min":33,"x_max":972,"o":"m 257 -193 q 99 -117 150 -193 q 51 61 51 -49 q 85 235 51 172 q 89 244 89 242 q 61 256 89 251 q 33 271 33 263 q 56 297 33 285 q 94 310 79 310 q 110 308 100 310 q 125 307 121 307 q 226 311 160 307 q 329 315 296 315 q 429 307 399 315 q 488 239 488 290 q 440 174 488 200 q 435 176 435 174 q 450 199 435 181 q 465 221 465 218 q 313 271 465 271 q 285 270 301 271 q 244 268 268 269 q 206 267 222 267 q 178 267 189 267 q 159 267 168 267 q 143 268 150 267 q 144 260 144 267 q 136 232 144 251 q 82 24 82 122 q 129 -115 82 -60 q 261 -175 179 -175 q 568 53 411 -175 q 736 353 658 186 q 878 722 814 521 q 907 825 907 810 q 906 826 907 826 q 776 764 883 826 q 681 435 750 629 q 710 446 700 446 q 721 432 721 446 q 632 311 721 392 q 570 187 604 247 q 496 67 536 126 q 301 -104 382 -104 q 271 -87 271 -104 q 279 -81 271 -81 q 291 -82 283 -81 q 303 -83 299 -83 q 492 81 383 -83 q 618 321 567 194 q 600 418 600 383 q 619 469 600 469 q 657 425 640 469 q 706 552 681 471 q 756 751 731 633 q 691 708 719 729 q 642 665 663 686 q 575 572 607 631 q 538 468 538 506 q 560 428 538 440 q 567 421 567 424 q 560 418 567 418 q 515 440 533 418 q 496 488 496 461 q 596 656 496 560 q 673 722 632 690 q 761 781 714 753 l 778 889 q 786 911 779 904 q 792 878 792 907 q 790 840 792 861 q 782 793 788 819 q 947 856 893 856 q 972 833 972 856 q 939 667 972 786 q 599 -3 818 254 q 257 -193 433 -193 m 210 -415 q 147 -396 171 -415 q 122 -335 122 -376 q 137 -271 122 -308 q 174 -205 151 -233 q 219 -175 197 -176 l 225 -179 q 176 -312 176 -251 q 192 -362 176 -343 q 242 -382 208 -382 q 278 -376 257 -382 q 315 -357 299 -371 q 326 -351 321 -353 q 331 -357 331 -350 q 311 -383 331 -369 q 264 -406 292 -396 q 210 -415 236 -415 z "}}}
